<svg xmlns="http://www.w3.org/2000/svg" width="18.59" height="16.97"><path d="M.61 16.98h2.42a.6.6 0 00.6-.6V5.81a.6.6 0 00-.6-.6H.61a.6.6 0 00-.6.6v10.57a.6.6 0 00.6.6zm0-13.63h2.42a.6.6 0 00.6-.6V.6a.6.6 0 00-.6-.6H.61a.6.6 0 00-.6.6v2.15a.6.6 0 00.6.6zm17.08 3.08a3.759 3.759 0 00-1.5-1.1 5.6 5.6 0 00-6.32 1.43c-.22.25-.39.19-.39-.14v-.81a.6.6 0 00-.6-.6H6.72a.6.6 0 00-.6.6v10.57a.6.6 0 00.6.6h2.42a.6.6 0 00.6-.6V12.7a11.472 11.472 0 01.28-3.14 2.542 2.542 0 011.02-1.37 2.937 2.937 0 011.69-.52 2.173 2.173 0 011.26.36 2.077 2.077 0 01.76 1.02 11.03 11.03 0 01.23 2.87v4.46a.6.6 0 00.6.6H18a.6.6 0 00.6-.6v-5.99a10.824 10.824 0 00-.2-2.43 3.98 3.98 0 00-.71-1.53z" fill="#fff" fill-rule="evenodd"/></svg>