<svg xmlns="http://www.w3.org/2000/svg" width="17.41" height="14.44"><path d="M5.48 14.45A10.206 10.206 0 0015.63 4.07c0-.16 0-.31-.01-.47a7.445 7.445 0 001.78-1.89 6.968 6.968 0 01-2.05.58A3.635 3.635 0 0016.92.27a7.091 7.091 0 01-2.26.88A3.519 3.519 0 009.61.99a3.7 3.7 0 00-1.03 3.49A10.088 10.088 0 011.22.67a3.706 3.706 0 001.11 4.87 3.562 3.562 0 01-1.62-.46v.05A3.628 3.628 0 003.57 8.7a3.369 3.369 0 01-1.61.06 3.589 3.589 0 003.33 2.54 7.079 7.079 0 01-4.43 1.56 8.235 8.235 0 01-.85-.05 9.9 9.9 0 005.47 1.63" fill="#fff" fill-rule="evenodd"/></svg>