<svg fill="#fff" filter="drop-shadow(0px 10px 10px #1d262b)" viewBox="0 0 1920 96" xmlns="http://www.w3.org/2000/svg" xmlns:xlink="http://www.w3.org/1999/xlink"><path d="M 0 60 C 35 60 35 74 70 74 L 70 74 L 70 0 L 0 0 Z" stroke-width="0"></path> <path d="M 69 74 C 131.5 74 131.5 54 194 54 L 194 54 L 194 0 L 69 0 Z" stroke-width="0"></path> <path d="M 193 54 C 256 54 256 74 319 74 L 319 74 L 319 0 L 193 0 Z" stroke-width="0"></path><path d="M 318 74 C 381 74 381 53 444 53 L 444 53 L 444 0 L 318 0 Z" stroke-width="0"></path><path d="M 443 53 C 506 53 506 74 569 74 L 569 74 L 569 0 L 443 0 Z" stroke-width="0"></path><path d="M 568 74 C 631.5 74 631.5 54 695 54 L 695 54 L 695 0 L 568 0 Z" stroke-width="0"></path><path  d="M 694 54 C 756.5 54 756.5 75 819 75 L 819 75 L 819 0 L 694 0 Z" stroke-width="0"></path><path  d="M 818 75 C 881 75 881 53 944 53 L 944 53 L 944 0 L 818 0 Z" stroke-width="0"></path><path  d="M 943 53 C 1005.5 53 1005.5 74 1068 74 L 1068 74 L 1068 0 L 943 0 Z" stroke-width="0"></path><path  d="M 1067 74 C 1130 74 1130 53 1193 53 L 1193 53 L 1193 0 L 1067 0 Z" stroke-width="0"></path><path  d="M 1192 53 C 1256 53 1256 74 1320 74 L 1320 74 L 1320 0 L 1192 0 Z" stroke-width="0"></path><path  d="M 1319 74 C 1381.5 74 1381.5 53 1444 53 L 1444 53 L 1444 0 L 1319 0 Z" stroke-width="0"></path><path  d="M 1443 53 C 1506 53 1506 74 1569 74 L 1569 74 L 1569 0 L 1443 0 Z" stroke-width="0"></path><path  d="M 1568 74 C 1631.5 74 1631.5 56 1695 56 L 1695 56 L 1695 0 L 1568 0 Z" stroke-width="0"></path><path  d="M 1694 56 C 1757 56 1757 75 1820 75 L 1820 75 L 1820 0 L 1694 0 Z" stroke-width="0"></path><path  d="M 1819 75 C 1869.5 75 1869.5 60 1920 60 L 1920 60 L 1920 0 L 1819 0 Z" stroke-width="0"></path></svg>