<svg fill="#fff" filter="drop-shadow(0px 10px 10px #1d262b)" viewBox="0 0 1920 96" xmlns="http://www.w3.org/2000/svg"><path d="M0 60c35 0 35 14 70 14V0H0z"/><path d="M69 74c62.5 0 62.5-20 125-20V0H69z"/><path d="M193 54c63 0 63 20 126 20V0H193z"/><path d="M318 74c63 0 63-21 126-21V0H318z"/><path d="M443 53c63 0 63 21 126 21V0H443z"/><path d="M568 74c63.5 0 63.5-20 127-20V0H568z"/><path d="M694 54c62.5 0 62.5 21 125 21V0H694z"/><path d="M818 75c63 0 63-22 126-22V0H818z"/><path d="M943 53c62.5 0 62.5 21 125 21V0H943z"/><path d="M1067 74c63 0 63-21 126-21V0h-126z"/><path d="M1192 53c64 0 64 21 128 21V0h-128z"/><path d="M1319 74c62.5 0 62.5-21 125-21V0h-125z"/><path d="M1443 53c63 0 63 21 126 21V0h-126z"/><path d="M1568 74c63.5 0 63.5-18 127-18V0h-127z"/><path d="M1694 56c63 0 63 19 126 19V0h-126z"/><path d="M1819 75c50.5 0 50.5-15 101-15V0h-101z"/></svg>