<svg width="46" height="46" fill="none" xmlns="http://www.w3.org/2000/svg"><path d="M5.407 38.172c-.116-1.135.234-2.11 1.05-2.927 1.421-1.421 2.94-1.336 4.555.255l4.444 4.443-1.15 1.15-4.45-4.45c-.488-.48-.959-.727-1.41-.74-.448-.016-.901.206-1.361.666a2.35 2.35 0 00-.684 1.28c-.083.48-.041.961.124 1.442l4.792 4.792-1.15 1.15-9.546-9.547 1.15-1.15 3.636 3.636zm14.685-2.616c-.911.911-1.951 1.355-3.12 1.33-1.172-.03-2.26-.545-3.262-1.548l-.212-.211c-.667-.667-1.135-1.388-1.404-2.163-.27-.783-.323-1.55-.162-2.3a3.803 3.803 0 011.044-1.938c.875-.874 1.842-1.266 2.903-1.175 1.06.091 2.127.673 3.2 1.747l.479.478-4.556 4.555c.68.647 1.41.99 2.188 1.032.779.033 1.454-.236 2.026-.808.406-.406.667-.833.783-1.28.116-.447.143-.914.08-1.398l1.25-.156c.302 1.43-.11 2.708-1.237 3.835zm-6.171-5.886a2.163 2.163 0 00-.659 1.678c.021.65.299 1.318.833 2.002l3.368-3.369-.087-.087c-.617-.551-1.226-.845-1.827-.882-.605-.042-1.147.178-1.628.658zm14.157-2.349c-.198-.066-.489-.248-.87-.547.021 1.09-.34 2.006-1.081 2.747-.663.663-1.394 1.021-2.194 1.075-.8.046-1.487-.22-2.063-.795-.7-.7-.978-1.508-.833-2.424.145-.924.7-1.868 1.666-2.834l1.118-1.119-.528-.528c-.402-.402-.841-.6-1.318-.596-.48 0-.955.234-1.423.702-.41.41-.65.858-.72 1.342-.071.485.04.874.335 1.169l-1.156 1.156c-.336-.336-.54-.777-.615-1.324-.075-.555 0-1.127.223-1.715a4.643 4.643 0 011.076-1.622c.774-.775 1.576-1.188 2.405-1.237.824-.054 1.584.25 2.28.913l3.096 3.095c.617.618 1.187 1.03 1.709 1.237l.099.1-1.206 1.205zm-2.784 1.032c.36-.36.61-.796.746-1.305.137-.51.128-.986-.025-1.43l-1.38-1.38-.9.902c-1.41 1.408-1.702 2.525-.877 3.35.36.36.762.522 1.206.484.443-.037.853-.244 1.23-.621zm1.858-6.942c-1.031-1.032-1.616-2.105-1.752-3.22-.141-1.118.184-2.073.976-2.864.787-.788 1.68-1.142 2.678-1.063l-3.505-3.505 1.15-1.15 9.546 9.546-1.057 1.056-.777-.665c.104 1.024-.255 1.946-1.075 2.766-.779.779-1.734 1.096-2.865.95-1.127-.148-2.204-.737-3.232-1.764l-.087-.087zm1.28-1.02c.763.763 1.517 1.202 2.263 1.318.746.116 1.396-.103 1.951-.659.73-.729.934-1.588.615-2.579l-3.088-3.088c-.978-.29-1.823-.08-2.536.633-.563.564-.785 1.22-.665 1.97s.607 1.552 1.46 2.406zM40.95 14.7c-.911.911-1.951 1.355-3.12 1.33-1.172-.03-2.26-.545-3.262-1.548l-.212-.21c-.667-.668-1.135-1.389-1.404-2.164-.27-.783-.323-1.55-.162-2.3a3.803 3.803 0 011.044-1.938c.875-.874 1.842-1.266 2.903-1.175 1.06.091 2.127.673 3.2 1.747l.479.478-4.556 4.556c.68.646 1.409.99 2.188 1.031.779.033 1.454-.236 2.026-.808.406-.406.667-.832.783-1.28.116-.447.143-.913.08-1.398l1.25-.156c.302 1.43-.11 2.708-1.237 3.835zm-6.171-5.886a2.163 2.163 0 00-.659 1.678c.02.65.298 1.318.833 2.002l3.368-3.369-.087-.087c-.617-.55-1.226-.845-1.827-.882-.605-.042-1.148.178-1.628.658zm7.563-7.14a4.873 4.873 0 00-.609.522c-.754.754-.944 1.587-.572 2.498l4.774 4.773-1.15 1.15-6.725-6.725 1.119-1.118.796.758c-.224-.978.01-1.813.702-2.505.224-.223.422-.364.596-.422l1.07 1.069z" fill="#000"/></svg>