<svg width="34" height="33" fill="none" xmlns="http://www.w3.org/2000/svg"><path d="M1.524 24.426l.777.715c-.087-1.073.288-2.028 1.125-2.865.94-.94 1.941-1.22 3.002-.839-.1-.547-.07-1.098.087-1.653.161-.56.487-1.083.975-1.572 1.475-1.475 3.006-1.444 4.593.093l4.506 4.506-1.15 1.15-4.437-4.438c-.48-.48-.949-.73-1.405-.746-.46-.02-.949.228-1.466.746-.427.427-.653.91-.678 1.448-.029.535.15 1.04.535 1.516l4.462 4.463-1.156 1.156-4.406-4.407c-.978-.978-1.946-.988-2.903-.03-.754.753-.948 1.59-.584 2.51l4.91 4.91-1.15 1.15-6.724-6.725 1.087-1.088zm20.957-7.507c-.2-.066-.49-.249-.87-.547.02 1.09-.34 2.005-1.082 2.747-.663.663-1.394 1.021-2.194 1.075-.8.046-1.487-.22-2.063-.795-.7-.7-.978-1.509-.833-2.424.145-.924.7-1.869 1.666-2.834l1.118-1.119-.528-.528c-.402-.402-.84-.6-1.317-.597-.481 0-.955.235-1.424.703-.41.41-.65.857-.72 1.342-.07.485.04.874.335 1.168l-1.156 1.156c-.335-.335-.54-.776-.615-1.323-.075-.556 0-1.127.224-1.716a4.644 4.644 0 011.075-1.622c.775-.774 1.576-1.187 2.405-1.237.824-.053 1.585.251 2.28.914l3.096 3.095c.617.617 1.187 1.03 1.709 1.237l.1.1-1.206 1.205zm-2.785 1.032c.36-.36.61-.796.746-1.306.137-.51.128-.986-.025-1.429l-1.38-1.38-.9.902c-1.41 1.408-1.701 2.525-.877 3.35.36.36.762.521 1.206.484.443-.037.853-.244 1.23-.621zm6.805-5.053l-1.15 1.15-6.724-6.725 1.15-1.15 6.724 6.725zm-9.75-7.265a.982.982 0 01-.305-.64c-.012-.245.093-.479.317-.703.224-.223.458-.329.702-.317a.96.96 0 01.646.299.93.93 0 01.293.64c.008.24-.1.472-.323.696-.224.224-.456.331-.697.323a.949.949 0 01-.634-.298zm5.96-2.393l.882.808c-.133-1.16.215-2.154 1.044-2.983 1.421-1.421 2.94-1.336 4.555.255l4.444 4.443-1.15 1.15-4.45-4.45c-.488-.48-.959-.727-1.41-.74-.448-.016-.901.206-1.361.666a2.35 2.35 0 00-.684 1.28c-.083.48-.041.961.125 1.442l4.791 4.791-1.15 1.15-6.724-6.724L22.71 3.24z" fill="#000"/></svg>