<svg width="51" height="51" fill="none" xmlns="http://www.w3.org/2000/svg"><path d="M12.536 44.694L8.69 38.26l1.15-1.15 4.767 8.683-.932.932-6.731-3.462 3.505 6.687-.932.933L.84 46.11l1.144-1.144 6.357 3.71-3.468-6.6.926-.926 6.737 3.543zm2.76-10.976a4.858 4.858 0 00-.61.522c-.754.754-.944 1.587-.571 2.499l4.773 4.773-1.15 1.15-6.724-6.725 1.118-1.119.796.759c-.224-.978.01-1.813.702-2.505.224-.224.423-.365.597-.423l1.069 1.07zm10.658.727c-.199-.066-.489-.248-.87-.547.02 1.09-.34 2.006-1.081 2.747-.663.663-1.395 1.022-2.194 1.076-.8.045-1.488-.22-2.064-.796-.7-.7-.977-1.508-.832-2.424.145-.924.7-1.868 1.665-2.834l1.119-1.118-.528-.529c-.402-.401-.841-.6-1.318-.596-.48 0-.955.234-1.423.702-.41.41-.65.858-.721 1.343-.07.484.041.874.336 1.168l-1.156 1.156c-.336-.336-.541-.777-.616-1.324-.074-.555 0-1.127.224-1.715a4.644 4.644 0 011.075-1.622c.775-.775 1.577-1.187 2.405-1.237.825-.054 1.585.25 2.281.914l3.095 3.095c.618.617 1.187 1.03 1.71 1.236l.099.1-1.206 1.205zm-2.784 1.032c.36-.36.609-.795.746-1.305.136-.51.128-.986-.025-1.43l-1.38-1.38-.901.902c-1.409 1.409-1.7 2.525-.876 3.35.36.36.762.522 1.205.485.444-.038.854-.245 1.23-.622zm7.949-12.771c1.023 1.023 1.613 2.082 1.77 3.175.158 1.094-.163 2.041-.963 2.84-.816.817-1.717 1.2-2.703 1.15l3.238 3.238-1.15 1.15-9.31-9.31 1.05-1.05.802.69c-.111-1.048.249-1.989 1.082-2.822.808-.808 1.75-1.141 2.828-1 1.08.136 2.164.748 3.25 1.833l.106.106zm-1.28 1.019c-.759-.758-1.52-1.195-2.281-1.311-.763-.116-1.426.107-1.99.67-.695.697-.909 1.527-.64 2.493l3.214 3.213c.957.27 1.79.05 2.498-.659.551-.55.77-1.206.659-1.964-.112-.766-.599-1.58-1.46-2.442zm8.427-8.166c1.023 1.023 1.613 2.082 1.77 3.175.158 1.094-.163 2.04-.962 2.84-.817.817-1.718 1.2-2.704 1.15l3.238 3.238-1.15 1.15-9.31-9.31 1.05-1.05.802.69c-.111-1.049.25-1.989 1.082-2.822.808-.808 1.75-1.141 2.828-1 1.081.136 2.164.748 3.25 1.833l.106.106zm-1.28 1.019c-.759-.758-1.52-1.195-2.281-1.311-.763-.117-1.426.107-1.99.67-.695.697-.909 1.528-.64 2.493l3.214 3.213c.957.27 1.79.05 2.498-.659.551-.55.77-1.206.659-1.964-.112-.766-.599-1.58-1.46-2.442zm8.949-1.865c-.912.912-1.952 1.355-3.12 1.33-1.173-.029-2.26-.544-3.263-1.547l-.211-.211c-.667-.667-1.136-1.388-1.405-2.163-.27-.783-.323-1.55-.161-2.3a3.803 3.803 0 011.044-1.939c.874-.874 1.841-1.265 2.902-1.174 1.06.09 2.128.673 3.2 1.746l.48.479-4.556 4.555c.68.646 1.408.99 2.187 1.032.78.033 1.455-.236 2.026-.808.406-.406.667-.833.783-1.28.116-.448.143-.914.081-1.399l1.25-.155c.302 1.43-.11 2.707-1.237 3.834zm-6.172-5.885a2.163 2.163 0 00-.658 1.678c.02.65.298 1.318.832 2.001l3.369-3.368-.087-.087c-.618-.551-1.227-.845-1.827-.883-.605-.041-1.148.178-1.629.659zm7.564-7.14a4.865 4.865 0 00-.61.521c-.753.754-.944 1.587-.571 2.499l4.773 4.773-1.15 1.15-6.724-6.725 1.118-1.119.796.758c-.224-.977.01-1.812.702-2.504.224-.224.423-.365.597-.423l1.069 1.07z" fill="#000"/></svg>