<svg width="46" height="46" viewBox="0 0 46 46" fill="none" xmlns="http://www.w3.org/2000/svg">
<path d="M5.40673 38.1722C5.29073 37.037 5.64083 36.0612 6.45704 35.245C7.87816 33.8239 9.39664 33.9088 11.0125 35.4998L15.4561 39.9434L14.3063 41.0932L9.85654 36.6434C9.36764 36.1627 8.89738 35.9162 8.44577 35.9038C7.99831 35.8872 7.54463 36.1089 7.08473 36.5688C6.71184 36.9417 6.48397 37.3684 6.4011 37.849C6.31824 38.3296 6.35967 38.8103 6.5254 39.2909L11.317 44.0825L10.1673 45.2322L0.621335 35.6863L1.77107 34.5365L5.40673 38.1722ZM20.0923 35.5558C19.1808 36.4673 18.1409 36.9106 16.9725 36.8857C15.8 36.8567 14.7124 36.3409 13.7097 35.3382L13.4984 35.1269C12.8314 34.4599 12.3632 33.739 12.0939 32.9642C11.8246 32.1811 11.7707 31.4146 11.9323 30.6647C12.0939 29.9065 12.4419 29.2602 12.9764 28.7257C13.8506 27.8515 14.818 27.4599 15.8787 27.5511C16.9393 27.6422 18.0062 28.2244 19.0793 29.2975L19.5578 29.776L15.0024 34.3314C15.6819 34.9778 16.4111 35.3217 17.19 35.3631C17.9689 35.3963 18.6443 35.1269 19.216 34.5552C19.6221 34.1491 19.8831 33.7224 19.9991 33.2749C20.1151 32.8275 20.142 32.3614 20.0799 31.8766L21.3291 31.7212C21.6315 33.1506 21.2193 34.4288 20.0923 35.5558ZM13.921 29.6703C13.457 30.1344 13.2374 30.6937 13.2622 31.3483C13.283 31.9988 13.5606 32.6659 14.095 33.3495L17.4635 29.9811L17.3765 29.8941C16.7591 29.343 16.1501 29.0489 15.5493 29.0116C14.9444 28.9701 14.4016 29.1897 13.921 29.6703ZM28.0783 27.3211C27.8795 27.2549 27.5894 27.0726 27.2083 26.7742C27.229 27.8639 26.8685 28.7796 26.1269 29.5212C25.464 30.1841 24.7327 30.5425 23.9331 30.5963C23.1334 30.6419 22.4457 30.3768 21.8698 29.8009C21.1696 29.1007 20.892 28.2927 21.037 27.3771C21.182 26.4531 21.7372 25.5085 22.7025 24.5431L23.8212 23.4245L23.2929 22.8962C22.8911 22.4943 22.4519 22.2954 21.9754 22.2996C21.4948 22.2996 21.0204 22.5337 20.5522 23.0019C20.142 23.412 19.9017 23.8595 19.8313 24.3443C19.7609 24.829 19.8727 25.2185 20.1669 25.5126L19.0109 26.6686C18.6753 26.333 18.4703 25.8917 18.3957 25.3448C18.3211 24.7896 18.3957 24.2179 18.6194 23.6296C18.8473 23.0371 19.2057 22.4964 19.6946 22.0075C20.4694 21.2327 21.2711 20.8205 22.0997 20.7707C22.9242 20.7169 23.6845 21.0214 24.3805 21.6843L27.4755 24.7793C28.0928 25.3966 28.6625 25.8089 29.1846 26.016L29.284 26.1155L28.0783 27.3211ZM25.2941 28.3528C25.6546 27.9923 25.9032 27.5573 26.0399 27.0477C26.1766 26.5381 26.1683 26.0616 26.015 25.6183L24.6353 24.2386L23.7342 25.1398C22.3255 26.5484 22.0334 27.665 22.8579 28.4895C23.2184 28.85 23.6203 29.0116 24.0636 28.9743C24.5069 28.937 24.9171 28.7298 25.2941 28.3528ZM27.1523 21.4109C26.1207 20.3792 25.5365 19.3061 25.3998 18.1916C25.2589 17.0729 25.5841 16.1179 26.3755 15.3266C27.1627 14.5394 28.0556 14.1851 29.0541 14.2638L25.5489 10.7587L26.6987 9.60895L36.2446 19.1549L35.1881 20.2114L34.4112 19.5464C34.5148 20.5698 34.1564 21.4917 33.3361 22.312C32.5571 23.0909 31.6021 23.4079 30.471 23.2629C29.3441 23.1137 28.2669 22.5254 27.2393 21.4979L27.1523 21.4109ZM28.4326 20.3916C29.1949 21.154 29.949 21.5932 30.6948 21.7092C31.4406 21.8252 32.091 21.6056 32.6462 21.0504C33.3754 20.3212 33.5805 19.4615 33.2615 18.4713L30.1727 15.3825C29.1949 15.0925 28.3497 15.3038 27.6371 16.0164C27.0736 16.5799 26.852 17.2366 26.9721 17.9865C27.0923 18.7364 27.5791 19.5381 28.4326 20.3916ZM40.9492 14.6989C40.0377 15.6104 38.9978 16.0537 37.8294 16.0288C36.6568 15.9998 35.5693 15.484 34.5666 14.4814L34.3553 14.2701C33.6882 13.603 33.2201 12.8821 32.9508 12.1073C32.6814 11.3242 32.6276 10.5577 32.7892 9.80782C32.9508 9.04962 33.2988 8.40328 33.8333 7.86881C34.7075 6.99459 35.6749 6.60306 36.7356 6.69421C37.7962 6.78536 38.8631 7.36748 39.9362 8.44057L40.4147 8.91911L35.8593 13.4746C36.5388 14.1209 37.268 14.4648 38.0469 14.5062C38.8258 14.5394 39.5012 14.2701 40.0729 13.6983C40.479 13.2923 40.74 12.8655 40.856 12.418C40.972 11.9706 40.9989 11.5045 40.9368 11.0197L42.186 10.8643C42.4884 12.2937 42.0762 13.5719 40.9492 14.6989ZM34.7779 8.81346C34.3139 9.27749 34.0943 9.83683 34.1191 10.4915C34.1399 11.1419 34.4174 11.809 34.9519 12.4926L38.3203 9.1242L38.2333 9.03719C37.616 8.48614 37.0069 8.19198 36.4062 8.15469C35.8013 8.11325 35.2585 8.33284 34.7779 8.81346ZM42.3413 1.67264C42.1383 1.81766 41.9353 1.99167 41.7323 2.19469C40.9782 2.94875 40.7876 3.78153 41.1605 4.69304L45.9335 9.46601L44.7837 10.6157L38.0593 3.89133L39.178 2.77266L39.9735 3.53087C39.7498 2.55308 39.9838 1.71822 40.6758 1.0263C40.8995 0.802571 41.0984 0.661703 41.2724 0.603698L42.3413 1.67264Z" fill="black"/>
</svg>
