<svg width="34" height="33" viewBox="0 0 34 33" fill="none" xmlns="http://www.w3.org/2000/svg">
<path d="M1.52423 24.4264L2.30108 25.1411C2.21408 24.068 2.58904 23.113 3.42596 22.2761C4.36647 21.3356 5.36705 21.0559 6.42771 21.4371C6.32828 20.8902 6.35728 20.3392 6.51472 19.784C6.67631 19.2246 7.00155 18.7005 7.49045 18.2116C8.96543 16.7366 10.4963 16.7677 12.0832 18.3048L16.5889 22.8106L15.4392 23.9603L11.0018 19.5229C10.5212 19.0423 10.053 18.7937 9.59727 18.7772C9.13737 18.7564 8.64847 19.005 8.13057 19.5229C7.70382 19.9497 7.47802 20.4324 7.45316 20.971C7.42415 21.5055 7.60231 22.0109 7.98763 22.4874L12.4499 26.9496L11.2939 28.1056L6.88761 23.6993C5.90981 22.7215 4.94238 22.7111 3.9853 23.6682C3.23123 24.4223 3.0365 25.2592 3.4011 26.179L8.3108 31.0887L7.16106 32.2384L0.436642 25.514L1.52423 24.4264ZM22.4806 16.9189C22.2817 16.8526 21.9917 16.6703 21.6105 16.372C21.6312 17.4617 21.2707 18.3773 20.5291 19.119C19.8662 19.7819 19.1349 20.1403 18.3353 20.1941C17.5356 20.2397 16.8479 19.9745 16.272 19.3986C15.5718 18.6984 15.2942 17.8905 15.4392 16.9749C15.5842 16.0509 16.1394 15.1063 17.1048 14.1409L18.2234 13.0223L17.6952 12.494C17.2933 12.0921 16.8541 11.8932 16.3776 11.8974C15.897 11.8974 15.4226 12.1315 14.9544 12.5996C14.5443 13.0098 14.3039 13.4573 14.2335 13.942C14.1631 14.4268 14.2749 14.8163 14.5691 15.1104L13.4132 16.2664C13.0776 15.9308 12.8725 15.4895 12.7979 14.9426C12.7233 14.3874 12.7979 13.8157 13.0216 13.2273C13.2495 12.6349 13.6079 12.0942 14.0968 11.6053C14.8716 10.8305 15.6733 10.4182 16.5019 10.3685C17.3264 10.3147 18.0867 10.6192 18.7827 11.2821L21.8777 14.3771C22.4951 14.9944 23.0647 15.4067 23.5868 15.6138L23.6862 15.7133L22.4806 16.9189ZM19.6963 17.9506C20.0568 17.5901 20.3054 17.1551 20.4421 16.6455C20.5788 16.1359 20.5705 15.6594 20.4172 15.2161L19.0376 13.8364L18.1364 14.7375C16.7277 16.1462 16.4356 17.2628 17.2601 18.0873C17.6206 18.4478 18.0225 18.6094 18.4658 18.5721C18.9091 18.5348 19.3193 18.3276 19.6963 17.9506ZM26.5015 12.898L25.3518 14.0477L18.6274 7.32328L19.7771 6.17354L26.5015 12.898ZM16.7505 5.63285C16.5641 5.4464 16.4626 5.23303 16.446 4.99272C16.4336 4.74827 16.5392 4.51418 16.7629 4.29045C16.9867 4.06672 17.2208 3.96107 17.4652 3.9735C17.7097 3.98593 17.9251 4.08536 18.1115 4.27181C18.298 4.45825 18.3954 4.67163 18.4036 4.91193C18.4119 5.15224 18.3042 5.38426 18.0805 5.60799C17.8567 5.83172 17.6247 5.93945 17.3844 5.93116C17.1483 5.91873 16.937 5.81929 16.7505 5.63285ZM22.7105 3.24015L23.593 4.04807C23.4604 2.88798 23.8085 1.89361 24.6371 1.06497C26.0582 -0.356152 27.5767 -0.271217 29.1925 1.31977L33.6361 5.76336L32.4864 6.9131L28.0366 2.4633C27.5477 1.98269 27.0774 1.73617 26.6258 1.72374C26.1784 1.70716 25.7247 1.92882 25.2648 2.38872C24.8919 2.76161 24.664 3.18836 24.5812 3.66897C24.4983 4.14958 24.5397 4.63019 24.7055 5.11081L29.4971 9.90242L28.3473 11.0522L21.6229 4.32774L22.7105 3.24015Z" fill="black"/>
</svg>
