<svg width="51" height="51" viewBox="0 0 51 51" fill="none" xmlns="http://www.w3.org/2000/svg">
<path d="M12.5363 44.6937L8.68932 38.2613L9.83906 37.1116L14.6058 45.7937L13.6736 46.7259L6.94296 43.2643L10.4481 49.9514L9.51589 50.8836L0.84002 46.1106L1.98354 44.9671L8.34129 48.6773L4.87343 42.0772L5.79944 41.1512L12.5363 44.6937ZM15.2957 33.7183C15.0926 33.8633 14.8896 34.0373 14.6866 34.2404C13.9325 34.9944 13.742 35.8272 14.1148 36.7387L18.8878 41.5117L17.7381 42.6614L11.0137 35.937L12.1323 34.8183L12.9278 35.5765C12.7041 34.5987 12.9382 33.7639 13.6301 33.072C13.8538 32.8482 14.0527 32.7074 14.2267 32.6494L15.2957 33.7183ZM25.954 34.4454C25.7552 34.3792 25.4652 34.1969 25.084 33.8985C25.1047 34.9882 24.7442 35.9039 24.0026 36.6455C23.3397 37.3084 22.6084 37.6668 21.8088 37.7206C21.0091 37.7662 20.3214 37.5011 19.7455 36.9252C19.0453 36.2249 18.7677 35.417 18.9127 34.5014C19.0577 33.5774 19.6129 32.6328 20.5782 31.6674L21.6969 30.5488L21.1686 30.0205C20.7668 29.6186 20.3276 29.4197 19.8511 29.4239C19.3705 29.4239 18.8961 29.658 18.4279 30.1262C18.0177 30.5363 17.7774 30.9838 17.707 31.4686C17.6366 31.9533 17.7484 32.3428 18.0426 32.6369L16.8866 33.7929C16.551 33.4573 16.346 33.016 16.2714 32.4691C16.1968 31.9139 16.2714 31.3422 16.4951 30.7538C16.723 30.1614 17.0814 29.6207 17.5703 29.1318C18.3451 28.357 19.1468 27.9448 19.9754 27.895C20.7999 27.8412 21.5602 28.1457 22.2562 28.8086L25.3512 31.9036C25.9686 32.5209 26.5382 32.9332 27.0603 33.1403L27.1597 33.2398L25.954 34.4454ZM23.1698 35.4771C23.5303 35.1166 23.7789 34.6816 23.9156 34.172C24.0523 33.6624 24.044 33.1859 23.8907 32.7426L22.511 31.3629L21.6099 32.264C20.2012 33.6727 19.9091 34.7893 20.7336 35.6138C21.0941 35.9743 21.496 36.1359 21.9393 36.0986C22.3826 36.0613 22.7928 35.8541 23.1698 35.4771ZM31.1186 22.7057C32.1419 23.729 32.7323 24.7876 32.8898 25.8814C33.0472 26.9752 32.7261 27.922 31.9265 28.7216C31.1103 29.5378 30.2091 29.9211 29.223 29.8713L32.461 33.1093L31.3112 34.259L22.0014 24.9492L23.0517 23.8989L23.8534 24.5888C23.7416 23.5405 24.102 22.6 24.9348 21.7672C25.7427 20.9593 26.6853 20.6258 27.7626 20.7667C28.8439 20.9034 29.9274 21.5145 31.0129 22.6L31.1186 22.7057ZM29.8383 23.7249C29.0801 22.9667 28.3198 22.5296 27.5575 22.4136C26.7951 22.2976 26.1322 22.5213 25.5687 23.0848C24.8727 23.7808 24.6593 24.6115 24.9286 25.5769L28.1417 28.79C29.0987 29.0593 29.9315 28.8397 30.64 28.1312C31.1911 27.5802 31.4106 26.9255 31.2988 26.1673C31.1869 25.4008 30.7001 24.5867 29.8383 23.7249ZM38.2656 15.5586C39.289 16.582 39.8794 17.6406 40.0368 18.7344C40.1942 19.8282 39.8731 20.7749 39.0735 21.5746C38.2573 22.3908 37.3561 22.774 36.3701 22.7243L39.608 25.9622L38.4582 27.112L29.1485 17.8022L30.1988 16.7519L31.0005 17.4417C30.8886 16.3935 31.2491 15.453 32.0818 14.6202C32.8898 13.8123 33.8324 13.4788 34.9096 13.6196C35.991 13.7564 37.0744 14.3675 38.1599 15.453L38.2656 15.5586ZM36.9853 16.5779C36.2271 15.8197 35.4668 15.3826 34.7045 15.2666C33.9421 15.1505 33.2792 15.3743 32.7158 15.9378C32.0197 16.6338 31.8063 17.4645 32.0756 18.4299L35.2887 21.6429C36.2458 21.9123 37.0786 21.6927 37.787 20.9842C38.3381 20.4331 38.5577 19.7785 38.4458 19.0203C38.3339 18.2538 37.8471 17.4397 36.9853 16.5779ZM45.9346 14.7134C45.0231 15.6249 43.9832 16.0683 42.8148 16.0434C41.6423 16.0144 40.5547 15.4986 39.552 14.4959L39.3407 14.2846C38.6737 13.6176 38.2055 12.8966 37.9362 12.1219C37.6669 11.3388 37.613 10.5723 37.7746 9.82238C37.9362 9.06418 38.2842 8.41784 38.8187 7.88336C39.6929 7.00915 40.6604 6.61762 41.721 6.70877C42.7817 6.79992 43.8485 7.38204 44.9216 8.45513L45.4002 8.93367L40.8447 13.4891C41.5242 14.1355 42.2534 14.4793 43.0323 14.5208C43.8113 14.5539 44.4866 14.2846 45.0584 13.7129C45.4644 13.3068 45.7254 12.8801 45.8414 12.4326C45.9574 11.9851 45.9844 11.519 45.9222 11.0343L47.1714 10.8789C47.4738 12.3083 47.0616 13.5865 45.9346 14.7134ZM39.7633 8.82801C39.2993 9.29205 39.0797 9.85139 39.1046 10.506C39.1253 11.1565 39.4029 11.8236 39.9374 12.5072L43.3058 9.13875L43.2188 9.05175C42.6014 8.5007 41.9924 8.20653 41.3916 8.16924C40.7867 8.12781 40.244 8.3474 39.7633 8.82801ZM47.3268 1.6872C47.1237 1.83221 46.9207 2.00623 46.7177 2.20925C45.9637 2.96331 45.7731 3.79609 46.146 4.7076L50.9189 9.48057L49.7692 10.6303L43.0448 3.90589L44.1634 2.78722L44.9589 3.54543C44.7352 2.56763 44.9693 1.73278 45.6612 1.04086C45.8849 0.81713 46.0838 0.676261 46.2578 0.618256L47.3268 1.6872Z" fill="black"/>
</svg>
