<svg xmlns="http://www.w3.org/2000/svg" width="19.78" height="13.88" viewBox="0 0 19.78 13.88">
  <defs>
    <style>
      .cls-1 {
        fill: #fff;
        fill-rule: evenodd;
      }
    </style>
  </defs>
  <path class="cls-1" d="M1566.9,5336.67a2.466,2.466,0,0,0-1.74-1.74c-1.55-.43-7.74-0.43-7.74-0.43s-6.2,0-7.74.41a2.524,2.524,0,0,0-1.75,1.76,27.894,27.894,0,0,0,0,9.53,2.5,2.5,0,0,0,1.75,1.74c1.56,0.42,7.74.42,7.74,0.42a61.293,61.293,0,0,0,7.74-.4,2.48,2.48,0,0,0,1.74-1.75,25.981,25.981,0,0,0,.41-4.76A24.4,24.4,0,0,0,1566.9,5336.67Zm-11.45,7.73v-5.93l5.14,2.96Z" transform="translate(-1547.53 -5334.5)"/>
</svg>
