<svg xmlns="http://www.w3.org/2000/svg" width="18.59" height="16.97" viewBox="0 0 18.59 16.97">
  <defs>
    <style>
      .cls-1 {
        fill: #fff;
        fill-rule: evenodd;
      }
    </style>
  </defs>
  <path class="cls-1" d="M1651.77,5349.92h2.42a0.6,0.6,0,0,0,.6-0.6v-10.57a0.6,0.6,0,0,0-.6-0.6h-2.42a0.6,0.6,0,0,0-.6.6v10.57A0.6,0.6,0,0,0,1651.77,5349.92Zm0-13.63h2.42a0.6,0.6,0,0,0,.6-0.6v-2.15a0.6,0.6,0,0,0-.6-0.6h-2.42a0.6,0.6,0,0,0-.6.6v2.15A0.6,0.6,0,0,0,1651.77,5336.29Zm17.08,3.08a3.759,3.759,0,0,0-1.5-1.1,5.6,5.6,0,0,0-6.32,1.43c-0.22.25-.39,0.19-0.39-0.14v-0.81a0.6,0.6,0,0,0-.6-0.6h-2.16a0.6,0.6,0,0,0-.6.6v10.57a0.6,0.6,0,0,0,.6.6h2.42a0.6,0.6,0,0,0,.6-0.6v-3.68a11.472,11.472,0,0,1,.28-3.14,2.542,2.542,0,0,1,1.02-1.37,2.937,2.937,0,0,1,1.69-.52,2.173,2.173,0,0,1,1.26.36,2.077,2.077,0,0,1,.76,1.02,11.03,11.03,0,0,1,.23,2.87v4.46a0.6,0.6,0,0,0,.6.6h2.42a0.6,0.6,0,0,0,.6-0.6v-5.99a10.824,10.824,0,0,0-.2-2.43A3.98,3.98,0,0,0,1668.85,5339.37Z" transform="translate(-1651.16 -5332.94)"/>
</svg>
