<svg xmlns="http://www.w3.org/2000/svg" width="17.41" height="14.44" viewBox="0 0 17.41 14.44">
  <defs>
    <style>
      .cls-1 {
        fill: #fff;
        fill-rule: evenodd;
      }
    </style>
  </defs>
  <path class="cls-1" d="M1605.82,5349.92a10.206,10.206,0,0,0,10.15-10.38c0-.16,0-0.31-0.01-0.47a7.445,7.445,0,0,0,1.78-1.89,6.968,6.968,0,0,1-2.05.58,3.635,3.635,0,0,0,1.57-2.02,7.091,7.091,0,0,1-2.26.88,3.519,3.519,0,0,0-5.05-.16,3.7,3.7,0,0,0-1.03,3.49,10.088,10.088,0,0,1-7.36-3.81,3.706,3.706,0,0,0,1.11,4.87,3.562,3.562,0,0,1-1.62-.46v0.05a3.628,3.628,0,0,0,2.86,3.57,3.369,3.369,0,0,1-1.61.06,3.589,3.589,0,0,0,3.33,2.54,7.079,7.079,0,0,1-4.43,1.56,8.235,8.235,0,0,1-.85-0.05,9.9,9.9,0,0,0,5.47,1.63" transform="translate(-1600.34 -5335.47)"/>
</svg>
