<?xml version="1.0" standalone="no"?>
<!DOCTYPE svg PUBLIC "-//W3C//DTD SVG 1.1//EN" "http://www.w3.org/Graphics/SVG/1.1/DTD/svg11.dtd" >
<svg>
<metadata>
Created by FontForge 20090914 at Mon May 24 14:34:02 2021
 By www-data
Kodakku made from "Kodak" logo

Kodak logo is a trademark of Eastman Kodak Company

K, o, d, a, k characters made by Kodak 
the rest of is my own made
</metadata>
<defs>
<font id="kodakku" horiz-adv-x="1178" >
  <font-face 
    font-family="kodakku"
    font-weight="400"
    font-stretch="normal"
    units-per-em="2048"
    panose-1="2 0 5 0 0 0 0 0 0 0"
    ascent="1638"
    descent="-410"
    x-height="1024"
    cap-height="1435"
    bbox="9 -413.001 3421 1612"
    underline-thickness="150"
    underline-position="-142"
    unicode-range="U+0020-U+007B"
  />
<missing-glyph horiz-adv-x="1237" 
d="M1216 1409v-1409h-1207v1409h1207zM78 1316v-1243h1065v1243h-1065z" />
    <glyph glyph-name=".notdef" horiz-adv-x="1237" 
d="M1216 1409v-1409h-1207v1409h1207zM78 1316v-1243h1065v1243h-1065z" />
    <glyph glyph-name="space" unicode=" " horiz-adv-x="508" 
 />
    <glyph glyph-name="space" unicode="&#xa0;" horiz-adv-x="508" 
 />
    <glyph glyph-name="exclam" unicode="!" horiz-adv-x="400" 
d="M36 1426h311v-1017l-307 -1l-4 708v310zM317.5 282.5c32.333 -31.667 48.5 -70.167 48.5 -115.5c0 -44.667 -16.167 -83 -48.5 -115s-71.5 -48 -117.5 -48c-45.333 0 -84.166 16 -116.499 48s-48.5 70.333 -48.5 115c0 45.333 16.167 83.833 48.5 115.5
s71.166 47.5 116.499 47.5c46 0 85.167 -15.833 117.5 -47.5z" />
    <glyph glyph-name="quotedbl" unicode="&#x22;" horiz-adv-x="726" 
d="M524 1017l-145 2v416h312zM35 1436h312v-416l-145 -2z" />
    <glyph glyph-name="numbersign" unicode="#" horiz-adv-x="1286" 
d="M152 1087h228l72 356h233l-72 -356h210l71 356h233l-72 -356h196l-37 -208h-199l-64 -319h220l-37 -207h-222l-75 -383h-233l76 383h-212l-76 -383h-233l76 383h-200l37 207h204l63 319h-224zM508 560h210l64 319h-210z" />
    <glyph glyph-name="dollar" unicode="$" horiz-adv-x="1312" 
d="M1052 1335v-270.999c-70 34 -187.333 51 -352 51h-40c-218.667 0 -328 -66 -328 -198c0 -30.667 15.667 -46 47 -46h345c122 0 229.333 -14 322 -42c154 -55.333 231 -163.333 231 -324v-40c0 -40.667 -7 -84.334 -21 -131.001
c-81.333 -198.667 -285.666 -298 -612.999 -298c-66.667 0 -141.334 9.66699 -224.001 29c-64.667 19.333 -114 40.333 -148 63c-58 25.333 -116 78 -174 158c-30.667 52.667 -48.667 90 -54 112h327c56.667 -69.333 147.667 -104 273 -104h73c179.333 22 269 89 269 201
c-11.333 78.667 -109 119.667 -293 123h-657l5 296c0 70 13.667 143.333 41 220c76.667 170.667 249.667 256 519 256c201.333 0 352 -18.333 452 -55zM810 1602v-1778h-297v1778h297z" />
    <glyph glyph-name="percent" unicode="%" horiz-adv-x="1720" 
d="M1122 1443h264l-797 -1473h-263zM422 1443l8.00098 0.00195312c172 0 291.667 -73.667 359 -221c18.667 -50.667 28 -101.667 28 -153c0 -134.667 -52.333 -238.334 -157 -311.001c-66.667 -42 -145.334 -63 -236.001 -63c-172 0 -292 72.333 -360 217
c-19.333 52.667 -29 105 -29 157c0 141.333 58.333 248.666 175 321.999c63.333 34.667 134 52 212 52zM284.001 1066c0 -77.333 29.333 -131.331 88 -161.998c18 -7.33301 36 -11 54 -11h13c40 0 74 15.333 102 46c26.667 33.333 40 75.666 40 126.999v3
c0 77.333 -28 130.666 -84 159.999c-21.333 10 -42.333 15 -63 15c-69.333 0 -116.333 -37.333 -141 -112c-6 -22.667 -9 -44.667 -9 -66zM1290 713.004l8.00098 0.00195312c172 0 291.667 -73.667 359 -221c18.667 -50.667 28 -101.667 28 -153
c0 -134.667 -52.333 -238.334 -157 -311.001c-66.667 -42 -145.334 -63 -236.001 -63c-172 0 -292 72.333 -360 217c-19.333 52.667 -29 105 -29 157c0 141.333 58.333 248.666 175 321.999c63.333 34.667 134 52 212 52zM1152 336.006
c0 -77.333 29.333 -131.331 88 -161.998c18 -7.33301 36 -11 54 -11h13c40 0 74 15.333 102 46c26.667 33.333 40 75.666 40 126.999v3c0 77.333 -28 130.666 -84 159.999c-21.333 10 -42.333 15 -63 15c-69.333 0 -116.333 -37.333 -141 -112c-6 -22.667 -9 -44.667 -9 -66
z" />
    <glyph glyph-name="ampersand" unicode="&#x26;" horiz-adv-x="1507" 
d="M324 829c-22 26 -45.999 66.1699 -71.999 120.503s-39 115.5 -39 183.5c0 116.667 37.833 212.5 113.5 287.5s183.5 112.5 323.5 112.5c55.333 0 108.666 -7.83301 159.999 -23.5s96.833 -39.5 136.5 -71.5s70.834 -71.5 93.501 -118.5s34 -100.5 34 -160.5
c0 -54 -8.83301 -103 -26.5 -147s-42.667 -83.833 -75 -119.5s-70.166 -67.334 -113.499 -95.001s-68 -42.834 -74 -45.501l263 -312c-11.333 -12 -5 0.666992 19 38s57.333 100 100 188l257 -130c-38 -86 -74.333 -155.667 -109 -209s-61.334 -90 -80.001 -110l236 -277
h-395l-71 81c-28 -18.667 -80.833 -41.334 -158.5 -68.001s-161.834 -40 -252.501 -40c-94 0 -176.167 11.833 -246.5 35.5s-129 56.5 -176 98.5s-81.5 91.5 -103.5 148.5s-33 118.833 -33 185.5c0 113.333 32.5 209 97.5 287s128.833 131.667 191.5 161zM500.001 618.003
c-25.333 -14 -53.333 -41.167 -84 -81.5s-46 -86.833 -46 -139.5c0 -134.667 77.667 -202 233 -202c99.333 0 172 14.333 218 43zM648.001 1271c-40 0 -70.833 -11.333 -92.5 -34s-32.5 -56.667 -32.5 -102c0 -38 10.833 -74 32.5 -108s38.167 -57.667 49.5 -71
c-2 -0.666992 10.667 6.66602 38 21.999s49.5 30.833 66.5 46.5s30.333 33.334 40 53.001s14.5 43.5 14.5 71.5c0 42 -10.833 72.833 -32.5 92.5s-49.5 29.5 -83.5 29.5z" />
    <glyph glyph-name="quotesingle" unicode="'" horiz-adv-x="382" 
d="M180 1017l-145 2v416h312z" />
    <glyph glyph-name="parenleft" unicode="(" horiz-adv-x="527" 
d="M35 670c0 107.333 7.16699 207.169 21.5 299.502s32 175.833 53 250.5s43.167 139.667 66.5 195s47 104 71 146h245c-34 -63.333 -61.667 -124.333 -83 -183s-40.833 -124.334 -58.5 -197.001s-31.834 -152 -42.501 -238s-16 -177 -16 -273s5.33301 -187 16 -273
s24.834 -165.5 42.501 -238.5s37.167 -138.833 58.5 -197.5s49 -119.667 83 -183h-245c-24 42 -47.667 90.833 -71 146.5s-45.5 120.667 -66.5 195s-38.667 157.666 -53 249.999s-21.5 192.5 -21.5 300.5z" />
    <glyph glyph-name="parenright" unicode=")" horiz-adv-x="527" 
d="M470.5 369.5c-14.333 -92.333 -32 -175.669 -53 -250.002s-43.167 -139.333 -66.5 -195s-47 -104.5 -71 -146.5h-245c34 63.333 61.667 124.333 83 183s40.833 124.5 58.5 197.5s31.834 152.5 42.501 238.5s16 177 16 273s-5.33301 187 -16 273
s-24.834 165.333 -42.501 238s-37.167 138.334 -58.5 197.001s-49 119.667 -83 183h245c24 -42 47.667 -90.667 71 -146s45.5 -120.333 66.5 -195s38.667 -158.167 53 -250.5s21.5 -192.166 21.5 -299.499c0 -108 -7.16699 -208.167 -21.5 -300.5z" />
    <glyph glyph-name="asterisk" unicode="*" horiz-adv-x="887" 
d="M565 1424l-31 -283l88.5 41.5l156.5 75.5l73 -195l-270 -82l211 -231l-173 -134l-178 245l-177 -245l-171 134l209 231l-268 82l70 195l245 -117l-31 283h246z" />
    <glyph glyph-name="plus" unicode="+" horiz-adv-x="1088" 
d="M389 1165h312v-1017l-308 -1l-4 708v310zM1053 825v-312h-1017l-1 308l707 4h311z" />
    <glyph glyph-name="comma" unicode="," horiz-adv-x="400" 
d="M168 177l197 -2l-125 -334h-205z" />
    <glyph glyph-name="hyphen" unicode="-" horiz-adv-x="1088" 
d="M1053 825v-312h-1017l-1 308l707 4h311z" />
    <glyph glyph-name="hyphen" unicode="&#xad;" horiz-adv-x="1088" 
d="M1053 825v-312h-1017l-1 308l707 4h311z" />
    <glyph glyph-name="period" unicode="." horiz-adv-x="388" 
d="M306.5 257c31 -29.333 46.5 -64.666 46.5 -105.999c0 -42 -15.5 -77.667 -46.5 -107s-68.5 -44 -112.5 -44s-81.5 14.667 -112.5 44s-46.5 65 -46.5 107c0 41.333 15.5 76.666 46.5 105.999s68.5 44 112.5 44s81.5 -14.667 112.5 -44z" />
    <glyph glyph-name="slash" unicode="/" horiz-adv-x="1022" 
d="M343 0l-308 2l640 1437h312z" />
    <glyph glyph-name="zero" unicode="0" horiz-adv-x="1091" 
d="M540 1355h11c224 0 380 -131.333 468 -394c24.667 -92.667 37 -187 37 -283c0 -246.667 -68.667 -435.667 -206 -567c-85.333 -74 -188 -111 -308 -111c-223.333 -0 -379.333 129.333 -468 388c-26 97.333 -39 194 -39 290c0 258.667 76.333 453.667 229 585
c81.333 61.333 173.333 92 276 92zM317 684c0 -160 46.666 -273.668 139.999 -341.001c32 -17.333 63.333 -26 94 -26h16c68 0 125 35.333 171 106c42 70 63 157 63 261v7c0 160 -45 272.333 -135 337c-35.333 22.667 -70.666 34 -105.999 34
c-114.667 0 -191.667 -81.667 -231 -245c-8 -45.333 -12 -89.666 -12 -132.999z" />
    <glyph glyph-name="one" unicode="1" horiz-adv-x="616" 
d="M269 1435l312 -0.000976562v-1433l-308 -2l-3 1085l-235 2l2 151c130.667 2.66699 208 68.334 232 197.001z" />
    <glyph glyph-name="two" unicode="2" horiz-adv-x="1303" 
d="M591 36l-549.001 6.00195l-2 264c102.667 292 281.667 449.5 537 472.5s388.333 73.833 399 152.5c0 112 -89.333 179 -268 201h-73c-126 0 -217.333 -34.667 -274 -104h-326c5.33301 22 23.333 59.333 54 112c57.333 80 115 132.667 173 158
c34 22.667 83.667 43.667 149 63c82 19.333 156.667 29 224 29c327.333 0 531.333 -99.333 612 -298c14 -46.667 21 -90.334 21 -131.001v-40c0 -160.667 -76.667 -268.667 -230 -324c-92.667 -28 -200.5 -51.333 -323.5 -70s-211.5 -90.667 -265.5 -216h203h40
c284.667 2.66699 462.334 21 533.001 55v-271c-100 -36.667 -311.333 -56.334 -634 -59.001z" />
    <glyph glyph-name="three" unicode="3" horiz-adv-x="1143" 
d="M901 1341c136.667 -104 204.999 -244.998 204.999 -422.998l2 -403c0 -177.333 -68.333 -318 -205 -422c-92 -65.333 -206.333 -98 -343 -98c-231.333 0 -395.666 94.333 -492.999 283c-10 21.333 -20 48.666 -30 81.999h320c19.333 -40.667 57 -73 113 -97
c28.667 -10 57 -15 85 -15h20c98 0 166.667 51.667 206 155c7.33301 41.333 11 65 11 71s-1 32 -3 78h-425v313h435c8 56.667 10.667 54 8 -8v15c2.66699 64.667 -2.66602 117.667 -15.999 159c-47.333 103.333 -120 155 -218 155h-20c-28 0 -56.333 -5 -85 -15
c-56 -24 -93.667 -56.333 -113 -97h-320c10 33.333 20 60.666 30 81.999c97.333 188.667 261.666 283 492.999 283c136.667 0 251 -32.667 343 -98z" />
    <glyph glyph-name="four" unicode="4" 
d="M319 1430h20l-2 -497c0 -53.333 17.667 -110.666 53 -171.999c51.333 -64.667 115.666 -97 192.999 -97h20c99.333 0 173 52.333 221 157c13.333 42.667 20 82.667 20 120v489h299v-495l-2 -930l-259 -1v529c-58 -83.333 -156 -125 -294 -125
c-203.333 0 -357.333 73.667 -462 221c-60.667 91.333 -91 198.666 -91 321.999v481c180.667 -1.33301 275.334 -2 284.001 -2z" />
    <glyph glyph-name="five" unicode="5" horiz-adv-x="1312" 
d="M1052 1335v-270.999c-70 34 -187.333 51 -352 51h-40h-328v-198c0 -30.667 15.667 -46 47 -46h345c122 0 229.333 -14 322 -42c154 -55.333 231 -163.333 231 -324v-40c0 -40.667 -7 -84.334 -21 -131.001c-81.333 -198.667 -285.666 -298 -612.999 -298
c-66.667 0 -141.334 9.66699 -224.001 29c-64.667 19.333 -114 40.333 -148 63c-58 25.333 -116 78 -174 158c-30.667 52.667 -48.667 90 -54 112h327c56.667 -69.333 147.667 -104 273 -104h73c179.333 22 269 89 269 201c-11.333 78.667 -109 119.667 -293 123h-657l5 296
c0 70 3.66699 226.667 11 470l549 6c201.333 0 352 -18.333 452 -55z" />
    <glyph glyph-name="six" unicode="6" horiz-adv-x="1107" 
d="M538 8c-144 0 -267.667 40.333 -371 121c-86 74.667 -129 163.334 -129 266.001c0 128.667 -1 314.667 -3 558c7.33301 76.667 18 134.667 32 174c35.333 84 91.333 144.333 168 181c76 35.333 170 53 282 53c154.667 0 281 -17.667 379 -53v-247h-3
c-76.667 38.667 -178.334 58 -305.001 58h-32c-111.333 0 -181.333 -29 -210 -87c-7.33301 -17.333 -12.666 -38.333 -15.999 -63l2 -5v-237h274c241.333 0 388 -61.667 440 -185c17.333 -42.667 26 -87.334 26 -134.001v-31c0 -150.667 -81.667 -258.667 -245 -324
c-76.667 -30 -173 -45 -289 -45zM780 408c0 74 -65 111 -195 111h-255v-98c0 -64.667 38.667 -109.334 116 -134.001c34 -8.66699 66.333 -13 97 -13h26c99.333 0 166 27 200 81c7.33301 16.667 11 34.334 11 53.001z" />
    <glyph glyph-name="seven" unicode="7" horiz-adv-x="931" 
d="M598 727v237l3 5c-3.33301 24.667 -8.66602 45.667 -15.999 63c-28.667 58 -98.667 87 -210 87h-32c-126.667 0 -228.334 -19.333 -305.001 -58h-3v247c98 35.333 224.333 53 379 53c112 0 206 -17.667 282 -53c76.667 -36.667 132.667 -97 168 -181
c14 -39.333 24.667 -97.333 32 -174c-2 -243.333 -3 -429.333 -3 -558l-2 -356c-188 -20.667 -285.333 -18 -292 8z" />
    <glyph glyph-name="eight" unicode="8" horiz-adv-x="1146" 
d="M569 1361c144 0 268 -40.332 372 -120.999c85.333 -74.667 128 -163.334 128 -266.001c0 -128.667 -3.33301 -241.334 -10 -338.001l-284 6h-274c-241.333 0 -388 61.667 -440 185c-17.333 42.667 -26 87.334 -26 134.001v31c0 150.667 81.667 258.667 245 324
c76.667 30 173 45 289 45zM327 961.001c0 -74 65 -111 195 -111h255v98c0 64.667 -38.667 109.334 -116 134.001c-34 8.66699 -66.333 13 -97 13h-26c-99.333 0 -166 -27 -200 -81c-7.33301 -16.667 -11 -34.334 -11 -53.001zM577 -20.999
c-143.333 0 -266.999 40.332 -370.999 120.999c-86 74.667 -129 163.334 -129 266.001c0 128.667 3.33301 241.334 10 338.001l285 -6h274c240.667 0 387 -61.667 439 -185c17.333 -42.667 26 -87.334 26 -134.001v-31c0 -150.667 -81.333 -258.667 -244 -324
c-76.667 -30 -173.334 -45 -290.001 -45zM819.001 379c0 74 -64.667 111 -194 111h-256v-98c0 -64.667 38.667 -109.334 116 -134.001c34.667 -8.66699 67 -13 97 -13h27c99.333 0 166 27 200 81c6.66699 16.667 10 34.334 10 53.001z" />
    <glyph glyph-name="nine" unicode="9" horiz-adv-x="1107" 
d="M569 1361c144 0 267.999 -40.333 371.999 -121c85.333 -74.667 128 -163.334 128 -266.001c0 -128.667 1 -314.667 3 -558c-6.66699 -76.667 -17 -134.667 -31 -174c-35.333 -84 -91.666 -144.333 -168.999 -181c-76 -35.333 -170 -53 -282 -53
c-154.667 0 -281 17.667 -379 53v247h3c76.667 -38.667 178.334 -58 305.001 -58h32c111.333 0 181.666 29 210.999 87c6.66699 17.333 11.667 38.333 15 63l-2 5v237h-274c-241.333 0 -388 61.667 -440 185c-17.333 42.667 -26 87.334 -26 134.001v31
c0 150.667 81.667 258.667 245 324c76.667 30 173 45 289 45zM326.999 961c0 -74 65 -111 195 -111h255v98c0 64.667 -38.667 109.334 -116 134.001c-34 8.66699 -66.333 13 -97 13h-26c-99.333 0 -166 -27 -200 -81c-7.33301 -16.667 -11 -34.334 -11 -53.001z" />
    <glyph glyph-name="colon" unicode=":" horiz-adv-x="392" 
d="M310.5 343c31 -29.333 46.5 -64.666 46.5 -105.999c0 -42 -15.5 -77.667 -46.5 -107s-68.5 -44 -112.5 -44s-81.5 14.667 -112.5 44s-46.5 65 -46.5 107c0 41.333 15.5 76.666 46.5 105.999s68.5 44 112.5 44s81.5 -14.667 112.5 -44zM306.5 931
c31 -29.333 46.5 -64.666 46.5 -105.999c0 -42 -15.5 -77.667 -46.5 -107s-68.5 -44 -112.5 -44s-81.5 14.667 -112.5 44s-46.5 65 -46.5 107c0 41.333 15.5 76.666 46.5 105.999s68.5 44 112.5 44s81.5 -14.667 112.5 -44z" />
    <glyph glyph-name="semicolon" unicode=";" horiz-adv-x="392" 
d="M310.5 343c31 -29.333 46.5 -64.666 46.5 -105.999c0 -42 -15.5 -77.667 -46.5 -107s-68.5 -44 -112.5 -44s-81.5 14.667 -112.5 44s-46.5 65 -46.5 107c0 41.333 15.5 76.666 46.5 105.999s68.5 44 112.5 44s81.5 -14.667 112.5 -44zM306.5 931
c31 -29.333 46.5 -64.666 46.5 -105.999c0 -42 -15.5 -77.667 -46.5 -107s-68.5 -44 -112.5 -44s-81.5 14.667 -112.5 44s-46.5 65 -46.5 107c0 41.333 15.5 76.666 46.5 105.999s68.5 44 112.5 44s81.5 -14.667 112.5 -44z" />
    <glyph glyph-name="semicolon" unicode="&#x37e;" horiz-adv-x="392" 
d="M310.5 343c31 -29.333 46.5 -64.666 46.5 -105.999c0 -42 -15.5 -77.667 -46.5 -107s-68.5 -44 -112.5 -44s-81.5 14.667 -112.5 44s-46.5 65 -46.5 107c0 41.333 15.5 76.666 46.5 105.999s68.5 44 112.5 44s81.5 -14.667 112.5 -44zM306.5 931
c31 -29.333 46.5 -64.666 46.5 -105.999c0 -42 -15.5 -77.667 -46.5 -107s-68.5 -44 -112.5 -44s-81.5 14.667 -112.5 44s-46.5 65 -46.5 107c0 41.333 15.5 76.666 46.5 105.999s68.5 44 112.5 44s81.5 -14.667 112.5 -44z" />
    <glyph glyph-name="less" unicode="&#x3c;" horiz-adv-x="841" 
d="M798 448l1 -305l-764 379v312zM806 1212v-312l-760 -379l-3 305z" />
    <glyph glyph-name="equal" unicode="=" horiz-adv-x="863" 
d="M824 538v-305h-789v305h789zM828 1015v-305h-789v305h789z" />
    <glyph glyph-name="greater" unicode="&#x3e;" horiz-adv-x="841" 
d="M806 834v-312l-763 -379v305zM798 826l-2 -305l-761 379v312z" />
    <glyph glyph-name="question" unicode="?" horiz-adv-x="1028" 
d="M339 366c0 79.333 5.99805 139.833 17.998 181.5s28.667 79.667 50 114s45.833 65.666 73.5 93.999s56.5 55.833 86.5 82.5l48 46c16.667 16 31.667 33.333 45 52s24 38.5 32 59.5s12 44.5 12 70.5c0 53.333 -15.167 95.833 -45.5 127.5s-82.166 47.5 -155.499 47.5
c-56.667 0 -104.667 -12.667 -144 -38s-89 -72 -149 -140l-175 160c27.333 39.333 54.833 72.5 82.5 99.5s61 52.5 100 76.5s84 44 135 60s106.5 24 166.5 24c89.333 0 164.833 -12.667 226.5 -38s110.834 -58.166 147.501 -98.499s62.5 -84.5 77.5 -132.5
s22.5 -94.667 22.5 -140c0 -44 -6.16699 -83.833 -18.5 -119.5s-28 -68.5 -47 -98.5s-40.5 -57.333 -64.5 -82s-47.333 -47 -70 -67l-68.5 -63c-21 -20 -38.833 -40.667 -53.5 -62s-26.5 -46.333 -35.5 -75s-13.5 -75.667 -13.5 -141h-283zM655.998 132
c0 -46.667 -15.667 -87 -47 -121s-74.333 -51 -129 -51s-97.667 17 -129 51s-47 74.333 -47 121s15.667 87 47 121s74.333 51 129 51s97.667 -17 129 -51s47 -74.333 47 -121z" />
    <glyph glyph-name="at" unicode="@" horiz-adv-x="1765" 
d="M954 1185c206.667 0 340.332 -67.6699 400.999 -203.003c20.667 -59.333 31 -115.666 31 -168.999v-308c0 -141.333 -83 -247.666 -249 -318.999c-72 -24 -143.667 -36 -215 -36c-249.333 0 -405.666 78.333 -468.999 235c-11.333 36.667 -17 71.334 -17 104.001v29
c0 129.333 62 216.333 186 261c70 20.667 150.667 31 242 31h249c3.33301 0 5 1.66699 5 5c0 98.667 -69.333 148 -208 148h-29c-114 0 -208.333 -18 -283 -54v228c88 32 206.667 48 356 48zM703.998 509.997c0 -64 55.666 -102.668 166.999 -116.001h51
c96.667 0 160.334 31.667 191.001 95c3.33301 12.667 5 26.334 5 41.001v89h-235c-88.667 0 -144 -18.333 -166 -55c-8.66699 -15.333 -13 -33.333 -13 -54zM1664 22.9961c-89.333 -82 -194.831 -148.832 -316.498 -200.499s-263.167 -77.5 -424.5 -77.5
c-162 0 -299.833 22 -413.5 66s-205.334 104.167 -275.001 180.5s-120.334 166.166 -152.001 269.499s-47.5 213.666 -47.5 330.999c0 137.333 21.667 267 65 389s104.833 229 184.5 321s175.5 164.833 287.5 218.5s236.667 80.5 374 80.5
c123.333 0 233.5 -17.333 330.5 -52s179.333 -83.834 247 -147.501s119 -139.334 154 -227.001s52.5 -184.167 52.5 -289.5c0 -106 -14.667 -200.833 -44 -284.5s-67.666 -154.5 -114.999 -212.5s-100.333 -102.167 -159 -132.5s-161.667 -55.166 -309 -74.499
c52.667 19.333 67.667 32.5 45 39.5s-0.666992 103.5 66 289.5c-3.33301 -20 -6.33301 -38.833 -9 -56.5s-4 -32.167 -4 -43.5c0 -21.333 6 -36.333 18 -45s30 -13 54 -13c25.333 0 55.333 10 90 30s67.667 51.5 99 94.5s58 98.167 80 165.5s33 148.333 33 243
c0 92 -15 173.5 -45 244.5s-72.833 130.833 -128.5 179.5s-121.834 85.5 -198.501 110.5s-162.334 37.5 -257.001 37.5c-113.333 0 -216 -23 -308 -69s-170.5 -108.333 -235.5 -187s-115.333 -170.667 -151 -276s-53.5 -216.333 -53.5 -333
c0 -97.333 12.5 -188.5 37.5 -273.5s66.167 -159 123.5 -222s132.333 -113.167 225 -150.5s206.334 -56 341.001 -56c82 0 157 8.83301 225 26.5s128.833 38.834 182.5 63.501s99.667 50.834 138 78.501s69.5 52.167 93.5 73.5z" />
    <glyph glyph-name="A" unicode="A" horiz-adv-x="1337" 
d="M35 0c190.667 954 399.332 1430.5 625.999 1429.5s440.334 -476.833 641.001 -1427.5h-300l-137 427l-396 1l-114 -429zM841.998 619c-60.667 291.333 -122 437 -184 437s-118 -146 -168 -438z" />
    <glyph glyph-name="B" unicode="B" horiz-adv-x="1159" 
d="M538 -5c-144 0 -267.667 40.333 -371 121c-86 74.667 -129 163.334 -129 266.001c0 128.667 -1 314.667 -3 558c7.33301 76.667 18 134.667 32 174c35.333 84 91.333 144.333 168 181c76 35.333 170 53 282 53c154.667 0 281 -17.667 379 -53v-247h-3
c-76.667 38.667 -178.334 58 -305.001 58h-32c-111.333 0 -181.333 -29 -210 -87c-7.33301 -17.333 -12.666 -38.333 -15.999 -63l2 -5v-237l291 6c230 -4 371 -67.667 423 -191c17.333 -42.667 26 -87.334 26 -134.001v-31c0 -150.667 -81.667 -258.667 -245 -324
c-76.667 -30 -173 -45 -289 -45zM330 506v-98c0 -64.667 38.667 -109.334 116 -134.001c34 -8.66699 66.333 -13 97 -13h26c99.333 0 166 27 200 81c7.33301 16.667 11 34.334 11 53.001c0 74 -65 111 -195 111h-255zM879 1297c163.333 -66 245 -173.999 245 -323.999v-31
c0 -46.667 -8.66699 -91.667 -26 -135c-52 -122.667 -193 -186 -423 -190l-291 6l-284 1c-6.66699 91.333 -10 201.666 -10 330.999c0 102 43 190.667 129 266c103.333 80.667 227 121 371 121c116 0 212.333 -15 289 -45zM637 831.001c130 0 195 37 195 111
c0 18.667 -3.66699 36 -11 52c-34 54.667 -100.667 82 -200 82h-26c-30.667 0 -63 -4.33301 -97 -13c-77.333 -24.667 -116 -69.667 -116 -135v-97h255z" />
    <glyph glyph-name="C" unicode="C" horiz-adv-x="1423" 
d="M767 1430l17.002 -0.000976562c252 0 446.667 -86 584 -258c-2.66699 0 -95.334 -62.333 -278.001 -187h-3c-66.667 130.667 -204.334 176.5 -413.001 137.5s-312 -177.833 -310 -416.5c9.33301 -218.667 121.833 -347.5 337.5 -386.5s358.167 11.5 427.5 151.5h3
l256 -186c-134 -190 -340 -285 -618 -285c-324 0 -550 136.667 -678 410c-38 102.667 -57 204.334 -57 305.001c0 273.333 110.667 479.333 332 618c118 64.667 251.333 97 400 97z" />
    <glyph glyph-name="D" unicode="D" horiz-adv-x="1137" 
d="M35 1344h525.001c123.333 0 230.666 -34.333 321.999 -103c146.667 -117.333 220 -291 220 -521c0 -156 -32.667 -286.667 -98 -392c-106 -156.667 -249 -235 -429 -235h-538zM328.001 335h173c108 0 193.667 47 257 141c39.333 62.667 59 140.667 59 234
c0 137.333 -44 241.333 -132 312c-54.667 41.333 -119 62 -193 62l-165 -1z" />
    <glyph glyph-name="E" unicode="E" horiz-adv-x="1143" 
d="M585 1439c231.333 0 395.665 -94.335 492.998 -283.002c10 -21.333 20 -48.666 30 -81.999h-320c-19.333 40.667 -57 73 -113 97c-28.667 10 -57 15 -85 15h-20c-98 0 -170.667 -51.667 -218 -155c-13.333 -41.333 -18.666 -94.333 -15.999 -159v-15
c-2.66699 62 0 64.667 8 8h435v-313h-425c-2 -46 -3 -72 -3 -78s3.66699 -29.667 11 -71c39.333 -103.333 108 -155 206 -155h20c28 0 56.333 5 85 15c56 24 93.667 56.333 113 97h320c-10 -33.333 -20 -60.666 -30 -81.999c-97.333 -188.667 -261.666 -283 -492.999 -283
c-136.667 0 -251 32.667 -343 98c-136.667 104 -205 244.667 -205 422l2 403c0 178 68.333 319 205 423c92 65.333 206.333 98 343 98z" />
    <glyph glyph-name="F" unicode="F" horiz-adv-x="1053" 
d="M39 1155h312v-1153h-311zM1013 1433v-311h-978v310zM1017 1025v-311h-978v310z" />
    <glyph glyph-name="G" unicode="G" horiz-adv-x="1107" 
d="M538 -5c-144 0 -267.667 40.333 -371 121c-86 74.667 -129 163.334 -129 266.001c0 128.667 -1 314.667 -3 558c7.33301 76.667 18 134.667 32 174c35.333 84 91.333 144.333 168 181c76 35.333 170 53 282 53c154.667 0 281 -17.667 379 -53v-247h-3
c-76.667 38.667 -178.334 58 -305.001 58h-32c-111.333 0 -181.333 -29 -210 -87c-7.33301 -17.333 -12.666 -38.333 -15.999 -63l2 -5v-237l-2 -208v-98c0 -64.667 38.667 -109.334 116 -134.001c34 -8.66699 66.333 -13 97 -13h26c99.333 0 166 27 200 81
c7.33301 16.667 11 34.334 11 53.001c0 74 -65 111 -195 111v208c255.333 0 409 -61.667 461 -185c17.333 -42.667 26 -87.334 26 -134.001v-31c0 -150.667 -81.667 -258.667 -245 -324c-76.667 -30 -173 -45 -289 -45z" />
    <glyph glyph-name="H" unicode="H" horiz-adv-x="1097" 
d="M750 1435h312v-1433l-311 1zM35 1432h312v-1433l-311 1zM991 854v-312h-858l1 311z" />
    <glyph glyph-name="I" unicode="I" horiz-adv-x="382" 
d="M35 1435h312v-1433l-308 -2l-4 998v437z" />
    <glyph glyph-name="J" unicode="J" horiz-adv-x="1164" 
d="M834 1432h296.001v-920c0 -178 -68.333 -319 -205 -423c-92.667 -65.333 -207.334 -98 -344.001 -98c-224.667 0 -386.667 89.333 -486 268c-40 79.333 -60 171.333 -60 276h298c0 -136.667 52 -228.667 156 -276c32 -10 61 -15 87 -15h20c98 0 170.667 51.667 218 155
c13.333 42 20 81.333 20 118v915z" />
    <glyph glyph-name="K" unicode="K" horiz-adv-x="1320" 
d="M35 1430h340v-580c4.66699 2.66699 159 195 463 577v3h420l-535 -667l562 -763h-447c-6.66699 11.333 -129.667 181.333 -369 510c-52.667 74 -84 115.667 -94 125v-635h-340v1430z" />
    <glyph glyph-name="L" unicode="L" horiz-adv-x="1033" 
d="M329 540c0 -96 25.001 -170.333 75.001 -223c47.333 -46 96.666 -69 147.999 -69h446v-253h-448c-100.667 0 -200 28.333 -298 85c-144.667 107.333 -217 251.333 -217 432v922h294v-894z" />
    <glyph glyph-name="M" unicode="M" horiz-adv-x="2240" 
d="M36 0l-1.00098 895.001c0 123.333 34.333 230.666 103 321.999c118 146.667 291.667 220 521 220c156 0 286.667 -32.667 392 -98c156.667 -106 235 -249 235 -429v-908h-338v903c0 37.333 -7.66699 77 -23 119c-54 104.667 -137 157 -249 157h-23
c-87.333 0 -159.666 -32 -216.999 -96c-40 -62 -60 -119.667 -60 -173l3 -910h-23c-10 0 -116.667 -0.666992 -320 -2zM954.999 0.000976562l-1.00098 895.001c0 123.333 34.333 230.666 103 321.999c118 146.667 291.667 220 521 220c156 0 286.667 -32.667 392 -98
c156.667 -106 235 -249 235 -429v-908h-338v903c0 37.333 -7.66699 77 -23 119c-54 104.667 -137 157 -249 157h-23c-87.333 0 -159.666 -32 -216.999 -96c-40 -62 -60 -119.667 -60 -173l3 -910h-23c-10 0 -116.667 -0.666992 -320 -2z" />
    <glyph glyph-name="N" unicode="N" horiz-adv-x="1321" 
d="M36 0l-1.00098 895.001c0 123.333 34.333 230.666 103 321.999c118 146.667 291.667 220 521 220c156 0 286.667 -32.667 392 -98c156.667 -106 235 -249 235 -429v-908h-338v903c0 37.333 -7.66699 77 -23 119c-54 104.667 -137 157 -249 157h-23
c-87.333 0 -159.666 -32 -216.999 -96c-40 -62 -60 -119.667 -60 -173l3 -910h-23c-10 0 -116.667 -0.666992 -320 -2z" />
    <glyph glyph-name="O" unicode="O" horiz-adv-x="1555" 
d="M769 1435h16.999c325.333 0 552 -139.333 680 -418c36 -98 54 -198 54 -300c0 -260.667 -100 -460.334 -300 -599.001c-124 -78.667 -273 -118 -447 -118c-325.333 0 -552.333 137 -681 411c-38 102.667 -57 204.667 -57 306c0 274.667 111 481.334 333 620.001
c118.667 65.333 252.334 98 401.001 98zM408.999 711c0 -184 73.667 -314.667 221 -392c50.667 -20.667 100 -31 148 -31h27c107.333 0 197.333 40.667 270 122c66 81.333 99 181.666 99 300.999v7c0 184.667 -71 314.334 -213 389.001c-56 25.333 -111.667 38 -167 38
c-181.333 0 -303.333 -94 -366 -282c-12.667 -52 -19 -102.667 -19 -152z" />
    <glyph glyph-name="P" unicode="P" horiz-adv-x="1160" 
d="M347 -1l-312 -0.000976562v915c0 177.333 68.333 318 205 422c91.333 64.667 205 97 341 97c200 0 351.333 -72.333 454 -217c60 -90 90 -195.667 90 -317c0 -197.333 -79.667 -348.666 -239 -453.999c-90 -49.333 -190.667 -74 -302 -74h-10
c-85.333 0 -161 20.667 -227 62v-434zM828 898.999c0 114.667 -41.668 198.668 -125.001 252.001c-37.333 20 -76.333 30 -117 30h-20c-97.333 0 -169.666 -51.333 -216.999 -154c-13.333 -42 -20 -81.333 -20 -118v-15c0 -116.667 47.333 -200.334 142 -251.001
c40 -15.333 75 -23 105 -23c118.667 0 198.667 61.667 240 185c8 42 12 73.333 12 94z" />
    <glyph glyph-name="Q" unicode="Q" horiz-adv-x="1555" 
d="M769 1435h16.999c325.333 0 552 -139.333 680 -418c36 -98 54 -198 54 -300c0 -260.667 -100 -460.334 -300 -599.001c-124 -78.667 -273 -118 -447 -118c-325.333 0 -552.333 137 -681 411c-38 102.667 -57 204.667 -57 306c0 274.667 111 481.334 333 620.001
c118.667 65.333 252.334 98 401.001 98zM408.999 711c0 -184 73.667 -314.667 221 -392c50.667 -20.667 100 -31 148 -31h27c107.333 0 197.333 40.667 270 122c66 81.333 99 181.666 99 300.999v7c0 184.667 -71 314.334 -213 389.001c-56 25.333 -111.667 38 -167 38
c-181.333 0 -303.333 -94 -366 -282c-12.667 -52 -19 -102.667 -19 -152zM1017 602l388 -584l-215 -142l-387 583z" />
    <glyph glyph-name="R" unicode="R" horiz-adv-x="1160" 
d="M347 -1l-312 -0.000976562v915c0 177.333 68.333 318 205 422c91.333 64.667 205 97 341 97c200 0 351.333 -72.333 454 -217c60 -90 90 -195.667 90 -317c0 -197.333 -79.667 -348.666 -239 -453.999c-90 -49.333 -190.667 -74 -302 -74h-10
c-85.333 0 -161 20.667 -227 62v-434zM828 898.999c0 114.667 -41.668 198.668 -125.001 252.001c-37.333 20 -76.333 30 -117 30h-20c-97.333 0 -169.666 -51.333 -216.999 -154c-13.333 -42 -20 -81.333 -20 -118v-15c0 -116.667 47.333 -200.334 142 -251.001
c40 -15.333 75 -23 105 -23c118.667 0 198.667 61.667 240 185c8 42 12 73.333 12 94zM662.999 437l417 -438h-310l-417 438h310z" />
    <glyph glyph-name="S" unicode="S" horiz-adv-x="1312" 
d="M1052 1335v-270.999c-70 34 -187.333 51 -352 51h-40c-218.667 0 -328 -66 -328 -198c0 -30.667 15.667 -46 47 -46h345c122 0 229.333 -14 322 -42c154 -55.333 231 -163.333 231 -324v-40c0 -40.667 -7 -84.334 -21 -131.001
c-81.333 -198.667 -285.666 -298 -612.999 -298c-66.667 0 -141.334 9.66699 -224.001 29c-64.667 19.333 -114 40.333 -148 63c-58 25.333 -116 78 -174 158c-30.667 52.667 -48.667 90 -54 112h327c56.667 -69.333 147.667 -104 273 -104h73c179.333 22 269 89 269 201
c-11.333 78.667 -109 119.667 -293 123h-657l5 296c0 70 13.667 143.333 41 220c76.667 170.667 249.667 256 519 256c201.333 0 352 -18.333 452 -55z" />
    <glyph glyph-name="T" unicode="T" horiz-adv-x="1388" 
d="M516 1155h312v-1153h-311zM1352 1433v-311h-1317v310z" />
    <glyph glyph-name="U" unicode="U" 
d="M319 1439h20l-2 -914c0 -53.333 17.667 -110.666 53 -171.999c51.333 -64.667 115.666 -97 192.999 -97h20c99.333 0 173 52.333 221 157c13.333 42.667 20 82.667 20 120v906h299v-912c0 -180 -69.333 -322.667 -208 -428c-93.333 -66 -209 -99 -347 -99
c-203.333 0 -357.333 73.667 -462 221c-60.667 91.333 -91 198.666 -91 321.999v898c180.667 -1.33301 275.334 -2 284.001 -2z" />
    <glyph glyph-name="V" unicode="V" horiz-adv-x="1355" 
d="M319 1439l20 0.000976562l282 -1107l399 1103h300c-238 -956.667 -472 -1434.33 -702 -1433s-424.333 481 -583 1439c180 -1.33301 274.667 -2 284 -2z" />
    <glyph glyph-name="W" unicode="W" horiz-adv-x="2240" 
d="M356 1435h23.001l-3 -910c0 -53.333 20 -110.666 60 -171.999c57.333 -64.667 129.666 -97 216.999 -97h23c112 0 195 52.333 249 157c15.333 42.667 23 82.667 23 120v902h338v-908c0 -180 -78.333 -322.667 -235 -428c-105.333 -66 -236 -99 -392 -99
c-229.333 0 -403 73.667 -521 221c-68.667 91.333 -103 198.666 -103 321.999l1 894c203.333 -1.33301 310 -2 320 -2zM1275 1435h23.001l-3 -910c0 -53.333 20 -110.666 60 -171.999c57.333 -64.667 129.666 -97 216.999 -97h23c112 0 195 52.333 249 157
c15.333 42.667 23 82.667 23 120v902h338v-908c0 -180 -78.333 -322.667 -235 -428c-105.333 -66 -236 -99 -392 -99c-229.333 0 -403 73.667 -521 221c-68.667 91.333 -103 198.666 -103 321.999l1 894c203.333 -1.33301 310 -2 320 -2z" />
    <glyph glyph-name="X" unicode="X" horiz-adv-x="1471" 
d="M35 -8c237.333 564.667 463.668 847 679.001 847s454.666 -281.333 717.999 -844h-344l-364 531l-367 -536zM362.002 1436l366.998 -536l364 531h344c-263.333 -562.667 -502.666 -844 -717.999 -844s-441.666 282.333 -678.999 847z" />
    <glyph glyph-name="Y" unicode="Y" 
d="M319 1430h20l-2 -497c0 -53.333 17.667 -110.666 53 -171.999c51.333 -64.667 115.666 -97 192.999 -97h20c99.333 0 173 52.333 221 157c13.333 42.667 20 82.667 20 120v489h299v-495c0 -180 -69.333 -322.667 -208 -428c-93.333 -66 -209 -99 -347 -99
c-203.333 0 -357.333 73.667 -462 221c-60.667 91.333 -91 198.666 -91 321.999v481c180.667 -1.33301 275.334 -2 284.001 -2zM747 636v-640h-292v640h292z" />
    <glyph glyph-name="Z" unicode="Z" horiz-adv-x="1203" 
d="M1168 258v-252h-1101l-7 245l706 877l-730 -1l-1 308l1130 1v-309l-619 -869h622z" />
    <glyph glyph-name="bracketleft" unicode="[" horiz-adv-x="1101" 
d="M36 1183h312v-1206l-308 -2l-4 840v368zM1053 1435v-312h-1017l-1 308l707 4h311zM1061 -5v-312h-1017l-1 308l707 4h311z" />
    <glyph glyph-name="backslash" unicode="\" horiz-adv-x="1022" 
d="M35 1439h312l640 -1437l-308 -2z" />
    <glyph glyph-name="bracketright" unicode="]" horiz-adv-x="1101" 
d="M1060 836l-4 -840l-308 2v1206h312v-368zM358 1435l708 -4l-1 -308h-1017v312h310zM345 4l708 -4l-1 -308h-1017v312h310z" />
    <glyph glyph-name="asciicircum" unicode="^" horiz-adv-x="824" 
d="M253 1439h312l224 -449l-308 -2zM343 987l-308 2l224 449h312z" />
    <glyph glyph-name="underscore" unicode="_" horiz-adv-x="1088" 
d="M1053 180v-185h-1018v185h1018z" />
    <glyph glyph-name="grave" unicode="`" horiz-adv-x="382" 
d="M35 1431h312v-416l-145 -2z" />
    <glyph glyph-name="a" unicode="a" horiz-adv-x="1020" 
d="M553 1035c206.667 0 340.332 -67.6699 400.999 -203.003c20.667 -59.333 31 -115.666 31 -168.999v-308c0 -141.333 -83 -247.666 -249 -318.999c-72 -24 -143.667 -36 -215 -36c-249.333 0 -405.666 78.333 -468.999 235c-11.333 36.667 -17 71.334 -17 104.001v29
c0 129.333 62 216.333 186 261c70 20.667 150.667 31 242 31h249c3.33301 0 5 1.66699 5 5c0 98.667 -69.333 148 -208 148h-29c-114 0 -208.333 -18 -283 -54v228c88 32 206.667 48 356 48zM302.998 359.997c0 -64 55.666 -102.668 166.999 -116.001h51
c96.667 0 160.334 31.667 191.001 95c3.33301 12.667 5 26.334 5 41.001v89h-235c-88.667 0 -144 -18.333 -166 -55c-8.66699 -15.333 -13 -33.333 -13 -54z" />
    <glyph glyph-name="b" unicode="b" horiz-adv-x="1160" 
d="M347 1000c66 42 141.667 62.999 227 62.999h10c111.333 0 212 -25 302 -75c159.333 -105.333 239 -256.666 239 -453.999c0 -121.333 -30 -227 -90 -317c-102.667 -144.667 -254 -217 -454 -217c-136 -0 -249.667 32.333 -341 97c-136.667 104 -205 244.667 -205 422v915
h312v-434zM816 628.999c-41.333 122.667 -121.332 183.999 -239.999 183.999c-30 0 -65 -7.33301 -105 -22c-94.667 -51.333 -142 -135.333 -142 -252v-15c0 -36.667 6.66699 -75.667 20 -117c47.333 -103.333 119.666 -155 216.999 -155h20c40.667 0 79.667 10 117 30
c83.333 54 125 138 125 252c0 20.667 -4 52.334 -12 95.001z" />
    <glyph glyph-name="c" unicode="c" horiz-adv-x="1038" 
d="M559 1023h12c180 0 319 -61.667 417 -185c-1.33301 0 -75.666 -52.667 -222.999 -158h-2c-50 68.667 -115.667 103 -197 103c-114.667 0 -191.667 -59.333 -231 -178c-8 -32.667 -12 -64.667 -12 -96c0 -116 46.333 -198.333 139 -247c32 -12.667 63.333 -19 94 -19h17
c89.333 0 156.666 41.333 201.999 124h2l226 -163c-96 -136 -243.333 -204 -442 -204c-232 0 -393.667 97.667 -485 293c-27.333 73.333 -41 146.333 -41 219c0 195.333 79.333 342.333 238 441c84 46.667 179.333 70 286 70z" />
    <glyph glyph-name="d" unicode="d" horiz-adv-x="1160" 
d="M813 1434l312 0.000976562v-915c0 -177.333 -68.333 -318 -205 -422c-91.333 -64.667 -205 -97 -341 -97c-200 0 -351.333 72.333 -454 217c-60 90 -90 195.667 -90 317c0 197.333 79.667 348.666 239 453.999c90 50 190.667 75 302 75h10c85.333 0 161 -21 227 -63v434z
M332 534.001c0 -114 41.668 -197.999 125.001 -251.999c37.333 -20 76.333 -30 117 -30h20c97.333 0 169.666 51.667 216.999 155c13.333 41.333 20 80.333 20 117v15c0 116.667 -47.333 200.667 -142 252c-40 14.667 -75 22 -105 22c-118.667 0 -198.667 -61.333 -240 -184
c-8 -42.667 -12 -74.334 -12 -95.001z" />
    <glyph glyph-name="e" unicode="e" horiz-adv-x="1020" 
d="M468 0c-207.333 0 -341.332 67.6699 -401.999 203.003c-20.667 59.333 -31 115.666 -31 168.999v308c0 141.333 83 247.666 249 318.999c72.667 24 144.334 36 215.001 36c249.333 0 405.666 -78.333 468.999 -235c11.333 -36.667 17 -71.334 17 -104.001v-29
c0 -129.333 -62 -216.333 -186 -261c-70 -20.667 -150.667 -31 -242 -31h-249c-3.33301 0 -5 -1.66699 -5 -5c0 -98.667 69.333 -148 208 -148h29c207.333 3.33301 348 23 422 59v-228c-180.667 -35.333 -345.334 -53 -494.001 -53zM717.001 675.003
c0 64 -55.667 102.668 -167 116.001h-51c-96.667 0 -160.334 -31.667 -191.001 -95c-3.33301 -12.667 -5 -26.334 -5 -41.001v-89h235c88.667 0 144.334 18.333 167.001 55c8 15.333 12 33.333 12 54z" />
    <glyph glyph-name="f" unicode="f" horiz-adv-x="1141" 
d="M583 1439c231.333 0 395.667 -94.3359 493 -283.003c10 -21.333 20 -48.666 30 -81.999h-320c-19.333 40.667 -57 73 -113 97c-28.667 10 -57 15 -85 15h-20c-98 0 -170.667 -51.667 -218 -155c-13.333 -41.333 -20 -80.666 -20 -117.999v-15
c0 34.667 2.66699 37.334 8 8.00098h435v-313h-425v-593h-313v918c0 178 68.333 319 205 423c92 65.333 206.333 98 343 98z" />
    <glyph glyph-name="g" unicode="g" horiz-adv-x="1107" 
d="M569 1013c144 0 267.999 -40.333 371.999 -121c85.333 -74.667 128 -163.334 128 -266.001c0 -128.667 1 -314.667 3 -558c-6.66699 -76.667 -17 -134.667 -31 -174c-35.333 -84 -91.666 -144.333 -168.999 -181c-76 -35.333 -170 -53 -282 -53
c-154.667 0 -281 17.667 -379 53v247h3c76.667 -38.667 178.334 -58 305.001 -58h32c111.333 0 181.666 29 210.999 87c6.66699 17.333 11.667 38.333 15 63l-2 5v237h-274c-241.333 0 -388 61.667 -440 185c-17.333 42.667 -26 87.334 -26 134.001v31
c0 150.667 81.667 258.667 245 324c76.667 30 173 45 289 45zM326.999 613c0 -74 65 -111 195 -111h255v98c0 64.667 -38.667 109.334 -116 134.001c-34 8.66699 -66.333 13 -97 13h-26c-99.333 0 -166 -27 -200 -81c-7.33301 -16.667 -11 -34.334 -11 -53.001z" />
    <glyph glyph-name="h" unicode="h" horiz-adv-x="1156" 
d="M348 953c65.333 41.333 140.332 62 224.999 62h10c94 0 179.333 -17.667 256 -53c188 -94 282 -256.667 282 -488v-472h-297v430c0 16 0.666992 40.667 2 74h-2c0 69.333 -23.333 131.333 -70 186c-47.333 50 -106.666 75 -177.999 75c-30 0 -64.667 -7.66699 -104 -23
c-94.667 -50.667 -142 -134 -142 -250v-494h-295c1.33301 526 2 1003.33 2 1432v2h311v-481z" />
    <glyph glyph-name="i" unicode="i" horiz-adv-x="400" 
d="M49 1018h311v-1017l-307 -1l-4 708v310zM317.5 1348.5c32.333 -31.667 48.5 -70.167 48.5 -115.5c0 -44.667 -16.167 -83 -48.5 -115s-71.5 -48 -117.5 -48c-45.333 0 -84.166 16 -116.499 48s-48.5 70.333 -48.5 115c0 45.333 16.167 83.833 48.5 115.5
s71.166 47.5 116.499 47.5c46 0 85.167 -15.833 117.5 -47.5z" />
    <glyph glyph-name="j" unicode="j" horiz-adv-x="632" 
d="M293 1041h296v-920c0 -178 -68.667 -319 -206 -423c-92 -65.333 -206.333 -98 -343 -98l-5 253h20c98 0 170.667 51.667 218 155c13.333 42 20 81.333 20 118v915zM548.5 1365.5c32.333 -31.667 48.5 -70.167 48.5 -115.5c0 -44.667 -16.167 -83 -48.5 -115
s-71.166 -48 -116.499 -48c-46 0 -85.167 16 -117.5 48s-48.5 70.333 -48.5 115c0 45.333 16.167 83.833 48.5 115.5s71.5 47.5 117.5 47.5c45.333 0 84.166 -15.833 116.499 -47.5z" />
    <glyph glyph-name="k" unicode="k" horiz-adv-x="1130" 
d="M35 1433l333.002 0.000976562v-823h2c10 14.667 83.667 108.667 221 282c68 83.333 102 126.333 102 129h366l-391 -487c1.33301 0 143.666 -178 426.999 -534h-404c-6.66699 11.333 -114.334 148.666 -323.001 411.999v-412h-333v1433z" />
    <glyph glyph-name="l" unicode="l" horiz-adv-x="382" 
d="M35 1435h312v-1433l-308 -2l-4 998v437z" />
    <glyph glyph-name="m" unicode="m" horiz-adv-x="1977" 
d="M35 0v482.001c0 123.333 30.333 230.666 91 321.999c104.667 146.667 258.667 220 462 220c138 0 253.667 -32.667 347 -98c138.667 -106 208 -249 208 -429v-495h-299v490c0 37.333 -6.66699 77 -20 119c-48 104.667 -121.667 157 -221 157h-20
c-77.333 0 -141.666 -32 -192.999 -96c-35.333 -62 -53 -119.667 -53 -173l2 -497h-20c-8.66699 0 -103.334 -0.666992 -284.001 -2zM834 0.000976562v482.001c0 123.333 30.333 230.666 91 321.999c104.667 146.667 258.667 220 462 220c138 0 253.667 -32.667 347 -98
c138.667 -106 208 -249 208 -429v-495h-299v490c0 37.333 -6.66699 77 -20 119c-48 104.667 -121.667 157 -221 157h-20c-77.333 0 -141.666 -32 -192.999 -96c-35.333 -62 -53 -119.667 -53 -173l2 -497h-20c-8.66699 0 -103.334 -0.666992 -284.001 -2z" />
    <glyph glyph-name="n" unicode="n" 
d="M35 0v482.001c0 123.333 30.333 230.666 91 321.999c104.667 146.667 258.667 220 462 220c138 0 253.667 -32.667 347 -98c138.667 -106 208 -249 208 -429v-495h-299v490c0 37.333 -6.66699 77 -20 119c-48 104.667 -121.667 157 -221 157h-20
c-77.333 0 -141.666 -32 -192.999 -96c-35.333 -62 -53 -119.667 -53 -173l2 -497h-20c-8.66699 0 -103.334 -0.666992 -284.001 -2z" />
    <glyph glyph-name="o" unicode="o" horiz-adv-x="1132" 
d="M560 1026h11.999c232.667 0 395 -99.667 487 -299c25.333 -70 38 -141.333 38 -214c0 -186.667 -71.333 -329.667 -214 -429c-88.667 -56 -195.667 -84 -321 -84c-232 0 -394 98 -486 294c-27.333 73.333 -41 146.333 -41 219c0 196 79.333 343.667 238 443
c84.667 46.667 180.334 70 287.001 70zM323.999 511c0 -116.667 46.666 -199.333 139.999 -248c32 -13.333 63.333 -20 94 -20h16c68 0 125 25.667 171 77c42 51.333 63 115 63 191v4c0 116.667 -45 198.667 -135 246c-35.333 16 -70.666 24 -105.999 24
c-114.667 0 -191.667 -59.333 -231 -178c-8 -32.667 -12 -64.667 -12 -96z" />
    <glyph glyph-name="p" unicode="p" horiz-adv-x="1160" 
d="M347 -413l-312 -0.000976562v915c0 177.333 68.333 318 205 422c91.333 64.667 205 97 341 97c200 0 351.333 -72.333 454 -217c60 -90 90 -195.667 90 -317c0 -197.333 -79.667 -348.666 -239 -453.999c-90 -49.333 -190.667 -74 -302 -74h-10
c-85.333 0 -161 20.667 -227 62v-434zM828 486.999c0 114.667 -41.668 198.668 -125.001 252.001c-37.333 20 -76.333 30 -117 30h-20c-97.333 0 -169.666 -51.333 -216.999 -154c-13.333 -42 -20 -81.333 -20 -118v-15c0 -116.667 47.333 -200.334 142 -251.001
c40 -15.333 75 -23 105 -23c118.667 0 198.667 61.667 240 185c8 42 12 73.333 12 94z" />
    <glyph glyph-name="q" unicode="q" horiz-adv-x="1160" 
d="M813 21c-66 -41.333 -141.667 -61.999 -227 -61.999h-10c-111.333 0 -212 24.667 -302 74c-159.333 105.333 -239 256.666 -239 453.999c0 121.333 30 227 90 317c102.667 144.667 254 217 454 217c136 0 249.667 -32.333 341 -97c136.667 -104 205 -244.667 205 -422
v-915h-312v434zM344 393.001c41.333 -123.333 121.332 -185.001 239.999 -185.001c30 0 65 7.66699 105 23c94.667 50.667 142 134.334 142 251.001v15c0 36.667 -6.66699 76 -20 118c-47.333 102.667 -119.666 154 -216.999 154h-20c-40.667 0 -79.667 -10 -117 -30
c-83.333 -53.333 -125 -137.333 -125 -252c0 -20.667 4 -52 12 -94z" />
    <glyph glyph-name="r" unicode="r" horiz-adv-x="766" 
d="M348 959c66 41.333 141.332 62 225.999 62h10c48.667 0 97.667 -5 147 -15v-284c-47.333 33.333 -98.666 50 -153.999 50c-30 0 -65 -7.33301 -105 -22c-94 -51.333 -141 -135 -141 -251v-495h-296c1.33301 527.333 2 868 2 1022v2h311v-69z" />
    <glyph glyph-name="s" unicode="s" horiz-adv-x="1012" 
d="M816 974l-0.000976562 -225.001c-73.333 34.667 -166.666 52 -279.999 52h-29c-137.333 0 -206 -48.667 -206 -146c0 -3.33301 1.66699 -5 5 -5h247c90 0 170 -10.333 240 -31c122.667 -44 184 -130.333 184 -259v-28c0 -32 -5.66699 -66.333 -17 -103
c-62.667 -155.333 -217.667 -233 -465 -233c-50 0 -106 7.33301 -168 22c-49.333 14.667 -86.666 30.667 -111.999 48c-44.667 18.667 -89.334 59.334 -134.001 122.001c-24.667 42 -39.334 82.667 -44.001 122v2h276c40.667 -49.333 101.334 -74 182.001 -74h51
c110 13.333 165 51.666 165 114.999c0 20.667 -4 38.334 -12 53.001c-22 36.667 -77 55 -165 55h-499v192c0 53.333 10.333 109.333 31 168c60 134 192.667 201 398 201c148 0 265.333 -16 352 -48z" />
    <glyph glyph-name="t" unicode="t" horiz-adv-x="1165" 
d="M331 1065h398.001v-296h-403v-2h5v-241c0 -36.667 6.66699 -76 20 -118c47.333 -103.333 120 -155 218 -155h20c26 0 55 5 87 15c104 47.333 156 139.333 156 276h298c0 -104.667 -20 -196.667 -60 -276c-99.333 -178.667 -261.333 -268 -486 -268
c-136.667 0 -251.334 32.667 -344.001 98c-136.667 104 -205 245 -205 423v920h296v-376z" />
    <glyph glyph-name="u" unicode="u" 
d="M319 1022h20l-2 -497c0 -53.333 17.667 -110.666 53 -171.999c51.333 -64.667 115.666 -97 192.999 -97h20c99.333 0 173 52.333 221 157c13.333 42.667 20 82.667 20 120v489h299v-495c0 -180 -69.333 -322.667 -208 -428c-93.333 -66 -209 -99 -347 -99
c-203.333 0 -357.333 73.667 -462 221c-60.667 91.333 -91 198.666 -91 321.999v481c180.667 -1.33301 275.334 -2 284.001 -2z" />
    <glyph glyph-name="v" unicode="v" 
d="M319 1022h20l221 -672l283 672h300c-232 -681.333 -433.5 -1022 -604.5 -1022s-338.833 341.333 -503.5 1024c180 -1.33301 274.667 -2 284 -2z" />
    <glyph glyph-name="w" unicode="w" horiz-adv-x="1977" 
d="M319 1022h20l-2 -497c0 -53.333 17.667 -110.666 53 -171.999c51.333 -64.667 115.666 -97 192.999 -97h20c99.333 0 173 52.333 221 157c13.333 42.667 20 82.667 20 120v489h299v-495c0 -180 -69.333 -322.667 -208 -428c-93.333 -66 -209 -99 -347 -99
c-203.333 0 -357.333 73.667 -462 221c-60.667 91.333 -91 198.666 -91 321.999v481c180.667 -1.33301 275.334 -2 284.001 -2zM1118 1022h20l-2 -497c0 -53.333 17.667 -110.666 53 -171.999c51.333 -64.667 115.666 -97 192.999 -97h20c99.333 0 173 52.333 221 157
c13.333 42.667 20 82.667 20 120v489h299v-495c0 -180 -69.333 -322.667 -208 -428c-93.333 -66 -209 -99 -347 -99c-203.333 0 -357.333 73.667 -462 221c-60.667 91.333 -91 198.666 -91 321.999v481c180.667 -1.33301 275.334 -2 284.001 -2z" />
    <glyph glyph-name="x" unicode="x" horiz-adv-x="1204" 
d="M319 1022h20l256 -319l248 319h300c-208.667 -446 -398.5 -669 -569.5 -669s-350.5 223.667 -538.5 671c180 -1.33301 274.667 -2 284 -2zM61 -8c188 447.333 367.5 671 538.5 671s360.833 -223 569.5 -669h-300l-248 319l-256 -319h-20
c-9.33301 0 -104 -0.666992 -284 -2z" />
    <glyph glyph-name="y" unicode="y" 
d="M319 1022h20l221 -672l283 672h300l-606 -1417l-268 120l168 411l-119 54l-283 834c180 -1.33301 274.667 -2 284 -2z" />
    <glyph glyph-name="z" unicode="z" horiz-adv-x="1099" 
d="M1064 249l-4 -243h-989l-3 236l586 478l-618 -1l-1 308l1018 1v-309l-465 -470h476z" />
    <glyph glyph-name="braceleft" unicode="{" horiz-adv-x="3270" 
d="M1781 1108l176 -0.000976562v-514c0 -126.667 -55.333 -216.667 -166 -270c-42.667 -18.667 -91 -28 -145 -28c-118 0 -206 45.667 -264 137c-27.333 46.667 -41 99.334 -41 158.001v16c0 120 55 208 165 264c51.333 18.667 99 28 143 28
c43.333 0 87.333 -11.667 132 -35v244zM2647 1108l185 -0.000976562v-456c23.333 26.667 83.666 102.334 181 227.001h201c-4 -8 -75.333 -97 -214 -267v-5l235 -293v-3h-219c-11.333 11.333 -61.333 74.333 -150 189c-20.667 24 -31 37.333 -31 40h-3v-224
c0 -3.33301 -1.66699 -5 -5 -5h-175c-3.33301 0 -5 1.66699 -5 5v792zM35 1085h183v-313h3l252 313h224l-288 -361v-3l301 -407v-3h-237c-166.667 226 -250 340.667 -250 344h-5v-344h-183v774zM2308 901.998c118.667 0 196.667 -34.999 234 -104.999
c18.667 -26 28 -84.333 28 -175v-82c0 -78.667 -19.333 -134.667 -58 -168c-54 -50.667 -128 -76 -222 -76c-130.667 0 -218 41.667 -262 125c-10 31.333 -15 59.333 -15 84c0 83.333 39 136.666 117 159.999c38 12 95.667 18 173 18h109v2c0 58 -44 87 -132 87
c-66 0 -122.667 -10.333 -170 -31v133c66.667 18.667 132.667 28 198 28zM974 898.999c126.667 0 218.33 -49.001 274.997 -147.001c25.333 -48.667 38 -100.667 38 -156c0 -108.667 -43 -192.667 -129 -252c-51.333 -32 -112.666 -48 -183.999 -48
c-131.333 0 -224.666 53.333 -279.999 160c-20 45.333 -30 93 -30 143c0 110.667 45.667 196.334 137 257.001c56.667 28.667 114.334 43 173.001 43zM831.996 598.998c0 -78 33.001 -129.667 99.001 -155c16 -3.33301 28.667 -5 38 -5h13
c65.333 0 108.666 36.333 129.999 109c3.33301 7.33301 5 21 5 41v23c-12 96.667 -59.667 145 -143 145c-75.333 0 -122 -43.333 -140 -130c0 -18.667 -0.666992 -28 -2 -28zM1509 613.998l0.000976562 -33c0 -52.667 23.667 -95 71 -127c23.333 -10 44.666 -15 63.999 -15
h12c62.667 0 106 36.333 130 109c3.33301 26 5 42 5 48c0 80.667 -33.667 132.667 -101 156c-14 3.33301 -28.667 5 -44 5c-38 0 -70 -13.667 -96 -41c-27.333 -31.333 -41 -65.333 -41 -102zM2171 511.998v-7c8.66699 -44 43.334 -66 104 -66h23
c65.333 0 103.333 22.667 114 68v64h-129c-74.667 0 -112 -19.667 -112 -59z" />
    <glyph glyph-name=".null" horiz-adv-x="0" 
 />
    <glyph glyph-name="nonmarkingreturn" horiz-adv-x="508" 
 />
    <glyph glyph-name="draftunfinished" horiz-adv-x="3456" 
d="M338 967c64 40.667 137.667 61 221 61h9c108.667 0 206.667 -24.333 294 -73c154.667 -102 232 -249 232 -441c0 -184.667 -69.333 -328.667 -208 -432c-98 -54.667 -181.333 -82 -250 -82v250c2 0 11.667 3 29 9c94 48.667 141 133.667 141 255c0 20 -4 50.667 -12 92
c-40 119.333 -117.667 179 -233 179c-29.333 0 -63.333 -7 -102 -21c-92 -50 -138 -131.667 -138 -245v-15c0 -100 38 -177.667 114 -233v-264c-69.333 14 -130 36.667 -182 68c-145.333 102.667 -218 244 -218 424v536h303v-68zM1477 948
c66.667 42 143.332 63.001 229.999 63.001h10c112.667 0 214.334 -25.333 305.001 -76c162 -106 243 -259 243 -459c0 -98.667 -20.333 -189 -61 -271c-54.667 -103.333 -134.667 -177.333 -240 -222h-2v417c0 19.333 0.666992 50.333 2 93h-2c0 70.667 -23.667 134 -71 190
c-48 50.667 -108.667 76 -182 76c-80.667 0 -147 -33.667 -199 -101c-34 -60.667 -51 -111.334 -51 -152.001c2 -76.667 3 -138 3 -184v-339c-34.667 10.667 -77 36 -127 76c-116 105.333 -174 239 -174 401v559h316v-71zM2647 953.001c66 41.333 141.333 62 226 62h10
c93.333 0 178.333 -17.667 255 -53c188.667 -94 283 -256.667 283 -488v-472h-298v430c0 16 1 40.667 3 74h-3c0 69.333 -23 131.333 -69 186c-47.333 50 -107 75 -179 75c-30 0 -64.667 -7.66699 -104 -23c-94 -50.667 -141 -134 -141 -250v-494h-295
c1.33301 526 2 866 2 1020v2h310v-69z" />
    <glyph glyph-name="glyph95" 
d="M319 1022h20v-406c0 -22.667 -0.666992 -53 -2 -91c0 -53.333 17.667 -110.666 53 -171.999c51.333 -64.667 115.666 -97 192.999 -97h20c99.333 0 173 52.333 221 157c13.333 42.667 20 82.667 20 120v489h299v-495c0 -180 -69.333 -322.667 -208 -428
c-93.333 -66 -209 -99 -347 -99c-203.333 0 -357.333 73.667 -462 221c-60.667 91.333 -91 198.666 -91 321.999c0 186 70 332 210 438c40.667 27.333 65.334 41 74.001 41z" />
    <glyph glyph-name="glyph96" horiz-adv-x="1818" 
d="M483 1612l32.001 -0.000976562v-640c0 -36.667 -1.33301 -84.667 -4 -144c0 -83.333 28 -174 84 -272c80.667 -101.333 182 -152 304 -152h32c156.667 0 272.667 82.667 348 248c21.333 66.667 32 129.334 32 188.001v772h472v-780c0 -284 -109.333 -509.333 -328 -676
c-147.333 -104 -330 -156 -548 -156c-320.667 0 -563.334 116 -728.001 348c-96 144 -144 313.333 -144 508c0 294 110.667 524.667 332 692c63.333 42.667 102 64 116 64z" />
    <glyph glyph-name="glyph97" horiz-adv-x="1156" 
d="M348 0h-310.999v2c0 154 -0.666992 494 -2 1020h295v-494c0 -116 47.333 -199.333 142 -250c39.333 -14.667 74 -22 104 -22c71.333 0 130.666 24.667 177.999 74c46.667 54.667 70 116.667 70 186h2c-1.33301 33.333 -2 58 -2 74v430h297v-472
c0 -231.333 -94 -394 -282 -488c-76.667 -35.333 -162 -53 -256 -53h-10c-84.667 0 -159.667 20.667 -225 62v-69z" />
    </font>
</defs>
</svg>
