<?xml version="1.0" standalone="no"?>
  <!DOCTYPE svg PUBLIC "-//W3C//DTD SVG 1.1//EN" "http://www.w3.org/Graphics/SVG/1.1/DTD/svg11.dtd" >
  <svg>
  <metadata>
  Created by font-carrier
  </metadata>
  <defs>
  <font id="NexaBold" horiz-adv-x="1159" vert-adv-y="1159" >
    <font-face
      
      font-family="Nexa Bold"
      
      font-weight="400"
      
      font-stretch="normal"
      
      units-per-em="1000"
      
      ascent="750"
      
      descent="-250"
      
    />
      <missing-glyph />

      

      
      <glyph glyph-name="uni21" unicode="&#x21;" d="M74 699L205 699L205 183L74 183L74 699M100 2Q100 2 80 12Q60 22 60 72Q60 122 100 142.50Q140 163 180 142.50Q220 122 220 72Q220 22 180 2Q140-18 100 2Z"  horiz-adv-x="297" vert-adv-y="1000"  />

      
      <glyph glyph-name="uni22" unicode="&#x22;" d="M64 698L175 698L175 430L64 430L64 698M242 698L354 698L354 430L242 430L242 698Z"  horiz-adv-x="434" vert-adv-y="1000"  />

      
      <glyph glyph-name="uni23" unicode="&#x23;" d="M230 700L364 700L327 550L436 550L474 700L607 700L570 550L642 550L642 434L541 434L494 252L573 252L573 135L467 135L434 0L300 0L333 135L223 135L190 0L57 0L90 135L14 135L14 252L120 252L166 435L83 435L83 550L193 550L230 700M418 443L292 443L242 245L368 245L418 443Z"  horiz-adv-x="721" vert-adv-y="1000"  />

      
      <glyph glyph-name="uni24" unicode="&#x24;" d="M634 582L526 532Q507 564 458 586Q409 608 357 608Q288 608 243 585.50Q198 563 198 514Q198 490 210.50 474Q223 458 249.50 448.50Q276 439 299 435Q322 431 361 426Q399 421 424 417Q449 413 484 405Q519 397 541.50 387Q564 377 589.50 360.50Q615 344 629.50 323.50Q644 303 653.50 273Q663 243 663 206Q663 110 594 51.50Q525-7 426-14L426-114L299-114L299-19Q209-11 139.50 31.50Q70 74 36 152L154 202Q174 155 231.50 126Q289 97 353 97Q427 97 476.50 124Q526 151 526 206Q526 286 350 307Q298 313 264.50 319Q231 325 189.50 339Q148 353 124 374Q100 395 83.50 430.50Q67 466 67 514Q67 605 134 656Q201 707 299 719L299 806L426 806L426 719Q578 696 634 582Z"  horiz-adv-x="777" vert-adv-y="1000"  />

      
      <glyph glyph-name="uni25" unicode="&#x25;" d="M111 695.50Q111 695.50 128.50 704.25Q146 713 191 713Q236 713 271 695.50Q306 678 324 650.50Q342 623 350.50 589.50Q359 556 350.50 522.50Q342 489 324 461.50Q306 434 271 416.50Q236 399 191 399Q146 399 111 416.50Q76 434 58 461.50Q40 489 31.50 522.50Q23 556 31.50 589.50Q40 623 58 650.50Q76 678 111 695.50M538 701L679 701L219-1L77-1L538 701M491 289.50Q491 289.50 508.50 298.25Q526 307 571 307Q616 307 651 289.50Q686 272 704 244.50Q722 217 730.50 183.50Q739 150 730.50 116.50Q722 83 704 55.50Q686 28 651 10.50Q616-7 571-7Q526-7 491 10.50Q456 28 438 55.50Q420 83 411.50 116.50Q403 150 411.50 183.50Q420 217 438 244.50Q456 272 491 289.50M618.50 194.50Q618.50 194.50 609.75 204.75Q601 215 571 215Q541 215 523.50 194.50Q506 174 506 149.50Q506 125 523.50 104.50Q541 84 571 84Q601 84 618.50 104.50Q636 125 636 149.50Q636 174 618.50 194.50M238.50 601.50Q238.50 601.50 229.75 611.75Q221 622 191 622Q161 622 143.50 601.50Q126 581 126 556.50Q126 532 143.50 511.50Q161 491 191 491Q221 491 238.50 511.50Q256 532 256 556.50Q256 581 238.50 601.50Z"  horiz-adv-x="774" vert-adv-y="1000"  />

      
      <glyph glyph-name="uni26" unicode="&#x26;" d="M326 306Q259 306 222.50 277Q186 248 186 212Q186 160 228.50 134.50Q271 109 332 109Q379 109 428.50 133.50Q478 158 478 205L478 306L326 306M603 306L603 204Q603 171 618.50 149.50Q634 128 666 128L666-3Q559-3 534 89Q474-9 334-9Q57-9 56 213Q56 258 86 300.50Q116 343 164 359Q120 373 95 414.50Q70 456 70 501Q70 571 112 620.50Q154 670 212 690.50Q270 711 337 711Q386 711 429 701Q472 691 510 669Q548 647 570.50 607Q593 567 593 513L468 513Q468 558 430.50 578.50Q393 599 334 599Q264 599 230.50 568.50Q197 538 198 501Q198 454 242 432Q286 410 333 410L661 410L661 306L603 306Z"  horiz-adv-x="725" vert-adv-y="1000"  />

      
      <glyph glyph-name="uni27" unicode="&#x27;" d="M45 699L156 699L156 431L45 431L45 699Z"  horiz-adv-x="214" vert-adv-y="1000"  />

      
      <glyph glyph-name="uni28" unicode="&#x28;" d="M264 775L325 693Q242 627 198.50 532Q155 437 155 329Q155 102 325-32L259-121Q146-47 87.50 74.50Q29 196 29 329Q29 459 89.50 579Q150 699 264 775Z"  horiz-adv-x="346" vert-adv-y="1000"  />

      
      <glyph glyph-name="uni29" unicode="&#x29;" d="M12 693L73 775Q187 699 247.50 579Q308 459 308 329Q308 196 249.50 74.50Q191-47 78-121L14-30Q182 102 182 329Q182 437 138.50 532Q95 627 12 693Z"  horiz-adv-x="355" vert-adv-y="1000"  />

      
      <glyph glyph-name="uni2a" unicode="&#x2a;" d="M293 467L218 411L158 498L99 411L23 467L89 545L-5 564L23 657L115 622L110 716L205 716L195 620L293 657L319 564L223 545L293 467Z"  horiz-adv-x="343" vert-adv-y="1000"  />

      
      <glyph glyph-name="uni2b" unicode="&#x2b;" d="M15 403L162 403L162 552L283 552L283 403L432 403L432 292L283 292L283 142L162 142L162 292L15 292L15 403Z"  horiz-adv-x="468" vert-adv-y="1000"  />

      
      <glyph glyph-name="uni2c" unicode="&#x2c;" d="M185 52Q185 40 140-98L71-98L90 1Q43 9 43 55Q43 98 78.50 115Q114 132 149.50 113.50Q185 95 185 52Z"  horiz-adv-x="249" vert-adv-y="1000"  />

      
      <glyph glyph-name="uni2d" unicode="&#x2d;" d="M35 270L35 382L404 382L404 270L35 270Z"  horiz-adv-x="458" vert-adv-y="1000"  />

      
      <glyph glyph-name="uni2e" unicode="&#x2e;" d="M59.50 10Q59.50 10 48.25 19.50Q37 29 37 63Q37 97 59.50 116Q82 135 109 135Q136 135 158.50 116Q181 97 181 63Q181 29 158.50 10Q136-9 109-9Q82-9 59.50 10Z"  horiz-adv-x="242" vert-adv-y="1000"  />

      
      <glyph glyph-name="uni2f" unicode="&#x2f;" d="M321 766L449 766L115-82L-12-82L321 766Z"  horiz-adv-x="455" vert-adv-y="1000"  />

      
      <glyph glyph-name="uni30" unicode="&#x30;" d="M161 401L161 300Q161 239 187 194.50Q213 150 252 130Q291 110 337 110Q383 110 422 130Q461 150 487 194.50Q513 239 513 300L513 401Q513 461 487 505Q461 549 422 569Q383 589 337 589Q291 589 252 569.50Q213 550 187 505.50Q161 461 161 401M30 300L30 401Q30 501 75.50 574Q121 647 189 680Q257 713 337 713Q417 713 485 680Q553 647 598.50 574Q644 501 644 401L644 300Q644 225 617.50 163.50Q591 102 548 64.50Q505 27 450 7Q395-13 337-13.50Q279-14 224 6.50Q169 27 126 64.50Q83 102 56.50 163Q30 224 30 300Z"  horiz-adv-x="696" vert-adv-y="1000"  />

      
      <glyph glyph-name="uni31" unicode="&#x31;" d="M9 0L9 112L114 112L114 580L5 580L5 700L245 700L245 112L342 112L342 0L9 0Z"  horiz-adv-x="369" vert-adv-y="1000"  />

      
      <glyph glyph-name="uni32" unicode="&#x32;" d="M171 497L40 497Q41 600 121.50 654.50Q202 709 310 709Q366 709 415.50 697Q465 685 508 660Q551 635 576.50 590.50Q602 546 602 486Q602 422 579.50 378.50Q557 335 515.50 313Q474 291 428 282.50Q382 274 321 274Q286 274 255 268Q224 262 196.50 240Q169 218 169 183L169 123L604 123L604 0L37 0L37 184Q37 242 61.50 284Q86 326 128 349Q170 372 218 382.50Q266 393 321 393Q471 393 471 483Q471 538 427 566.50Q383 595 312 595Q256 595 214 568.50Q172 542 171 497Z"  horiz-adv-x="655" vert-adv-y="1000"  />

      
      <glyph glyph-name="uni33" unicode="&#x33;" d="M305 305L196 305L196 413L297 413Q359 413 401 432.50Q443 452 444 497Q444 534 410 562Q376 590 300 590Q266 590 234.50 582.50Q203 575 178.50 554.50Q154 534 154 504L22 504Q22 575 66 623.50Q110 672 170.50 691Q231 710 301 710Q411 710 493 655.50Q575 601 576 497Q576 453 549.50 413Q523 373 479 359Q528 343 560.50 300Q593 257 593 212Q593 163 575 123.50Q557 84 528 59.50Q499 35 459.50 19Q420 3 380-3.50Q340-10 297-10Q244-10 195.50 1.50Q147 13 104.50 37.50Q62 62 36.50 105Q11 148 11 205L144 205Q144 157 194 132.50Q244 108 298 108Q357 108 405.50 134Q454 160 454 211Q454 305 305 305Z"  horiz-adv-x="654" vert-adv-y="1000"  />

      
      <glyph glyph-name="uni34" unicode="&#x34;" d="M346 699L547 699L547 261L629 261L629 133L547 133L547 0L417 0L417 133L43 133L31 267L346 699M180 261L417 261L417 585L180 261Z"  horiz-adv-x="679" vert-adv-y="1000"  />

      
      <glyph glyph-name="uni35" unicode="&#x35;" d="M558 699L558 575L180 575L180 452L316 452Q374 452 423 439.50Q472 427 512 401.50Q552 376 574.50 331Q597 286 597 227Q597 114 517 53Q437-8 323-8Q196-8 116.50 44Q37 96 36 211L167 211Q167 159 213.50 136.50Q260 114 321 114Q377 114 421.50 142Q466 170 466 227Q467 281 423 305Q379 329 316 329L51 329L51 699L558 699Z"  horiz-adv-x="629" vert-adv-y="1000"  />

      
      <glyph glyph-name="uni36" unicode="&#x36;" d="M160 481L160 485L160 380Q182 414 229.50 434Q277 454 322 454Q378 454 427 441.50Q476 429 518.50 403Q561 377 586 330.50Q611 284 611 221Q611 112 524 50.50Q437-11 321-11Q246-11 181.50 14Q117 39 73 93.50Q29 148 29 223L29 484Q29 594 114 653.50Q199 713 317 713Q441 713 522.50 661.50Q604 610 604 506L472 506Q472 550 426 574.50Q380 599 319 599Q256 600 208 567.50Q160 535 160 481M321 107Q388 107 434 136.50Q480 166 480 221Q480 277 435.50 308Q391 339 322 339Q252 339 205.50 308Q159 277 160 221Q161 166 206.50 136.50Q252 107 321 107Z"  horiz-adv-x="662" vert-adv-y="1000"  />

      
      <glyph glyph-name="uni37" unicode="&#x37;" d="M227 0L75 0L361 574L20 574L20 700L534 700L541 630L227 0Z"  horiz-adv-x="570" vert-adv-y="1000"  />

      
      <glyph glyph-name="uni38" unicode="&#x38;" d="M322 309Q255 309 207 283.50Q159 258 158 209Q157 166 201 135Q245 104 322 104Q399 104 443 134.50Q487 165 486 209Q485 258 439 283.50Q393 309 322 309M20 211Q21 255 48.50 298Q76 341 127 361Q39 408 39 499Q39 600 120 656Q201 712 321 712Q441 712 524.50 655.50Q608 599 608 499Q608 459 585 422Q562 385 518 367Q568 347 595.50 301.50Q623 256 624 211Q626 97 538 40Q450-17 321-16Q240-15 174 6Q108 27 63.50 80Q19 133 20 211M174 503Q175 459 218.50 432Q262 405 322 405Q384 405 426.50 431.50Q469 458 470 503Q471 547 429.50 574.50Q388 602 321 602Q251 602 211.50 572Q172 542 174 503Z"  horiz-adv-x="679" vert-adv-y="1000"  />

      
      <glyph glyph-name="uni39" unicode="&#x39;" d="M480 221L480 217L480 322Q458 288 410.50 268Q363 248 318 248Q262 248 213 260.50Q164 273 121.50 299Q79 325 54 371.50Q29 418 29 481Q29 590 116 651.50Q203 713 319 713Q394 713 458.50 688Q523 663 567 608.50Q611 554 611 479L611 218Q611 108 526 48.50Q441-11 323-11Q243-11 179.50 9.50Q116 30 74 78Q32 126 32 196L164 196Q164 152 211.50 127.50Q259 103 321 103Q384 102 432 134.50Q480 167 480 221M319 595Q252 595 206 565.50Q160 536 160 481Q160 425 204.50 394Q249 363 318 363Q388 363 434.50 394Q481 425 480 481Q479 536 433.50 565.50Q388 595 319 595Z"  horiz-adv-x="675" vert-adv-y="1000"  />

      
      <glyph glyph-name="uni3a" unicode="&#x3a;" d="M80.50 1Q80.50 1 62.75 10Q45 19 45 63Q45 107 80.50 125.50Q116 144 151.50 125.50Q187 107 187 63Q187 19 151.50 1Q116-17 80.50 1M80.50 291Q80.50 291 62.75 300Q45 309 45 353Q45 397 80.50 415.50Q116 434 151.50 415.50Q187 397 187 353Q187 309 151.50 291Q116 273 80.50 291Z"  horiz-adv-x="237" vert-adv-y="1000"  />

      
      <glyph glyph-name="uni3b" unicode="&#x3b;" d="M80.50 291Q80.50 291 62.75 300Q45 309 45 353Q45 397 80.50 415.50Q116 434 151.50 415.50Q187 397 187 353Q187 309 151.50 291Q116 273 80.50 291M185 52Q185 40 140-98L71-98L90 1Q43 9 43 55Q43 98 78.50 115Q114 132 149.50 113.50Q185 95 185 52Z"  horiz-adv-x="260" vert-adv-y="1000"  />

      
      <glyph glyph-name="uni3c" unicode="&#x3c;" d="M170 314L328 163L328 157L249 79L19 307L19 322L249 550L328 472L328 466L170 314Z"  horiz-adv-x="387" vert-adv-y="1000"  />

      
      <glyph glyph-name="uni3d" unicode="&#x3d;" d="M20 165L20 275L385 275L385 165L20 165M20 339L20 450L385 450L385 339L20 339Z"  horiz-adv-x="427" vert-adv-y="1000"  />

      
      <glyph glyph-name="uni3e" unicode="&#x3e;" d="M39 163L197 314L39 466L39 472L118 550L348 322L348 307L118 79L39 157L39 163Z"  horiz-adv-x="397" vert-adv-y="1000"  />

      
      <glyph glyph-name="uni3f" unicode="&#x3f;" d="M225 5Q225 5 205 15Q185 25 185 75Q185 125 225 145.50Q265 166 305 145.50Q345 125 345 75Q345 25 305 5Q265-15 225 5M160 490L26 490Q27 595 103 649.50Q179 704 293 704Q367 704 426 683.50Q485 663 523.50 614Q562 565 561 493Q561 452 547.50 421Q534 390 510 371Q486 352 463 340Q440 328 411.50 315.50Q383 303 370 294Q332 269 332 201L332 196L200 196L200 202Q200 251 209 285.50Q218 320 236.50 342Q255 364 269.50 374Q284 384 310 398Q322 404 349 415.50Q376 427 388.50 434Q401 441 412.50 457Q424 473 424 494Q424 589 291 589Q240 589 200.50 562Q161 535 160 490Z"  horiz-adv-x="620" vert-adv-y="1000"  />

      
      <glyph glyph-name="uni40" unicode="&#x40;" d="M463 546Q341 546 248.50 464.50Q156 383 156 243Q156 165 182 106.50Q208 48 252.50 15.50Q297-17 348.50-32.50Q400-48 458-48Q542-48 600-13L646-100Q561-150 455-150Q392-150 333.50-136Q275-122 222-91Q169-60 129.50-15Q90 30 66.50 96.50Q43 163 43 243Q43 338 78 416Q113 494 172 543.50Q231 593 306 619.50Q381 646 463 646Q651 646 768.50 544Q886 442 886 251Q886 130 838 60Q790-10 703-10Q665-10 633.50 12Q602 34 602 85Q587 43 542 20Q497-3 458-3Q349-3 275.50 66Q202 135 202 243Q202 350 276 421Q350 492 457 492Q498 492 538.50 469.50Q579 447 596 415L604 466L698 453L698 110Q698 98 704 93Q710 88 718 90Q743 96 758.50 144Q774 192 774 251Q774 546 463 546M460 386Q394 386 356.50 343.50Q319 301 319 244Q319 186 355.50 145Q392 104 459 104Q525 104 561 145.50Q597 187 597 249Q597 309 562 347.50Q527 386 460 386Z"  horiz-adv-x="955" vert-adv-y="1000"  />

      
      <glyph glyph-name="uni41" unicode="&#x41;" d="M605 0L546 132L180 132L120 0L-23 0L291 700L435 700L749 0L605 0M493 255L363 553L233 255L493 255Z"  horiz-adv-x="749" vert-adv-y="1000"  />

      
      <glyph glyph-name="uni42" unicode="&#x42;" d="M175 303L175 123L377 123Q408 123 435.50 129.50Q463 136 485.50 156Q508 176 508 207Q508 251 465.50 277Q423 303 377 303L175 303M175 580L175 419L377 419Q487 419 487 494Q487 525 460 552.50Q433 580 377 580L175 580M377 700Q486 700 552 649Q618 598 618 497Q618 403 527 362Q582 345 610.50 296.50Q639 248 639 206Q639 0 377 0L45 0L45 700L377 700Z"  horiz-adv-x="683" vert-adv-y="1000"  />

      
      <glyph glyph-name="uni43" unicode="&#x43;" d="M576 179L666 88Q561-16 400-16Q306-16 233 14.50Q160 45 116.50 96.50Q73 148 51 211Q29 274 29 345Q29 415 51.50 480Q74 545 118.50 598Q163 651 236 682.50Q309 714 400 714Q548 714 657 607L569 522Q502 588 400 588Q282 588 220 515.50Q158 443 159 345Q160 247 220 177.50Q280 108 400 108Q447 108 494.50 126.50Q542 145 576 179Z"  horiz-adv-x="660" vert-adv-y="1000"  />

      
      <glyph glyph-name="uni44" unicode="&#x44;" d="M315 700Q402 700 470 671Q538 642 579.50 592.50Q621 543 642.50 483Q664 423 665 356Q666 288 645.50 225.50Q625 163 583.50 112Q542 61 472.50 30.50Q403 0 315 0L40 0L40 700L315 700M171 575L171 127L315 127Q426 127 481 194.50Q536 262 534 357Q532 448 476.50 511.50Q421 575 315 575L171 575Z"  horiz-adv-x="703" vert-adv-y="1000"  />

      
      <glyph glyph-name="uni45" unicode="&#x45;" d="M571 130L571 0L47 0L47 700L571 700L571 572L178 572L178 411L557 411L557 288L178 288L178 130L571 130Z"  horiz-adv-x="624" vert-adv-y="1000"  />

      
      <glyph glyph-name="uni46" unicode="&#x46;" d="M181 0L49 0L49 699L552 699L552 572L181 572L181 381L532 381L532 259L181 259L181 0Z"  horiz-adv-x="594" vert-adv-y="1000"  />

      
      <glyph glyph-name="uni47" unicode="&#x47;" d="M651 613L569 529Q535 562 486.50 580.50Q438 599 391 599Q281 599 215.50 525.50Q150 452 150 341Q150 244 210 175.50Q270 107 391 107Q479 107 549 163L549 287L370 287L370 405L670 405L670 110Q560-16 391-16Q296-16 223 13.50Q150 43 107 94Q64 145 42.50 207.50Q21 270 21 341Q21 443 61 527Q101 611 186.50 665.50Q272 720 391 720Q542 720 651 613Z"  horiz-adv-x="729" vert-adv-y="1000"  />

      
      <glyph glyph-name="uni48" unicode="&#x48;" d="M657-1L526-1L526 282L182 282L182-1L50-1L50 699L182 699L182 404L526 404L526 699L657 699L657-1Z"  horiz-adv-x="732" vert-adv-y="1000"  />

      
      <glyph glyph-name="uni49" unicode="&#x49;" d="M181 0L50 0L50 700L181 700L181 0Z"  horiz-adv-x="256" vert-adv-y="1000"  />

      
      <glyph glyph-name="uni4a" unicode="&#x4a;" d="M636 700L636 299Q636 160 553 73Q470-14 328-14Q190-14 105.50 66Q21 146 21 291L151 291Q151 110 328 110Q414 110 459 162.50Q504 215 504 299L504 577L293 577L293 700L636 700Z"  horiz-adv-x="711" vert-adv-y="1000"  />

      
      <glyph glyph-name="uni4b" unicode="&#x4b;" d="M611 700L611 696L300 361L637 8L637 0L474 0L181 310L181 0L49 0L49 700L181 700L181 404L447 700L611 700Z"  horiz-adv-x="655" vert-adv-y="1000"  />

      
      <glyph glyph-name="uni4c" unicode="&#x4c;" d="M49 700L181 700L181 122L541 122L541 0L49 0L49 700Z"  horiz-adv-x="585" vert-adv-y="1000"  />

      
      <glyph glyph-name="uni4d" unicode="&#x4d;" d="M659-1L659 507L431 203L405 203L182 508L182-1L50-1L50 699L202 699L421 398L640 699L791 699L791-1L659-1Z"  horiz-adv-x="866" vert-adv-y="1000"  />

      
      <glyph glyph-name="uni4e" unicode="&#x4e;" d="M509 266L509 701L641 701L641 0L559 0L559-1L191 472L191 0L59 0L59 700L166 700L509 266Z"  horiz-adv-x="713" vert-adv-y="1000"  />

      
      <glyph glyph-name="uni4f" unicode="&#x4f;" d="M378 714Q493 714 577 659.50Q661 605 699.50 523Q738 441 737 346Q736 276 714 212.50Q692 149 649.50 97.50Q607 46 537 15Q467-16 378-16Q289-16 218.50 14Q148 44 105 95.50Q62 147 40 210.50Q18 274 18 345Q18 416 41 481Q64 546 107 598.50Q150 651 220.50 682.50Q291 714 378 714M378 594Q300 594 245.50 555Q191 516 168.50 461Q146 406 148 343Q151 245 207.50 175Q264 105 378 105Q492 105 548.50 175.50Q605 246 607 344Q608 390 595 433Q582 476 555.50 513Q529 550 483 572Q437 594 378 594Z"  horiz-adv-x="785" vert-adv-y="1000"  />

      
      <glyph glyph-name="uni50" unicode="&#x50;" d="M181 575L181 327L379 327Q439 327 473 365.50Q507 404 506.50 451Q506 498 472.50 536.50Q439 575 379 575L181 575M379 701Q441 701 491 679.50Q541 658 572 623.50Q603 589 619.50 544.50Q636 500 636 453.50Q636 407 619.50 362.50Q603 318 572 283.50Q541 249 491 227.50Q441 206 379 206L181 206L181 0L49 0L49 700Q104 700 214 700.50Q324 701 379 701Z"  horiz-adv-x="676" vert-adv-y="1000"  />

      
      <glyph glyph-name="uni51" unicode="&#x51;" d="M216.50 686Q216.50 686 251.75 701.50Q287 717 376 717Q465 717 535 686.50Q605 656 647 605Q689 554 711.50 491.50Q734 429 735 359Q737 227 670 131L753 49L660-44L575 40Q494-12 376-12Q286-12 215.50 19Q145 50 102.50 102Q60 154 38 217.50Q16 281 16 351Q16 421 38 485.50Q60 550 103 602.50Q146 655 216.50 686M480 577.50Q480 577.50 457.50 587.75Q435 598 376 598Q317 598 270.50 576Q224 554 197.50 517Q171 480 158 437Q145 394 146 348Q148 253 208.50 181.50Q269 110 376 110Q487 110 548 187Q609 264 605 363Q603 408 590 448Q577 488 551 522.50Q525 557 480 577.50Z"  horiz-adv-x="782" vert-adv-y="1000"  />

      
      <glyph glyph-name="uni52" unicode="&#x52;" d="M670 9L670 0L513 0L309 234L182 234L182 0L50 0L50 701Q106 701 217 700.50Q328 700 383 700Q501 699 568 631.50Q635 564 635 468Q635 388 593 327.50Q551 267 458 248L670 9M383 577L182 577L182 353L383 353Q442 353 472.50 386Q503 419 503 465Q503 511 472 544Q441 577 383 577Z"  horiz-adv-x="675" vert-adv-y="1000"  />

      
      <glyph glyph-name="uni53" unicode="&#x53;" d="M586 585L481 531Q462 563 416 586Q370 609 315 609Q244 609 207 583Q170 557 170 516Q170 487 193 468.50Q216 450 247 442Q278 434 326 428Q375 422 412 414Q449 406 488 389.50Q527 373 551.50 350.50Q576 328 592 290.50Q608 253 608 205Q608 130 566 78.50Q524 27 459.50 4.50Q395-18 314-18Q79-18 9 154L119 211Q141 156 194.50 128Q248 100 316 100Q385 100 431 126Q477 152 477 205Q477 291 315 308Q254 315 210.50 326.50Q167 338 125 361Q83 384 61.50 424Q40 464 40 520Q40 588 82 636Q124 684 183 703.50Q242 723 311 724Q518 724 586 585Z"  horiz-adv-x="661" vert-adv-y="1000"  />

      
      <glyph glyph-name="uni54" unicode="&#x54;" d="M230 0L230 580L8 580L8 700L584 700L584 580L362 580L362 0L230 0Z"  horiz-adv-x="615" vert-adv-y="1000"  />

      
      <glyph glyph-name="uni55" unicode="&#x55;" d="M532 699L663 699L663 298Q663 147 580 66Q497-15 360-15Q226-15 137.50 66Q49 147 49 298L49 699L180 699L180 298Q180 205 229 155Q278 105 361 105Q442 105 487 156Q532 207 532 298L532 699Z"  horiz-adv-x="743" vert-adv-y="1000"  />

      
      <glyph glyph-name="uni56" unicode="&#x56;" d="M720 700L429-3L292-3L1 700L149 700L360 155L572 700L720 700Z"  horiz-adv-x="752" vert-adv-y="1000"  />

      
      <glyph glyph-name="uni57" unicode="&#x57;" d="M1057 700L805 0L693 0L606 220L532 441L459 218L374 0L262 0L5 700L153 700L318 195L488 700L574 700L749 195L909 700L1057 700Z"  horiz-adv-x="1089" vert-adv-y="1000"  />

      
      <glyph glyph-name="uni58" unicode="&#x58;" d="M349 439L524 700L669 700L669 694L432 354L676 4L676 0L528 0L349 263L170 0L22 0L22 4L265 354L29 694L29 700L174 700L349 439Z"  horiz-adv-x="705" vert-adv-y="1000"  />

      
      <glyph glyph-name="uni59" unicode="&#x59;" d="M166 700L344 411L530 700L689 700L689 694L410 289L410 0L278 0L278 289L9 694L9 700L166 700Z"  horiz-adv-x="698" vert-adv-y="1000"  />

      
      <glyph glyph-name="uni5a" unicode="&#x5a;" d="M17 576L17 700L555 700L555 638L192 125L555 125L555 0L8 0L8 76L363 576L17 576Z"  horiz-adv-x="586" vert-adv-y="1000"  />

      
      <glyph glyph-name="uni5b" unicode="&#x5b;" d="M290-107L49-107L49 781L290 781L290 673L172 673L172 3L290 3L290-107Z"  horiz-adv-x="312" vert-adv-y="1000"  />

      
      <glyph glyph-name="uni5c" unicode="&#x5c;" d="M-5 766L123 766L456-82L329-82L-5 766Z"  horiz-adv-x="457" vert-adv-y="1000"  />

      
      <glyph glyph-name="uni5d" unicode="&#x5d;" d="M249-107L8-107L8 3L126 3L126 673L8 673L8 781L249 781L249-107Z"  horiz-adv-x="323" vert-adv-y="1000"  />

      
      <glyph glyph-name="uni5e" unicode="&#x5e;" d="M1 333L1 339L239 702L316 702L562 340L562 333L428 333L278 563L127 333L1 333Z"  horiz-adv-x="591" vert-adv-y="1000"  />

      
      <glyph glyph-name="uni5f" unicode="&#x5f;" d="M-11-110L-11-3L461-3L461-110L-11-110Z"  horiz-adv-x="481" vert-adv-y="1000"  />

      
      <glyph glyph-name="uni60" unicode="&#x60;" d="M-7 694L-7 699L137 699L211 563L211 557L103 557L-7 694Z"  horiz-adv-x="237" vert-adv-y="1000"  />

      
      <glyph glyph-name="uni61" unicode="&#x61;" d="M427 425L431 493L548 493L548 0L433 0L427 72Q407 32 360 9Q313-14 267-15Q154-16 83.50 52.50Q13 121 13 247Q13 370 85.50 438Q158 506 270 505Q320 505 363 483Q406 461 427 425M281 396Q218 396 176.50 356Q135 316 135 247Q135 178 176.50 137.50Q218 97 281 97Q336 97 373.50 128Q411 159 419.50 202.50Q428 246 419.50 290Q411 334 373.50 365Q336 396 281 396Z"  horiz-adv-x="611" vert-adv-y="1000"  />

      
      <glyph glyph-name="uni62" unicode="&#x62;" d="M313 391Q254 391 212 350.50Q170 310 170 247Q170 182 211.50 142Q253 102 313 102Q372 102 412.50 142.50Q453 183 453 247Q453 312 413 351.50Q373 391 313 391M40 699L162 699L162 426Q182 462 231.50 483.50Q281 505 324 505Q436 505 505.50 438Q575 371 575 247Q575 128 503.50 58.50Q432-11 321-11Q213-11 162 68L154 0L40 0L40 699Z"  horiz-adv-x="625" vert-adv-y="1000"  />

      
      <glyph glyph-name="uni63" unicode="&#x63;" d="M381 143L463 63Q384-15 273-15Q160-15 85.50 52.50Q11 120 11 246Q11 372 85.50 439.50Q160 507 273 507Q377 507 451 434L374 353Q331 392 275 392Q213 392 173 351Q133 310 133 246Q133 178 173 140Q213 102 273 102Q340 102 381 143Z"  horiz-adv-x="477" vert-adv-y="1000"  />

      
      <glyph glyph-name="uni64" unicode="&#x64;" d="M279 391Q219 391 179 351.50Q139 312 139 247Q139 183 179.50 142.50Q220 102 279 102Q339 102 380.50 142Q422 182 422 247Q422 310 380 350.50Q338 391 279 391M430 699L552 699L552 0L438 0L430 68Q379-11 271-11Q160-11 88.50 58.50Q17 128 17 247Q17 371 86.50 438Q156 505 268 505Q311 505 360.50 483.50Q410 462 430 426L430 699Z"  horiz-adv-x="618" vert-adv-y="1000"  />

      
      <glyph glyph-name="uni65" unicode="&#x65;" d="M529 203L144 203Q150 156 189 127Q228 98 291 98Q327 98 365 110.50Q403 123 423 144L501 67Q464 28 406 7.50Q348-13 289-13Q163-13 90.50 58.50Q18 130 18 250Q18 364 89.50 436Q161 508 280 508Q407 508 475 429.50Q543 351 529 203M146 304L412 304Q406 351 372 375.50Q338 400 284 400Q233 400 196 375.50Q159 351 146 304Z"  horiz-adv-x="583" vert-adv-y="1000"  />

      
      <glyph glyph-name="uni66" unicode="&#x66;" d="M202 0L80 0L80 379L-12 379L-12 486L80 486L80 519Q80 613 134 662.50Q188 712 268 712Q334 712 396 672L351 581Q311 607 276 607Q243 607 222.50 584.50Q202 562 202 519L202 486L347 486L347 379L202 379L202 0Z"  horiz-adv-x="403" vert-adv-y="1000"  />

      
      <glyph glyph-name="uni67" unicode="&#x67;" d="M378 481L427 543L517 475L462 405Q514 346 514 259Q514 204 489.50 152Q465 100 410 75Q512 24 512-88Q512-188 443-248Q374-308 265-308Q156-308 85.50-247Q15-186 15-88L136-88Q136-135 173.50-164.50Q211-194 265-194Q319-194 354.50-166Q390-138 390-88Q390-40 352.50-14.50Q315 11 265 11Q149 11 82 77.50Q15 144 15 259Q15 372 87 440.50Q159 509 265 509Q337 509 378 481M265 398Q210 398 173 360Q136 322 136 259Q136 196 173 159Q210 122 265 122Q319 122 356 159.50Q393 197 393 259Q393 321 356 359.50Q319 398 265 398Z"  horiz-adv-x="552" vert-adv-y="1000"  />

      
      <glyph glyph-name="uni68" unicode="&#x68;" d="M40 700L162 700L162 426Q219 500 316 500Q418 500 468 436.50Q518 373 518 260L518 0L396 0L396 259Q396 324 365.50 355.50Q335 387 284 387Q231 387 196.50 348Q162 309 162 252L162 0L40 0L40 700Z"  horiz-adv-x="581" vert-adv-y="1000"  />

      
      <glyph glyph-name="uni69" unicode="&#x69;" d="M162 495L40 495L40 0L162 0L162 495M51.50 579Q51.50 579 40.25 588.50Q29 598 29 632Q29 666 51.50 685Q74 704 101 704Q128 704 150.50 685Q173 666 173 632Q173 598 150.50 579Q128 560 101 560Q74 560 51.50 579Z"  horiz-adv-x="232" vert-adv-y="1000"  />

      
      <glyph glyph-name="uni6a" unicode="&#x6a;" d="M160 495L39 495L39-105Q39-149 28.50-170Q18-191-10-192Q-37-193-69-178L-113-273Q-63-306-4-306Q77-306 118.50-252.50Q160-199 160-105L160 495M50.50 580Q50.50 580 39.25 589.50Q28 599 28 633Q28 667 50.50 686Q73 705 100 705Q127 705 149.50 686Q172 667 172 633Q172 599 149.50 580Q127 561 100 561Q73 561 50.50 580Z"  horiz-adv-x="224" vert-adv-y="1000"  />

      
      <glyph glyph-name="uni6b" unicode="&#x6b;" d="M37 699L159 699L159 295L325 493L471 493L471 486L270 261L499 9L499 0L352 0L159 223L159 0L37 0L37 699Z"  horiz-adv-x="515" vert-adv-y="1000"  />

      
      <glyph glyph-name="uni6c" unicode="&#x6c;" d="M40 699L161 699L161 0L40 0L40 699Z"  horiz-adv-x="228" vert-adv-y="1000"  />

      
      <glyph glyph-name="uni6d" unicode="&#x6d;" d="M490 0L368 0L368 264Q368 316 341.50 352Q315 388 267 388Q219 388 190.50 351.50Q162 315 162 264L162 0L40 0L40 494L153 494L162 434Q180 469 216 485.50Q252 502 292 502Q400 502 438 410Q495 500 603 500Q707 500 759.50 439.50Q812 379 812 266L812 0L690 0L690 266Q690 319 667 352.50Q644 386 597 386Q549 386 519.50 350.50Q490 315 490 264L490 0Z"  horiz-adv-x="896" vert-adv-y="1000"  />

      
      <glyph glyph-name="uni6e" unicode="&#x6e;" d="M525 0L403 0L403 258Q403 316 372 353Q341 390 284 390Q229 390 193.50 350Q158 310 158 252L158 0L37 0L37 494L146 494L154 427Q230 501 316 501Q406 501 465.50 436.50Q525 372 525 259L525 0Z"  horiz-adv-x="590" vert-adv-y="1000"  />

      
      <glyph glyph-name="uni6f" unicode="&#x6f;" d="M87 429Q87 429 122 466Q157 503 272 503Q387 503 458.50 429Q530 355 530 246Q530 136 460 62.50Q390-11 273-11Q156-11 86.50 62.50Q17 136 17 246Q17 355 87 429M273 392Q210 392 174.50 349Q139 306 139 246Q139 186 174.50 143.50Q210 101 273 101Q336 101 371.50 143.50Q407 186 407 246Q407 304 369.50 348Q332 392 273 392Z"  horiz-adv-x="574" vert-adv-y="1000"  />

      
      <glyph glyph-name="uni70" unicode="&#x70;" d="M212.50 146.50Q212.50 146.50 232.25 126.25Q252 106 313 106Q374 106 413.50 146.50Q453 187 453 246Q453 306 415 346Q377 386 313 386Q249 386 211 346Q173 306 173 246Q173 187 212.50 146.50M162-206L40-206L40 493L154 493L162 425Q189 464 233 484Q277 504 322 504Q434 504 504.50 430.50Q575 357 575 246Q575 134 508 61Q441-12 326-12Q279-12 232.50 4.50Q186 21 162 58L162-206Z"  horiz-adv-x="625" vert-adv-y="1000"  />

      
      <glyph glyph-name="uni71" unicode="&#x71;" d="M177.50 146.50Q177.50 146.50 197.25 126.25Q217 106 278 106Q339 106 378.50 146.50Q418 187 418 246Q418 306 380 346Q342 386 278 386Q214 386 176 346Q138 306 138 246Q138 187 177.50 146.50M551-206L429-206L429 58Q405 21 358.50 4.50Q312-12 265-12Q150-12 83 61Q16 134 16 246Q16 357 86.50 430.50Q157 504 269 504Q314 504 358 484Q402 464 429 425L437 493L551 493L551-206Z"  horiz-adv-x="618" vert-adv-y="1000"  />

      
      <glyph glyph-name="uni72" unicode="&#x72;" d="M40 493L153 493L162 436Q188 478 222 492Q256 506 301 506Q381 506 428 459L373 353Q335 385 285 385Q232 385 197 354.50Q162 324 162 260L162 0L40 0L40 493Z"  horiz-adv-x="434" vert-adv-y="1000"  />

      
      <glyph glyph-name="uni73" unicode="&#x73;" d="M430 442L362 362Q315 406 240 406Q150 406 150 357Q150 309 242 303Q275 301 300.50 297Q326 293 356 282.50Q386 272 406 255.50Q426 239 439.50 211Q453 183 453 145Q453 76 397.50 29.50Q342-17 241-17Q173-17 118 1Q63 19 13 71L73 158Q98 130 149 110Q200 90 243 89Q279 88 305.50 105Q332 122 332 148Q332 173 309.50 185Q287 197 234 200Q195 203 162 211.50Q129 220 97.50 236.50Q66 253 48 283Q30 313 30 353Q30 394 49.50 425Q69 456 100.50 473Q132 490 167 498.50Q202 507 238 507Q356 507 430 442Z"  horiz-adv-x="491" vert-adv-y="1000"  />

      
      <glyph glyph-name="uni74" unicode="&#x74;" d="M90 619L212 632L212 492L348 492L348 387L211 387L211 174Q211 140 228.50 122Q246 104 275 104Q304 104 334 119L368 15Q319-5 267-6Q185-9 137.50 37.50Q90 84 90 174L90 387L-2 387L-2 492L90 492L90 619Z"  horiz-adv-x="399" vert-adv-y="1000"  />

      
      <glyph glyph-name="uni75" unicode="&#x75;" d="M43 493L165 493L165 235Q165 177 196 140Q227 103 284 103Q339 103 374.50 143Q410 183 410 241L410 493L531 493L531-1L422-1L414 66Q339-8 247-8Q156-8 99.50 57Q43 122 43 234L43 493Z"  horiz-adv-x="599" vert-adv-y="1000"  />

      
      <glyph glyph-name="uni76" unicode="&#x76;" d="M418 494L551 494L341-2L209-2L-2 494L131 494L199 331L275 123L350 329L418 494Z"  horiz-adv-x="570" vert-adv-y="1000"  />

      
      <glyph glyph-name="uni77" unicode="&#x77;" d="M386 494L493 494L601 123L714 494L849 494L677-2L535-2L484 144L440 309L396 144L345-2L203-2L30 494L166 494L279 123L386 494Z"  horiz-adv-x="912" vert-adv-y="1000"  />

      
      <glyph glyph-name="uni78" unicode="&#x78;" d="M257 326L354 493L500 493L500 489L338 250L510 3L510 0L364 0L257 165L150 0L4 0L4 3L176 250L14 489L14 493L160 493L257 326Z"  horiz-adv-x="532" vert-adv-y="1000"  />

      
      <glyph glyph-name="uni79" unicode="&#x79;" d="M402 493L537 493L236-206L102-206L194 8L-3 493L139 493L214 280L261 141L312 277L402 493Z"  horiz-adv-x="561" vert-adv-y="1000"  />

      
      <glyph glyph-name="uni7a" unicode="&#x7a;" d="M27 493L422 493L422 435L195 120L424 120L424 0L9 0L9 51L245 382L27 382L27 493Z"  horiz-adv-x="457" vert-adv-y="1000"  />

      
      <glyph glyph-name="uni7b" unicode="&#x7b;" d="M310-7L310-102Q201-122 147-78.50Q93-35 93 63L93 203Q93 287 23 287L23 378Q93 378 93 462L93 602Q93 700 147 743.50Q201 787 310 767L310 672Q262 685 241.50 667Q221 649 221 596L221 462Q221 398 213 379Q198 346 151 332Q176 325 191.50 314Q207 303 213 284.50Q219 266 220 253Q221 240 221 213Q221 207 221 203L221 69Q221 16 238 1.50Q255-13 310-7Z"  horiz-adv-x="338" vert-adv-y="1000"  />

      
      <glyph glyph-name="uni7c" unicode="&#x7c;" d="M192 752L192-84L74-84L74 752L192 752Z"  horiz-adv-x="306" vert-adv-y="1000"  />

      
      <glyph glyph-name="uni7d" unicode="&#x7d;" d="M-2-102L-2-7Q53-13 70 1.50Q87 16 87 69L87 203Q87 207 87 213Q87 240 88 253Q89 266 95 284.50Q101 303 116.50 314Q132 325 157 332Q132 339 116.50 350.50Q101 362 95 380Q89 398 88 411Q87 424 87 451Q87 458 87 462L87 596Q87 649 66.50 667Q46 685-2 672L-2 767Q107 787 161 743.50Q215 700 215 602L215 462Q215 378 285 378L285 287Q215 287 215 203L215 63Q215-35 161-78.50Q107-122-2-102Z"  horiz-adv-x="340" vert-adv-y="1000"  />

      
      <glyph glyph-name="uni7e" unicode="&#x7e;" d="M403 373L492 343Q468 269 417.50 231.50Q367 194 297 219Q279 225 227 257Q175 289 148 289Q102 289 78 232L-4 263Q15 329 57 359.50Q99 390 152 390Q195 390 253 355Q311 320 327 315Q374 301 403 373Z"  horiz-adv-x="518" vert-adv-y="1000"  />

      
      <glyph glyph-name="unia1" unicode="&#xa1;" d="M75-232L206-232L206 284L75 284L75-232M180 465Q180 465 200 455Q220 445 220 395Q220 345 180 324.50Q140 304 100 324.50Q60 345 60 395Q60 445 100 465Q140 485 180 465Z"  horiz-adv-x="319" vert-adv-y="1000"  />

      
      <glyph glyph-name="unia2" unicode="&#xa2;" d="M408 138L483 50Q423-7 349-21L349-91L236-91L236-19Q147 1 91.50 71Q36 141 36 234Q36 325 90.50 395.50Q145 466 236 487L236 560L349 560L349 488Q426 473 482 418L411 339Q391 359 358.50 371Q326 383 298 383Q240 383 198.50 340Q157 297 157 234Q157 172 198.50 129Q240 86 298 86Q324 86 355.50 101Q387 116 408 138Z"  horiz-adv-x="547" vert-adv-y="1000"  />

      
      <glyph glyph-name="unia3" unicode="&#xa3;" d="M230 480Q230 445 246 377L453 377L453 266L269 266Q273 225 257.50 184Q242 143 204 125L596 125L596 0L44 0L44 125Q92 137 115 174.50Q138 212 136 266L44 266L44 377L115 377Q97 447 97 478Q97 588 165 649.50Q233 711 352 711Q461 711 524.50 659.50Q588 608 593 500L472 500Q463 595 353 595Q288 595 259 563Q230 531 230 480Z"  horiz-adv-x="629" vert-adv-y="1000"  />

      
      <glyph glyph-name="unia4" unicode="&#xa4;" d="M163 128L105 69L13 160L71 217Q22 314 75 413L13 472L105 564L163 505Q209 524 260.50 524Q312 524 357 504L417 564L508 472L450 414Q499 312 451 217L508 160L418 70L359 128Q265 88 163 128M260 208Q309 208 337 240Q365 272 365 316Q365 360 337 392Q309 424 260 424Q213 424 183.50 391.50Q154 359 154 316Q154 273 183.50 240.50Q213 208 260 208Z"  horiz-adv-x="541" vert-adv-y="1000"  />

      
      <glyph glyph-name="unia5" unicode="&#xa5;" d="M123 117L123 212L278 212L278 263L123 263L123 360L231 360L9 694L9 700L166 700L344 411L530 700L689 700L689 694L459 360L564 360L564 263L410 263L410 212L564 212L564 117L410 117L410 0L278 0L278 117L123 117Z"  horiz-adv-x="719" vert-adv-y="1000"  />

      
      <glyph glyph-name="unia6" unicode="&#xa6;" d="M205 341L80 341L80 710L205 710L205 341M80 278L205 278L205-91L80-91L80 278Z"  horiz-adv-x="305" vert-adv-y="1000"  />

      
      <glyph glyph-name="unia7" unicode="&#xa7;" d="M39 78L118 161Q178 96 292 98Q344 98 381.50 110.50Q419 123 420 146Q421 160 405 170Q389 180 360.50 185Q332 190 296 190Q249 189 205 197.50Q161 206 123 223Q85 240 63.50 271.50Q42 303 44 344Q46 373 69 402Q92 431 133 444Q90 453 69.50 485Q49 517 51 551Q53 596 80 629Q107 662 148.50 678Q190 694 231 701Q272 708 315 708Q471 708 536 633L449 559Q406 600 310 600Q184 600 181 554Q180 536 200 524.50Q220 513 246 508.50Q272 504 301 504Q350 504 390.50 498Q431 492 471.50 477Q512 462 533.50 429.50Q555 397 551 350Q548 319 524 290.50Q500 262 465 252Q507 240 529.50 207.50Q552 175 550 145Q548 101 520.50 68Q493 35 450.50 19Q408 3 367.50-4Q327-11 288-11Q113-11 39 78M424 347Q425 371 400 387Q375 403 338 407Q301 411 263.50 407Q226 403 199 387Q172 371 171 348Q170 326 195 311Q220 296 257 293Q294 290 331.50 293.50Q369 297 396 311.50Q423 326 424 347Z"  horiz-adv-x="602" vert-adv-y="1000"  />

      
      <glyph glyph-name="unia8" unicode="&#xa8;" d="M49 655Q49 699 84 717Q119 735 154 717Q189 699 189 655Q189 612 154 594Q119 576 84 594Q49 612 49 655M298 655Q298 699 333 717Q368 735 403 717Q438 699 438 655Q438 612 403 594Q368 576 333 594Q298 612 298 655Z"  horiz-adv-x="511" vert-adv-y="1000"  />

      
      <glyph glyph-name="unia9" unicode="&#xa9;" d="M188 613.50Q188 613.50 238 666.25Q288 719 456 719Q624 719 720.50 614Q817 509 817 354Q817 199 720.50 94Q624-11 456-11Q288-11 188 94.50Q88 200 88 354Q88 508 188 613.50M472 161Q552 161 617 224L552 285Q517 250 472 250Q426 250 394 277.50Q362 305 362 352Q362 402 393.50 430.50Q425 459 472 459Q516 459 551 426L615 485Q553 547 472 547Q384 547 326.50 494.50Q269 442 269 352Q269 262 326.50 211.50Q384 161 472 161M265.50 547Q265.50 547 229.75 508.50Q194 470 194 354Q194 238 265.50 161Q337 84 456 84Q575 84 643 160.50Q711 237 711 354Q711 471 643 547.50Q575 624 456 624Q337 624 265.50 547Z"  horiz-adv-x="925" vert-adv-y="1000"  />

      
      <glyph glyph-name="uniaa" unicode="&#xaa;" d="M275 656L277 700L368 700L368 377L278 377L275 424Q262 398 231 383Q200 368 170 367Q95 367 49 412Q3 457 3 539Q3 620 50.50 664.50Q98 709 172 708Q204 708 232.50 694Q261 680 275 656M181 623Q146 623 122.50 600.50Q99 578 99 539Q99 500 122.50 477.50Q146 455 181 455Q219 455 241 481.50Q263 508 263 539Q263 570 241 596.50Q219 623 181 623M15 233L15 320L370 320L370 233L15 233Z"  horiz-adv-x="415" vert-adv-y="1000"  />

      
      <glyph glyph-name="uniab" unicode="&#xab;" d="M12 318L151 539L281 539L143 318L281 96L151 96L12 318M188 318L327 539L457 539L319 318L457 96L327 96L188 318Z"  horiz-adv-x="493" vert-adv-y="1000"  />

      
      <glyph glyph-name="uniac" unicode="&#xac;" d="M410 382L410 151L305 151L305 278L15 278L15 382L410 382Z"  horiz-adv-x="468" vert-adv-y="1000"  />

      
      <glyph glyph-name="uniae" unicode="&#xae;" d="M457 716Q625 716 722 611Q819 506 819 351Q819 196 722 91Q625-14 457-14Q290-14 193 91Q96 196 96 351Q96 506 193 611Q290 716 457 716M202 351Q203 234 271 157.50Q339 81 457 81Q576 81 644 157.50Q712 234 712 351Q712 468 644 544.50Q576 621 457 621Q339 621 271 544.50Q203 468 202 351M635 189L544 301Q582 310 605 337Q628 364 628.50 397Q629 430 616 461.50Q603 493 568.50 514Q534 535 488 535L313 535L313 168L410 168L410 282L444 282L531 168L635 168L635 189M410 448L488 448Q515 448 526 427Q537 406 526 385Q515 364 488 364L410 364L410 448Z"  horiz-adv-x="925" vert-adv-y="1000"  />

      
      <glyph glyph-name="unib0" unicode="&#xb0;" d="M46.50 501.50Q46.50 501.50 26.75 518.25Q7 535 7 595Q7 655 47.50 688.50Q88 722 142 722Q196 722 236 688.50Q276 655 276 595Q276 535 236 501.50Q196 468 141 468Q86 468 46.50 501.50M178.50 638.50Q178.50 638.50 171.25 644.25Q164 650 142 650Q120 650 104.50 638.50Q89 627 85.50 610.50Q82 594 85.50 578Q89 562 104 550.50Q119 539 141 539Q163 539 178 550.50Q193 562 196.50 578Q200 594 196.50 610.50Q193 627 178.50 638.50Z"  horiz-adv-x="304" vert-adv-y="1000"  />

      
      <glyph glyph-name="unib1" unicode="&#xb1;" d="M20 320L20 434L163 434L163 582L285 582L285 434L429 434L429 320L285 320L285 172L163 172L163 320L20 320M20 19L20 130L429 130L429 19L20 19Z"  horiz-adv-x="469" vert-adv-y="1000"  />

      
      <glyph glyph-name="unib2" unicode="&#xb2;" d="M121 657L33 657Q34 712 76.50 741.50Q119 771 175 771Q245 771 286.50 741.50Q328 712 328 652Q328 610 307 585Q286 560 256 552Q226 544 195.50 539Q165 534 144 523.50Q123 513 123 492L123 479L321 479L321 396L31 396L31 492Q31 533 52.50 557Q74 581 104.50 589.50Q135 598 165.50 603.50Q196 609 217.50 620Q239 631 239 652Q239 694 177 694Q154 694 138 684.50Q122 675 121 657Z"  horiz-adv-x="367" vert-adv-y="1000"  />

      
      <glyph glyph-name="unib3" unicode="&#xb3;" d="M175 551L118 551L118 618L171 618Q203 618 217.50 625.50Q232 633 233 657Q233 664 229 672Q225 680 210 688Q195 696 172 696Q114 696 105 660L27 660Q27 715 71 743Q115 771 173 771Q231 771 276 741.50Q321 712 322 657Q322 633 309.50 612Q297 591 274 584Q300 576 315.50 554Q331 532 331 508Q331 466 305 437.50Q279 409 244.50 398.50Q210 388 171 388Q111 388 66 417Q21 446 20 503L112 503Q123 468 174 468Q200 468 219 477.50Q238 487 238 506Q238 551 175 551Z"  horiz-adv-x="391" vert-adv-y="1000"  />

      
      <glyph glyph-name="unib4" unicode="&#xb4;" d="M214 699L214 694L104 557L-4 557L-4 563L70 699L214 699Z"  horiz-adv-x="239" vert-adv-y="1000"  />

      
      <glyph glyph-name="unib5" unicode="&#xb5;" d="M526 0L407 0L395 51Q378 16 343.50-3Q309-22 277-22Q189-22 160 49L160-216L34-216L34 476L163 476L163 215Q163 158 198.50 124.50Q234 91 281 91Q328 91 361.50 126Q395 161 395 227L395 476L526 476L526 0Z"  horiz-adv-x="587" vert-adv-y="1000"  />

      
      <glyph glyph-name="uni03BC" unicode="&#x03BC;" d="M526 0L407 0L395 51Q378 16 343.50-3Q309-22 277-22Q189-22 160 49L160-216L34-216L34 476L163 476L163 215Q163 158 198.50 124.50Q234 91 281 91Q328 91 361.50 126Q395 161 395 227L395 476L526 476L526 0Z"  horiz-adv-x="587" vert-adv-y="1000"  />

      
      <glyph glyph-name="unib6" unicode="&#xb6;" d="M381 576L381-213L249-213L249 174Q137 185 74 261.50Q11 338 11 436Q11 543 83.50 621.50Q156 700 284 700L791 700L791 576L698 576L698-213L566-213L566 576L381 576Z"  horiz-adv-x="836" vert-adv-y="1000"  />

      
      <glyph glyph-name="unib7" unicode="&#xb7;" d="M55 264.50Q55 264.50 36 274.25Q17 284 17 331Q17 378 55 397.50Q93 417 131 397.50Q169 378 169 331Q169 284 131 264.50Q93 245 55 264.50Z"  horiz-adv-x="226" vert-adv-y="1000"  />

      
      <glyph glyph-name="unib8" unicode="&#xb8;" d="M33-169L86-124Q108-154 152-156Q196-158 205-128Q213-99 180.50-86Q148-73 120-93L91-70L123 24L211 24L195-27Q258-29 282-63.50Q306-98 298-142Q286-197 233.50-222Q181-247 122-232Q63-217 33-169Z"  horiz-adv-x="382" vert-adv-y="1000"  />

      
      <glyph glyph-name="unib9" unicode="&#xb9;" d="M53 396L53 474L103 474L103 689L57 689L57 764L191 764L191 474L234 474L234 396L53 396Z"  horiz-adv-x="284" vert-adv-y="1000"  />

      
      <glyph glyph-name="uniba" unicode="&#xba;" d="M101 606L101 551Q101 501 139 480.50Q177 460 215.50 480.50Q254 501 254 551L254 606Q254 655 216 675.50Q178 696 139.50 676Q101 656 101 606M15 553L15 607Q15 652 33 687.50Q51 723 80 741Q109 759 143.50 767.50Q178 776 213 767.50Q248 759 277 741Q306 723 324 687.50Q342 652 342 607L342 553Q342 508 324 472.50Q306 437 277 419Q248 401 213.50 392.50Q179 384 144 392.50Q109 401 80 419Q51 437 33 472.50Q15 508 15 553Z"  horiz-adv-x="374" vert-adv-y="1000"  />

      
      <glyph glyph-name="unibb" unicode="&#xbb;" d="M303 539L442 318L303 96L173 96L311 318L173 539L303 539M127 539L266 318L127 96L-3 96L135 318L-3 539L127 539Z"  horiz-adv-x="460" vert-adv-y="1000"  />

      
      <glyph glyph-name="unibc" unicode="&#xbc;" d="M568 367L683 367L683 142L717 142L717 65L683 65L683 0L595 0L595 65L403 65L399 140L568 367M595 142L595 282L490 142L595 142M499 707L596 707L194-29L98-29L499 707M36 335L36 411L86 411L86 628L40 628L40 703L174 703L174 411L223 411L223 335L36 335Z"  horiz-adv-x="765" vert-adv-y="1000"  />

      
      <glyph glyph-name="unibd" unicode="&#xbd;" d="M499 707L596 707L194-29L98-29L499 707M36 335L36 411L86 411L86 628L40 628L40 703L174 703L174 411L223 411L223 335L36 335M551 257L463 257Q464 312 506.50 341.50Q549 371 605 371Q675 371 716.50 341.50Q758 312 758 252Q758 210 737 185Q716 160 686 152Q656 144 625.50 139Q595 134 574 123.50Q553 113 553 92L553 79L751 79L751-4L461-4L461 92Q461 133 482.50 157Q504 181 534.50 189.50Q565 198 595.50 203.50Q626 209 647.50 220Q669 231 669 252Q669 294 607 294Q584 294 568 284.50Q552 275 551 257Z"  horiz-adv-x="810" vert-adv-y="1000"  />

      
      <glyph glyph-name="unibe" unicode="&#xbe;" d="M628 367L743 367L743 142L777 142L777 65L743 65L743 0L655 0L655 65L463 65L459 140L628 367M655 142L655 282L550 142L655 142M568 707L665 707L263-29L167-29L568 707M187 501L132 501L132 566L183 566Q214 566 228 573Q242 580 243 603Q243 616 229.50 628.50Q216 641 184 641Q128 641 120 606L44 606Q44 659 86.50 686Q129 713 185 713Q242 713 285 684.50Q328 656 329 603Q329 580 316.50 559.50Q304 539 282 533Q307 525 322 504Q337 483 337 460Q337 400 290.50 372Q244 344 183 344Q126 344 82.50 372Q39 400 38 455L126 455Q137 421 186 421Q211 421 229.50 430.50Q248 440 248 458Q248 501 187 501Z"  horiz-adv-x="845" vert-adv-y="1000"  />

      
      <glyph glyph-name="unibf" unicode="&#xbf;" d="M393 438Q393 388 353 368Q313 348 273.50 368.50Q234 389 234 439Q234 469 250.50 489.50Q267 510 290.50 514.50Q314 519 337.50 514.50Q361 510 377 489Q393 468 393 438M552 23L418 24Q417-21 377-48Q337-75 286-75Q230-75 192-53.50Q154-32 154 20Q154 41 165.50 57Q177 73 189.50 80Q202 87 229 98.50Q256 110 268 116Q294 130 308.50 140Q323 150 341.50 172Q360 194 369 228.50Q378 263 378 312L378 317L246 318L247 313Q246 244 208 220Q195 211 155 192Q115 173 89 157.50Q63 142 40 106Q17 70 17 22Q15-84 91.50-137Q168-190 285-190Q398-191 474.50-136.50Q551-82 552 23Z"  horiz-adv-x="599" vert-adv-y="1000"  />

      
      <glyph glyph-name="unic0" unicode="&#xc0;" d="M605 0L546 132L180 132L120 0L-23 0L291 700L435 700L749 0L605 0M493 255L363 553L233 255L493 255M194 909L194 914L338 914L412 778L412 772L304 772L194 909Z"  horiz-adv-x="749" vert-adv-y="1000"  />

      
      <glyph glyph-name="unic1" unicode="&#xc1;" d="M546 132L605 0L749 0L435 700L291 700L-23 0L120 0L180 132L546 132M493 255L233 255L363 553L493 255M526 914L526 909L416 772L308 772L308 778L382 914L526 914Z"  horiz-adv-x="749" vert-adv-y="1000"  />

      
      <glyph glyph-name="unic2" unicode="&#xc2;" d="M605 0L546 132L180 132L120 0L-23 0L291 700L435 700L749 0L605 0M493 255L363 553L233 255L493 255M185 759L333 897L400 897L548 759L548 753L424 753L366 812L309 753L185 753L185 759Z"  horiz-adv-x="749" vert-adv-y="1000"  />

      
      <glyph glyph-name="unic3" unicode="&#xc3;" d="M605 0L546 132L180 132L120 0L-23 0L291 700L435 700L749 0L605 0M493 255L363 553L233 255L493 255M259 763L182 805Q225 913 314 893Q326 890 357.50 874Q389 858 408 860.50Q427 863 441 892L523 853Q502 796 467 774.50Q432 753 394 763Q382 766 365 775.50Q348 785 335.50 791Q323 797 309.50 799.50Q296 802 283 793Q270 784 259 763Z"  horiz-adv-x="749" vert-adv-y="1000"  />

      
      <glyph glyph-name="unic4" unicode="&#xc4;" d="M546 132L605 0L749 0L435 700L291 700L-23 0L120 0L180 132L546 132M493 255L233 255L363 553L493 255M167 824Q167 868 202 886Q237 904 272 886Q307 868 307 824Q307 781 272 763Q237 745 202 763Q167 781 167 824M416 824Q416 868 451 886Q486 904 521 886Q556 868 556 824Q556 781 521 763Q486 745 451 763Q416 781 416 824Z"  horiz-adv-x="749" vert-adv-y="1000"  />

      
      <glyph glyph-name="unic5" unicode="&#xc5;" d="M230 798Q230 855 269.50 887Q309 919 363 919Q416 919 455.50 887Q495 855 495 798Q495 729 436 696L749 0L605 0L546 132L180 132L120 0L-23 0L289 696Q230 728 230 798M233 255L493 255L363 553L233 255M412 824.50Q412 824.50 404.50 837.25Q397 850 361 850Q325 850 310 824.50Q295 799 310 773.50Q325 748 361 748Q398 748 412.50 773.50Q427 799 412 824.50Z"  horiz-adv-x="749" vert-adv-y="1000"  />

      
      <glyph glyph-name="unic6" unicode="&#xc6;" d="M858 127L858 0L439 0L439 141L219 141L130 0L-21 0L423 700L855 700L855 576L563 576L563 410L844 410L844 288L563 288L563 127L858 127M293 258L439 258L439 383L449 537L293 258Z"  horiz-adv-x="912" vert-adv-y="1000"  />

      
      <glyph glyph-name="unic7" unicode="&#xc7;" d="M242-203L295-158Q317-188 361-190Q405-192 414-162Q422-133 389.50-120Q357-107 329-127L300-104L331-11Q182 9 106 109.50Q30 210 29 345Q29 415 51.50 480Q74 545 118.50 598Q163 651 236 682.50Q309 714 400 714Q548 714 657 607L569 522Q502 588 400 588Q282 588 220 515.50Q158 443 159 345Q160 247 220 177.50Q280 108 400 108Q447 108 494.50 126.50Q542 145 576 179L666 88Q567-10 418-16L404-61Q467-63 491-97.50Q515-132 507-176Q495-231 442.50-256Q390-281 331-266Q272-251 242-203Z"  horiz-adv-x="660" vert-adv-y="1000"  />

      
      <glyph glyph-name="unic8" unicode="&#xc8;" d="M571 130L571 0L47 0L47 700L571 700L571 572L178 572L178 411L557 411L557 288L178 288L178 130L571 130M168 914L168 919L312 919L386 783L386 777L278 777L168 914Z"  horiz-adv-x="619" vert-adv-y="1000"  />

      
      <glyph glyph-name="unic9" unicode="&#xc9;" d="M571 0L571 130L178 130L178 288L557 288L557 411L178 411L178 572L571 572L571 700L47 700L47 0L571 0M474 913L474 908L364 771L256 771L256 777L330 913L474 913Z"  horiz-adv-x="619" vert-adv-y="1000"  />

      
      <glyph glyph-name="unica" unicode="&#xca;" d="M571 130L571 0L47 0L47 700L571 700L571 572L178 572L178 411L557 411L557 288L178 288L178 130L571 130M152 777L300 915L367 915L515 777L515 771L391 771L333 830L276 771L152 771L152 777Z"  horiz-adv-x="619" vert-adv-y="1000"  />

      
      <glyph glyph-name="unicb" unicode="&#xcb;" d="M571 0L571 130L178 130L178 288L557 288L557 411L178 411L178 572L571 572L571 700L47 700L47 0L571 0M126 840Q126 884 161 902Q196 920 231 902Q266 884 266 840Q266 797 231 779Q196 761 161 779Q126 797 126 840M375 840Q375 884 410 902Q445 920 480 902Q515 884 515 840Q515 797 480 779Q445 761 410 779Q375 797 375 840Z"  horiz-adv-x="624" vert-adv-y="1000"  />

      
      <glyph glyph-name="unicc" unicode="&#xcc;" d="M181 0L50 0L50 700L181 700L181 0M-45 901L-45 906L99 906L173 770L173 764L65 764L-45 901Z"  horiz-adv-x="256" vert-adv-y="1000"  />

      
      <glyph glyph-name="unicd" unicode="&#xcd;" d="M50 0L181 0L181 700L50 700L50 0M275 906L275 901L165 764L57 764L57 770L131 906L275 906Z"  horiz-adv-x="256" vert-adv-y="1000"  />

      
      <glyph glyph-name="unice" unicode="&#xce;" d="M181 0L50 0L50 700L181 700L181 0M-64 764L84 902L151 902L299 764L299 758L175 758L117 817L60 758L-64 758L-64 764Z"  horiz-adv-x="256" vert-adv-y="1000"  />

      
      <glyph glyph-name="unicf" unicode="&#xcf;" d="M-65 828Q-65 872-30 890Q5 908 40 890Q75 872 75 828Q75 785 40 767Q5 749-30 767Q-65 785-65 828M149 828Q149 872 184 890Q219 908 254 890Q289 872 289 828Q289 785 254 767Q219 749 184 767Q149 785 149 828M50 0L181 0L181 700L50 700L50 0Z"  horiz-adv-x="256" vert-adv-y="1000"  />

      
      <glyph glyph-name="unid0" unicode="&#xd0;" d="M-12 293L-12 405L58 405L58 700L317 700Q488 700 584 604Q680 508 680 364Q680 290 658 225.50Q636 161 592.50 110Q549 59 478 29.50Q407 0 317 0L58 0L58 293L-12 293M185 293L185 121L317 121Q432 121 491 186Q550 251 550 360Q550 466 490 523.50Q430 581 317 581L185 581L185 405L320 405L320 293L185 293Z"  horiz-adv-x="731" vert-adv-y="1000"  />

      
      <glyph glyph-name="unid1" unicode="&#xd1;" d="M509 266L509 701L641 701L641 0L559 0L559-1L191 472L191 0L59 0L59 700L166 700L509 266M269 770L193 811Q236 917 322 897Q334 894 365 878.50Q396 863 414 865.50Q432 868 446 896L526 858Q505 803 471.50 781.50Q438 760 400 770Q388 773 371.50 782Q355 791 343.50 797Q332 803 318.50 805.50Q305 808 292.50 799.50Q280 791 269 770Z"  horiz-adv-x="740" vert-adv-y="1000"  />

      
      <glyph glyph-name="unid2" unicode="&#xd2;" d="M378 714Q493 714 577 659.50Q661 605 699.50 523Q738 441 737 346Q736 276 714 212.50Q692 149 649.50 97.50Q607 46 537 15Q467-16 378-16Q289-16 218.50 14Q148 44 105 95.50Q62 147 40 210.50Q18 274 18 345Q18 416 41 481Q64 546 107 598.50Q150 651 220.50 682.50Q291 714 378 714M378 594Q300 594 245.50 555Q191 516 168.50 461Q146 406 148 343Q151 245 207.50 175Q264 105 378 105Q492 105 548.50 175.50Q605 246 607 344Q608 390 595 433Q582 476 555.50 513Q529 550 483 572Q437 594 378 594M232 917L232 922L376 922L450 786L450 780L342 780L232 917Z"  horiz-adv-x="785" vert-adv-y="1000"  />

      
      <glyph glyph-name="unid3" unicode="&#xd3;" d="M378 714Q291 714 220.50 682.50Q150 651 107 598.50Q64 546 41 481Q18 416 18 345Q18 274 40 210.50Q62 147 105 95.50Q148 44 218.50 14Q289-16 378-16Q467-16 537 15Q607 46 649.50 97.50Q692 149 714 212.50Q736 276 737 346Q738 441 699.50 523Q661 605 577 659.50Q493 714 378 714M378 594Q437 594 483 572Q529 550 555.50 513Q582 476 595 433Q608 390 607 344Q605 246 548.50 175.50Q492 105 378 105Q264 105 207.50 175Q151 245 148 343Q146 406 168.50 461Q191 516 245.50 555Q300 594 378 594M539 917L539 912L429 775L321 775L321 781L395 917L539 917Z"  horiz-adv-x="785" vert-adv-y="1000"  />

      
      <glyph glyph-name="unid4" unicode="&#xd4;" d="M378 714Q493 714 577 659.50Q661 605 699.50 523Q738 441 737 346Q736 276 714 212.50Q692 149 649.50 97.50Q607 46 537 15Q467-16 378-16Q289-16 218.50 14Q148 44 105 95.50Q62 147 40 210.50Q18 274 18 345Q18 416 41 481Q64 546 107 598.50Q150 651 220.50 682.50Q291 714 378 714M378 594Q300 594 245.50 555Q191 516 168.50 461Q146 406 148 343Q151 245 207.50 175Q264 105 378 105Q492 105 548.50 175.50Q605 246 607 344Q608 390 595 433Q582 476 555.50 513Q529 550 483 572Q437 594 378 594M208 782L356 920L423 920L571 782L571 776L447 776L389 835L332 776L208 776L208 782Z"  horiz-adv-x="785" vert-adv-y="1000"  />

      
      <glyph glyph-name="unid5" unicode="&#xd5;" d="M378 714Q493 714 577 659.50Q661 605 699.50 523Q738 441 737 346Q736 276 714 212.50Q692 149 649.50 97.50Q607 46 537 15Q467-16 378-16Q289-16 218.50 14Q148 44 105 95.50Q62 147 40 210.50Q18 274 18 345Q18 416 41 481Q64 546 107 598.50Q150 651 220.50 682.50Q291 714 378 714M378 594Q300 594 245.50 555Q191 516 168.50 461Q146 406 148 343Q151 245 207.50 175Q264 105 378 105Q492 105 548.50 175.50Q605 246 607 344Q608 390 595 433Q582 476 555.50 513Q529 550 483 572Q437 594 378 594M296 775L220 816Q263 922 349 902Q361 899 392 883.50Q423 868 441 870.50Q459 873 473 901L553 863Q532 808 498.50 786.50Q465 765 427 775Q415 778 398.50 787Q382 796 370.50 802Q359 808 345.50 810.50Q332 813 319.50 804.50Q307 796 296 775Z"  horiz-adv-x="785" vert-adv-y="1000"  />

      
      <glyph glyph-name="unid6" unicode="&#xd6;" d="M192 838Q192 882 227 900Q262 918 297 900Q332 882 332 838Q332 795 297 777Q262 759 227 777Q192 795 192 838M438 838Q438 882 473 900Q508 918 543 900Q578 882 578 838Q578 795 543 777Q508 759 473 777Q438 795 438 838M378 714Q291 714 220.50 682.50Q150 651 107 598.50Q64 546 41 481Q18 416 18 345Q18 274 40 210.50Q62 147 105 95.50Q148 44 218.50 14Q289-16 378-16Q467-16 537 15Q607 46 649.50 97.50Q692 149 714 212.50Q736 276 737 346Q738 441 699.50 523Q661 605 577 659.50Q493 714 378 714M378 594Q437 594 483 572Q529 550 555.50 513Q582 476 595 433Q608 390 607 344Q605 246 548.50 175.50Q492 105 378 105Q264 105 207.50 175Q151 245 148 343Q146 406 168.50 461Q191 516 245.50 555Q300 594 378 594Z"  horiz-adv-x="785" vert-adv-y="1000"  />

      
      <glyph glyph-name="unid7" unicode="&#xd7;" d="M125 491L218 394L315 493L391 417L291 314L394 212L318 139L217 241L121 142L42 221L140 317L44 413L125 491Z"  horiz-adv-x="445" vert-adv-y="1000"  />

      
      <glyph glyph-name="unid8" unicode="&#xd8;" d="M378 714Q448 714 514 691L559 766L687 766L609 636Q672 584 705 507Q738 430 737 346Q736 276 714 212.50Q692 149 649.50 97.50Q607 46 537 15Q467-16 378-16Q298-16 232 9L183-72L56-72L138 64Q79 114 48.50 188Q18 262 18 345Q18 416 41 481Q64 546 107 598.50Q150 651 220.50 682.50Q291 714 378 714M378 105Q492 105 548.50 175.50Q605 246 607 344Q609 455 543 527L296 116Q334 105 378 105M378 594Q300 594 245.50 555Q191 516 168.50 461Q146 406 148 343Q150 242 205 177L450 584Q413 594 378 594Z"  horiz-adv-x="785" vert-adv-y="1000"  />

      
      <glyph glyph-name="unid9" unicode="&#xd9;" d="M532 699L663 699L663 298Q663 147 580 66Q497-15 360-15Q226-15 137.50 66Q49 147 49 298L49 699L180 699L180 298Q180 205 229 155Q278 105 361 105Q442 105 487 156Q532 207 532 298L532 699M217 917L217 922L361 922L435 786L435 780L327 780L217 917Z"  horiz-adv-x="743" vert-adv-y="1000"  />

      
      <glyph glyph-name="unida" unicode="&#xda;" d="M663 699L532 699L532 298Q532 207 487 156Q442 105 361 105Q278 105 229 155Q180 205 180 298L180 699L49 699L49 298Q49 147 137.50 66Q226-15 360-15Q497-15 580 66Q663 147 663 298L663 699M515 921L515 916L405 779L297 779L297 785L371 921L515 921Z"  horiz-adv-x="743" vert-adv-y="1000"  />

      
      <glyph glyph-name="unidb" unicode="&#xdb;" d="M532 699L663 699L663 298Q663 147 580 66Q497-15 360-15Q226-15 137.50 66Q49 147 49 298L49 699L180 699L180 298Q180 205 229 155Q278 105 361 105Q442 105 487 156Q532 207 532 298L532 699M178 783L326 921L393 921L541 783L541 777L417 777L359 836L302 777L178 777L178 783Z"  horiz-adv-x="743" vert-adv-y="1000"  />

      
      <glyph glyph-name="unidc" unicode="&#xdc;" d="M663 699L532 699L532 298Q532 207 487 156Q442 105 361 105Q278 105 229 155Q180 205 180 298L180 699L49 699L49 298Q49 147 137.50 66Q226-15 360-15Q497-15 580 66Q663 147 663 298L663 699M172 835Q172 879 207 897Q242 915 277 897Q312 879 312 835Q312 792 277 774Q242 756 207 774Q172 792 172 835M421 835Q421 879 456 897Q491 915 526 897Q561 879 561 835Q561 792 526 774Q491 756 456 774Q421 792 421 835Z"  horiz-adv-x="743" vert-adv-y="1000"  />

      
      <glyph glyph-name="unidd" unicode="&#xdd;" d="M344 411L166 700L9 700L9 694L278 289L278 0L410 0L410 289L689 694L689 700L530 700L344 411M500 913L500 908L390 771L282 771L282 777L356 913L500 913Z"  horiz-adv-x="719" vert-adv-y="1000"  />

      
      <glyph glyph-name="unide" unicode="&#xde;" d="M49 0L50 699L180 699L180 585L379 585Q461 585 521 550.50Q581 516 608 463.50Q635 411 635 350.50Q635 290 608 237.50Q581 185 521 150.50Q461 116 379 116L181 116L181 0L49 0M181 464L181 234L379 234Q439 234 473 270Q507 306 506.50 349Q506 392 472.50 428Q439 464 379 464L181 464Z"  horiz-adv-x="676" vert-adv-y="1000"  />

      
      <glyph glyph-name="unidf" unicode="&#xdf;" d="M251 2L250 113Q351 87 404 118.50Q457 150 457 210Q457 267 409 300Q361 333 299 333L252 333L252 449L296 449Q339 449 373 464.50Q407 480 408 515Q410 557 378 577.50Q346 598 302 598Q254 598 223.50 576Q193 554 192 515L192 280Q192 240 192.50 139Q193 38 193 0L62 0L62 514Q62 606 134 658.50Q206 711 300 711Q399 711 468 660Q537 609 537 515Q537 472 508.50 437.50Q480 403 431 392Q511 374 549 322Q587 270 587 214Q587 80 489.50 24Q392-32 251 2Z"  horiz-adv-x="630" vert-adv-y="1000"  />

      
      <glyph glyph-name="unie0" unicode="&#xe0;" d="M427 425L431 493L548 493L548 0L433 0L427 72Q407 32 360 9Q313-14 267-15Q154-16 83.50 52.50Q13 121 13 247Q13 370 85.50 438Q158 506 270 505Q320 505 363 483Q406 461 427 425M281 396Q218 396 176.50 356Q135 316 135 247Q135 178 176.50 137.50Q218 97 281 97Q336 97 373.50 128Q411 159 419.50 202.50Q428 246 419.50 290Q411 334 373.50 365Q336 396 281 396M140 704L140 709L284 709L358 573L358 567L250 567L140 704Z"  horiz-adv-x="611" vert-adv-y="1000"  />

      
      <glyph glyph-name="unie1" unicode="&#xe1;" d="M427 425Q406 461 363 483Q320 505 270 505Q158 506 85.50 438Q13 370 13 247Q13 121 83.50 52.50Q154-16 267-15Q313-14 360 9Q407 32 427 72L433 0L548 0L548 493L431 493L427 425M281 396Q336 396 373.50 365Q411 334 419.50 290Q428 246 419.50 202.50Q411 159 373.50 128Q336 97 281 97Q218 97 176.50 137.50Q135 178 135 247Q135 316 176.50 356Q218 396 281 396M420 710L420 705L310 568L202 568L202 574L276 710L420 710Z"  horiz-adv-x="611" vert-adv-y="1000"  />

      
      <glyph glyph-name="unie2" unicode="&#xe2;" d="M427 425L431 493L548 493L548 0L433 0L427 72Q407 32 360 9Q313-14 267-15Q154-16 83.50 52.50Q13 121 13 247Q13 370 85.50 438Q158 506 270 505Q320 505 363 483Q406 461 427 425M281 396Q218 396 176.50 356Q135 316 135 247Q135 178 176.50 137.50Q218 97 281 97Q336 97 373.50 128Q411 159 419.50 202.50Q428 246 419.50 290Q411 334 373.50 365Q336 396 281 396M119 575L267 713L334 713L482 575L482 569L358 569L300 628L243 569L119 569L119 575Z"  horiz-adv-x="611" vert-adv-y="1000"  />

      
      <glyph glyph-name="unie3" unicode="&#xe3;" d="M427 425L431 493L548 493L548 0L433 0L427 72Q407 32 360 9Q313-14 267-15Q154-16 83.50 52.50Q13 121 13 247Q13 370 85.50 438Q158 506 270 505Q320 505 363 483Q406 461 427 425M281 396Q218 396 176.50 356Q135 316 135 247Q135 178 176.50 137.50Q218 97 281 97Q336 97 373.50 128Q411 159 419.50 202.50Q428 246 419.50 290Q411 334 373.50 365Q336 396 281 396M210 585L134 626Q177 732 263 712Q275 709 306 693.50Q337 678 355 680.50Q373 683 387 711L467 673Q446 618 412.50 596.50Q379 575 341 585Q329 588 312.50 597Q296 606 284.50 612Q273 618 259.50 620.50Q246 623 233.50 614.50Q221 606 210 585Z"  horiz-adv-x="611" vert-adv-y="1000"  />

      
      <glyph glyph-name="unie4" unicode="&#xe4;" d="M427 425Q406 461 363 483Q320 505 270 505Q158 506 85.50 438Q13 370 13 247Q13 121 83.50 52.50Q154-16 267-15Q313-14 360 9Q407 32 427 72L433 0L548 0L548 493L431 493L427 425M281 396Q336 396 373.50 365Q411 334 419.50 290Q428 246 419.50 202.50Q411 159 373.50 128Q336 97 281 97Q218 97 176.50 137.50Q135 178 135 247Q135 316 176.50 356Q218 396 281 396M110 655Q110 699 145 717Q180 735 215 717Q250 699 250 655Q250 612 215 594Q180 576 145 594Q110 612 110 655M359 655Q359 699 394 717Q429 735 464 717Q499 699 499 655Q499 612 464 594Q429 576 394 594Q359 612 359 655Z"  horiz-adv-x="611" vert-adv-y="1000"  />

      
      <glyph glyph-name="unie5" unicode="&#xe5;" d="M427 425L431 493L548 493L548 0L433 0L427 72Q407 32 360 9Q313-14 267-15Q154-16 83.50 52.50Q13 121 13 247Q13 370 85.50 438Q158 506 270 505Q320 505 363 483Q406 461 427 425M281 396Q218 396 176.50 356Q135 316 135 247Q135 178 176.50 137.50Q218 97 281 97Q336 97 373.50 128Q411 159 419.50 202.50Q428 246 419.50 290Q411 334 373.50 365Q336 396 281 396M199.50 590Q199.50 590 180.25 605.50Q161 621 161 675Q161 729 199.50 760Q238 791 289 791Q340 791 378 760.50Q416 730 416 675Q416 620 378 589.50Q340 559 289 559Q238 559 199.50 590M287 725Q252 725 238 700.50Q224 676 238 651.50Q252 627 287 627Q314 627 329 642.50Q344 658 343.50 676Q343 694 328 709.50Q313 725 287 725Z"  horiz-adv-x="611" vert-adv-y="1000"  />

      
      <glyph glyph-name="unie6" unicode="&#xe6;" d="M919 203L534 203Q540 156 579 127Q618 98 681 98Q717 98 755 110.50Q793 123 813 144L891 67Q854 28 796 7.50Q738-13 679-13Q567-13 517 64L512 0L422 0L421 72Q401 32 354 9Q307-14 261-15Q148-16 77.50 52.50Q7 121 7 247Q7 370 79.50 438Q152 506 264 505Q314 505 357 483Q400 461 421 425L425 493L517 493L517 431Q576 509 688 507Q739 506 786.50 484Q834 462 869 424Q904 386 918.50 328Q933 270 919 203M275 396Q212 396 170.50 356Q129 316 129 247Q129 178 170.50 137.50Q212 97 275 97Q323 97 358 119Q393 141 409 174.50Q425 208 425 246.50Q425 285 409 318.50Q393 352 358 374Q323 396 275 396M536 304L802 304Q796 351 762 375.50Q728 400 674 400Q623 400 586 375.50Q549 351 536 304Z"  horiz-adv-x="977" vert-adv-y="1000"  />

      
      <glyph glyph-name="unie7" unicode="&#xe7;" d="M109-191L162-147Q184-176 228-178Q272-180 281-151Q289-123 257-110Q225-97 196-117L167-95L198-6Q113 14 62 78Q11 142 11 246Q11 372 85.50 439.50Q160 507 273 507Q377 507 451 434L374 353Q331 392 275 392Q213 392 173 351Q133 310 133 246Q133 178 173 140Q213 102 273 102Q340 102 381 143L463 63Q387-12 283-15L271-53Q334-55 358-88.50Q382-122 374-165Q365-205 330.50-229Q296-253 255-256.50Q214-260 172.50-243Q131-226 109-191Z"  horiz-adv-x="477" vert-adv-y="1000"  />

      
      <glyph glyph-name="unie8" unicode="&#xe8;" d="M529 203L144 203Q150 156 189 127Q228 98 291 98Q327 98 365 110.50Q403 123 423 144L501 67Q464 28 406 7.50Q348-13 289-13Q163-13 90.50 58.50Q18 130 18 250Q18 364 89.50 436Q161 508 280 508Q407 508 475 429.50Q543 351 529 203M146 304L412 304Q406 351 372 375.50Q338 400 284 400Q233 400 196 375.50Q159 351 146 304M133 708L133 713L277 713L351 577L351 571L243 571L133 708Z"  horiz-adv-x="583" vert-adv-y="1000"  />

      
      <glyph glyph-name="unie9" unicode="&#xe9;" d="M529 203Q543 351 475 429.50Q407 508 280 508Q161 508 89.50 436Q18 364 18 250Q18 130 90.50 58.50Q163-13 289-13Q348-13 406 7.50Q464 28 501 67L423 144Q403 123 365 110.50Q327 98 291 98Q228 98 189 127Q150 156 144 203L529 203M146 304Q159 351 196 375.50Q233 400 284 400Q338 400 372 375.50Q406 351 412 304L146 304M424 715L424 710L314 573L206 573L206 579L280 715L424 715Z"  horiz-adv-x="583" vert-adv-y="1000"  />

      
      <glyph glyph-name="uniea" unicode="&#xea;" d="M529 203L144 203Q150 156 189 127Q228 98 291 98Q327 98 365 110.50Q403 123 423 144L501 67Q464 28 406 7.50Q348-13 289-13Q163-13 90.50 58.50Q18 130 18 250Q18 364 89.50 436Q161 508 280 508Q407 508 475 429.50Q543 351 529 203M146 304L412 304Q406 351 372 375.50Q338 400 284 400Q233 400 196 375.50Q159 351 146 304M105 575L253 713L320 713L468 575L468 569L344 569L286 628L229 569L105 569L105 575Z"  horiz-adv-x="583" vert-adv-y="1000"  />

      
      <glyph glyph-name="unieb" unicode="&#xeb;" d="M112 641Q112 685 147 703Q182 721 217 703Q252 685 252 641Q252 598 217 580Q182 562 147 580Q112 598 112 641M325 641Q325 685 360 703Q395 721 430 703Q465 685 465 641Q465 598 430 580Q395 562 360 580Q325 598 325 641M529 203Q543 351 475 429.50Q407 508 280 508Q161 508 89.50 436Q18 364 18 250Q18 130 90.50 58.50Q163-13 289-13Q348-13 406 7.50Q464 28 501 67L423 144Q403 123 365 110.50Q327 98 291 98Q228 98 189 127Q150 156 144 203L529 203M146 304Q159 351 196 375.50Q233 400 284 400Q338 400 372 375.50Q406 351 412 304L146 304Z"  horiz-adv-x="583" vert-adv-y="1000"  />

      
      <glyph glyph-name="uniec" unicode="&#xec;" d="M-4 693L-4 698L127 698L169 556L169 550L70 550L-4 693M168 0L40 0L40 476L168 476L168 0Z"  horiz-adv-x="238" vert-adv-y="1000"  />

      
      <glyph glyph-name="unied" unicode="&#xed;" d="M216 698L216 693L142 550L43 550L43 556L85 698L216 698M40 0L168 0L168 476L40 476L40 0Z"  horiz-adv-x="238" vert-adv-y="1000"  />

      
      <glyph glyph-name="uniee" unicode="&#xee;" d="M168 0L40 0L40 476L168 476L168 0M-49 558L81 704L139 704L269 558L269 552L160 552L110 614L60 552L-49 552L-49 558Z"  horiz-adv-x="238" vert-adv-y="1000"  />

      
      <glyph glyph-name="unief" unicode="&#xef;" d="M-50 639Q-50 683-15 701Q20 719 55 701Q90 683 90 639Q90 596 55 578Q20 560-15 578Q-50 596-50 639M135 639Q135 683 170 701Q205 719 240 701Q275 683 275 639Q275 596 240 578Q205 560 170 578Q135 596 135 639M40 0L168 0L168 476L40 476L40 0Z"  horiz-adv-x="238" vert-adv-y="1000"  />

      
      <glyph glyph-name="unif0" unicode="&#xf0;" d="M230 478Q272 484 316.50 475.50Q361 467 384 447Q372 479 337.50 509Q303 539 284 544L253 509L194 548L220 579Q193 595 138 602L160 701Q234 691 292 665L335 716L395 673L358 630Q459 551 500 460Q541 369 541 251Q541 134 473 62.50Q405-9 287-9Q166-9 99 64Q32 137 32 238Q32 325 83.50 393Q135 461 230 478M191.50 141Q191.50 141 208.75 120.50Q226 100 287 100Q348 100 382 141Q416 182 416 239Q416 295 382 336Q348 377 287 377Q226 377 191.50 336Q157 295 157 239Q157 182 191.50 141Z"  horiz-adv-x="588" vert-adv-y="1000"  />

      
      <glyph glyph-name="unif1" unicode="&#xf1;" d="M525 0L403 0L403 258Q403 316 372 353Q341 390 284 390Q229 390 193.50 350Q158 310 158 252L158 0L37 0L37 494L146 494L154 427Q230 501 316 501Q406 501 465.50 436.50Q525 372 525 259L525 0M187 588L111 629Q154 735 240 715Q252 712 283 696.50Q314 681 332 683.50Q350 686 364 714L444 676Q423 621 389.50 599.50Q356 578 318 588Q306 591 289.50 600Q273 609 261.50 615Q250 621 236.50 623.50Q223 626 210.50 617.50Q198 609 187 588Z"  horiz-adv-x="601" vert-adv-y="1000"  />

      
      <glyph glyph-name="unif2" unicode="&#xf2;" d="M87 429Q87 429 122 466Q157 503 272 503Q387 503 458.50 429Q530 355 530 246Q530 136 460 62.50Q390-11 273-11Q156-11 86.50 62.50Q17 136 17 246Q17 355 87 429M273 392Q210 392 174.50 349Q139 306 139 246Q139 186 174.50 143.50Q210 101 273 101Q336 101 371.50 143.50Q407 186 407 246Q407 304 369.50 348Q332 392 273 392M129 701L129 706L273 706L347 570L347 564L239 564L129 701Z"  horiz-adv-x="574" vert-adv-y="1000"  />

      
      <glyph glyph-name="unif3" unicode="&#xf3;" d="M458.50 429Q458.50 429 422.75 466Q387 503 272 503Q157 503 87 429Q17 355 17 246Q17 136 86.50 62.50Q156-11 273-11Q390-11 460 62.50Q530 136 530 246Q530 355 458.50 429M273 392Q332 392 369.50 348Q407 304 407 246Q407 186 371.50 143.50Q336 101 273 101Q210 101 174.50 143.50Q139 186 139 246Q139 306 174.50 349Q210 392 273 392M430 704L430 699L320 562L212 562L212 568L286 704L430 704Z"  horiz-adv-x="574" vert-adv-y="1000"  />

      
      <glyph glyph-name="unif4" unicode="&#xf4;" d="M87 429Q87 429 122 466Q157 503 272 503Q387 503 458.50 429Q530 355 530 246Q530 136 460 62.50Q390-11 273-11Q156-11 86.50 62.50Q17 136 17 246Q17 355 87 429M273 392Q210 392 174.50 349Q139 306 139 246Q139 186 174.50 143.50Q210 101 273 101Q336 101 371.50 143.50Q407 186 407 246Q407 304 369.50 348Q332 392 273 392M91 565L239 703L306 703L454 565L454 559L330 559L272 618L215 559L91 559L91 565Z"  horiz-adv-x="574" vert-adv-y="1000"  />

      
      <glyph glyph-name="unif5" unicode="&#xf5;" d="M87 429Q87 429 122 466Q157 503 272 503Q387 503 458.50 429Q530 355 530 246Q530 136 460 62.50Q390-11 273-11Q156-11 86.50 62.50Q17 136 17 246Q17 355 87 429M273 392Q210 392 174.50 349Q139 306 139 246Q139 186 174.50 143.50Q210 101 273 101Q336 101 371.50 143.50Q407 186 407 246Q407 304 369.50 348Q332 392 273 392M185 581L109 622Q152 728 238 708Q250 705 281 689.50Q312 674 330 676.50Q348 679 362 707L442 669Q421 614 387.50 592.50Q354 571 316 581Q304 584 287.50 593Q271 602 259.50 608Q248 614 234.50 616.50Q221 619 208.50 610.50Q196 602 185 581Z"  horiz-adv-x="574" vert-adv-y="1000"  />

      
      <glyph glyph-name="unif6" unicode="&#xf6;" d="M100 648Q100 692 135 710Q170 728 205 710Q240 692 240 648Q240 605 205 587Q170 569 135 587Q100 605 100 648M306 648Q306 692 341 710Q376 728 411 710Q446 692 446 648Q446 605 411 587Q376 569 341 587Q306 605 306 648M458.50 429Q458.50 429 422.75 466Q387 503 272 503Q157 503 87 429Q17 355 17 246Q17 136 86.50 62.50Q156-11 273-11Q390-11 460 62.50Q530 136 530 246Q530 355 458.50 429M273 392Q332 392 369.50 348Q407 304 407 246Q407 186 371.50 143.50Q336 101 273 101Q210 101 174.50 143.50Q139 186 139 246Q139 306 174.50 349Q210 392 273 392Z"  horiz-adv-x="574" vert-adv-y="1000"  />

      
      <glyph glyph-name="unif7" unicode="&#xf7;" d="M19 384L19 266L466 266L466 384L19 384M173 137Q173 181 208 199Q243 217 278 199Q313 181 313 137Q313 94 278 76Q243 58 208 76Q173 94 173 137M173 509Q173 553 208 571Q243 589 278 571Q313 553 313 509Q313 466 278 448Q243 430 208 448Q173 466 173 509Z"  horiz-adv-x="518" vert-adv-y="1000"  />

      
      <glyph glyph-name="unif8" unicode="&#xf8;" d="M272 503Q318 503 360 489L397 552L512 552L446 440Q530 367 530 246Q530 136 460 62.50Q390-11 273-11Q232-11 187 1L148-65L33-65L100 49Q17 121 17 246Q17 355 87 429Q157 503 272 503M273 392Q210 392 174.50 349Q139 306 139 246Q139 194 164 157L301 389Q288 392 273 392M273 101Q336 101 371.50 143.50Q407 186 407 246Q407 292 382 331L247 103Q255 101 273 101Z"  horiz-adv-x="574" vert-adv-y="1000"  />

      
      <glyph glyph-name="unif9" unicode="&#xf9;" d="M43 493L165 493L165 235Q165 177 196 140Q227 103 284 103Q339 103 374.50 143Q410 183 410 241L410 493L531 493L531-1L422-1L414 66Q339-8 247-8Q156-8 99.50 57Q43 122 43 234L43 493M140 695L140 700L284 700L358 564L358 558L250 558L140 695Z"  horiz-adv-x="602" vert-adv-y="1000"  />

      
      <glyph glyph-name="unifa" unicode="&#xfa;" d="M165 493L43 493L43 234Q43 122 99.50 57Q156-8 247-8Q339-8 414 66L422-1L531-1L531 493L410 493L410 241Q410 183 374.50 143Q339 103 284 103Q227 103 196 140Q165 177 165 235L165 493M444 700L444 695L334 558L226 558L226 564L300 700L444 700Z"  horiz-adv-x="602" vert-adv-y="1000"  />

      
      <glyph glyph-name="unifb" unicode="&#xfb;" d="M43 493L165 493L165 235Q165 177 196 140Q227 103 284 103Q339 103 374.50 143Q410 183 410 241L410 493L531 493L531-1L422-1L414 66Q339-8 247-8Q156-8 99.50 57Q43 122 43 234L43 493M115 566L263 704L330 704L478 566L478 560L354 560L296 619L239 560L115 560L115 566Z"  horiz-adv-x="602" vert-adv-y="1000"  />

      
      <glyph glyph-name="unifc" unicode="&#xfc;" d="M165 493L43 493L43 234Q43 122 99.50 57Q156-8 247-8Q339-8 414 66L422-1L531-1L531 493L410 493L410 241Q410 183 374.50 143Q339 103 284 103Q227 103 196 140Q165 177 165 235L165 493M97 645Q97 689 132 707Q167 725 202 707Q237 689 237 645Q237 602 202 584Q167 566 132 584Q97 602 97 645M346 645Q346 689 381 707Q416 725 451 707Q486 689 486 645Q486 602 451 584Q416 566 381 584Q346 602 346 645Z"  horiz-adv-x="602" vert-adv-y="1000"  />

      
      <glyph glyph-name="unifd" unicode="&#xfd;" d="M537 493L402 493L312 277L261 141L214 280L139 493L-3 493L194 8L102-206L236-206L537 493M406 701L406 696L296 559L188 559L188 565L262 701L406 701Z"  horiz-adv-x="561" vert-adv-y="1000"  />

      
      <glyph glyph-name="unife" unicode="&#xfe;" d="M313 106Q373 106 413 143.50Q453 181 453 246Q453 311 413 348.50Q373 386 313 386Q255 386 214 345Q173 304 173 246Q173 188 214 147Q255 106 313 106M162-206L40-206L40 700L162 700L162 426Q185 463 231.50 483.50Q278 504 323 504Q435 504 505 437Q575 370 575 246Q575 122 506 55Q437-12 325-12Q280-12 234.50 7Q189 26 162 67L162-206Z"  horiz-adv-x="624" vert-adv-y="1000"  />

      
      <glyph glyph-name="uniff" unicode="&#xff;" d="M537 493L402 493L312 277L261 141L214 280L139 493L-3 493L194 8L102-206L236-206L537 493M84 637Q84 681 119 699Q154 717 189 699Q224 681 224 637Q224 594 189 576Q154 558 119 576Q84 594 84 637M333 637Q333 681 368 699Q403 717 438 699Q473 681 473 637Q473 594 438 576Q403 558 368 576Q333 594 333 637Z"  horiz-adv-x="561" vert-adv-y="1000"  />

      
      <glyph glyph-name="uni0131" unicode="&#x0131;" d="M168 0L40 0L40 476L168 476L168 0Z"  horiz-adv-x="238" vert-adv-y="1000"  />

      
      <glyph glyph-name="uni0141" unicode="&#x0141;" d="M196 413L302 465L302 364L196 313L196 122L556 122L556 0L64 0L64 249L-14 211L-14 310L64 348L64 700L196 700L196 413Z"  horiz-adv-x="593" vert-adv-y="1000"  />

      
      <glyph glyph-name="uni0142" unicode="&#x0142;" d="M232 441L232 351L161 316L161 0L40 0L40 257L-24 226L-24 317L40 348L40 699L161 699L161 406L232 441Z"  horiz-adv-x="228" vert-adv-y="1000"  />

      
      <glyph glyph-name="uni0152" unicode="&#x0152;" d="M974 132L974 1L517 1Q461-15 402-15Q228-15 136.50 88Q45 191 45 354Q45 515 137 614.50Q229 714 402 714Q461 714 517 698L517 700L974 700L974 569L639 569L639 413L960 413L960 288L639 288L639 132L974 132M403 603Q293 603 235 532.50Q177 462 177 351Q177 247 237 172Q297 97 406 97Q473 97 517 117L517 581Q470 603 403 603Z"  horiz-adv-x="1034" vert-adv-y="1000"  />

      
      <glyph glyph-name="uni0153" unicode="&#x0153;" d="M904 203L522 203Q528 156 565.50 127Q603 98 666 98Q702 98 740 110.50Q778 123 798 144L876 67Q839 28 781 7.50Q723-13 664-13Q521-13 461 88Q393-11 275-11Q158-11 88.50 62.50Q19 136 19 246Q19 355 89 429.50Q159 504 274 504Q335 504 387 478Q439 452 467 405Q490 450 540.50 478Q591 506 655 506Q783 506 850.50 428.50Q918 351 904 203M275 392Q212 392 176.50 349Q141 306 141 246Q141 186 176.50 143.50Q212 101 275 101Q338 101 373.50 143.50Q409 186 409 246Q409 304 371.50 348Q334 392 275 392M521 304L787 304Q781 351 747 375.50Q713 400 659 400Q608 400 571 375.50Q534 351 521 304Z"  horiz-adv-x="949" vert-adv-y="1000"  />

      
      <glyph glyph-name="uni0160" unicode="&#x0160;" d="M586 585L481 531Q462 563 416 586Q370 609 315 609Q244 609 207 583Q170 557 170 516Q170 487 193 468.50Q216 450 247 442Q278 434 326 428Q375 422 412 414Q449 406 488 389.50Q527 373 551.50 350.50Q576 328 592 290.50Q608 253 608 205Q608 130 566 78.50Q524 27 459.50 4.50Q395-18 314-18Q79-18 9 154L119 211Q141 156 194.50 128Q248 100 316 100Q385 100 431 126Q477 152 477 205Q477 291 315 308Q254 315 210.50 326.50Q167 338 125 361Q83 384 61.50 424Q40 464 40 520Q40 588 82 636Q124 684 183 703.50Q242 723 311 724Q518 724 586 585M288 774L140 912L140 918L264 918L323 857L387 918L507 918L507 912L355 774L288 774Z"  horiz-adv-x="661" vert-adv-y="1000"  />

      
      <glyph glyph-name="uni0161" unicode="&#x0161;" d="M430 442L362 362Q315 406 240 406Q150 406 150 357Q150 309 242 303Q275 301 300.50 297Q326 293 356 282.50Q386 272 406 255.50Q426 239 439.50 211Q453 183 453 145Q453 76 397.50 29.50Q342-17 241-17Q173-17 118 1Q63 19 13 71L73 158Q98 130 149 110Q200 90 243 89Q279 88 305.50 105Q332 122 332 148Q332 173 309.50 185Q287 197 234 200Q195 203 162 211.50Q129 220 97.50 236.50Q66 253 48 283Q30 313 30 353Q30 394 49.50 425Q69 456 100.50 473Q132 490 167 498.50Q202 507 238 507Q356 507 430 442M206 556L58 694L58 700L182 700L241 639L305 700L425 700L425 694L273 556L206 556Z"  horiz-adv-x="491" vert-adv-y="1000"  />

      
      <glyph glyph-name="uni0178" unicode="&#x0178;" d="M344 411L166 700L9 700L9 694L278 289L278 0L410 0L410 289L689 694L689 700L530 700L344 411M150 835Q150 879 185 897Q220 915 255 897Q290 879 290 835Q290 792 255 774Q220 756 185 774Q150 792 150 835M399 835Q399 879 434 897Q469 915 504 897Q539 879 539 835Q539 792 504 774Q469 756 434 774Q399 792 399 835Z"  horiz-adv-x="698" vert-adv-y="1000"  />

      
      <glyph glyph-name="uni017D" unicode="&#x017D;" d="M2 576L2 700L540 700L540 638L177 125L540 125L540 0L-7 0L-7 76L348 576L2 576M253 764L105 902L105 908L229 908L288 847L352 908L472 908L472 902L320 764L253 764Z"  horiz-adv-x="567" vert-adv-y="1000"  />

      
      <glyph glyph-name="uni017E" unicode="&#x017E;" d="M27 493L422 493L422 435L195 120L424 120L424 0L9 0L9 51L245 382L27 382L27 493M196 554L48 692L48 698L172 698L231 637L295 698L415 698L415 692L263 554L196 554Z"  horiz-adv-x="470" vert-adv-y="1000"  />

      
      <glyph glyph-name="uni0192" unicode="&#x0192;" d="M116-2L116 379L24 379L24 486L116 486L116 519Q116 613 170 662.50Q224 712 304 712Q370 712 432 672L387 581Q347 607 312 607Q279 607 258.50 584.50Q238 562 238 519L238 486L383 486L383 379L238 379L238-2Q238-96 184-145.50Q130-195 50-195Q-8-195-63-159L-18-68Q16-90 42-90Q75-90 95.50-67.50Q116-45 116-2Z"  horiz-adv-x="441" vert-adv-y="1000"  />

      
      <glyph glyph-name="uni02C6" unicode="&#x02C6;" d="M22 577L170 715L237 715L385 577L385 571L261 571L203 630L146 571L22 571L22 577Z"  horiz-adv-x="425" vert-adv-y="1000"  />

      
      <glyph glyph-name="uni02C7" unicode="&#x02C7;" d="M164 556L16 694L16 700L140 700L199 639L263 700L383 700L383 694L231 556L164 556Z"  horiz-adv-x="405" vert-adv-y="1000"  />

      
      <glyph glyph-name="uni02D8" unicode="&#x02D8;" d="M231 699L329 699Q337 606 257.50 567.50Q178 529 98 568Q18 607 26 699L125 699Q125 664 151.50 649.50Q178 635 204.50 649.50Q231 664 231 699Z"  horiz-adv-x="369" vert-adv-y="1000"  />

      
      <glyph glyph-name="uni02D9" unicode="&#x02D9;" d="M33.50 587Q33.50 587 22.25 596.50Q11 606 11 640Q11 674 33.50 693Q56 712 83 712Q110 712 132.50 693Q155 674 155 640Q155 606 132.50 587Q110 568 83 568Q56 568 33.50 587Z"  horiz-adv-x="198" vert-adv-y="1000"  />

      
      <glyph glyph-name="uni02DA" unicode="&#x02DA;" d="M54.50 504.50Q54.50 504.50 34.75 520.25Q15 536 15 593Q15 650 54.50 682Q94 714 148 714Q201 714 240.50 682Q280 650 280 593Q280 536 240.50 504.50Q201 473 148 473Q94 473 54.50 504.50M197 619.50Q197 619.50 189.50 632.25Q182 645 146 645Q110 645 95 619.50Q80 594 95 568.50Q110 543 146 543Q183 543 197.50 568.50Q212 594 197 619.50Z"  horiz-adv-x="314" vert-adv-y="1000"  />

      
      <glyph glyph-name="uni02DB" unicode="&#x02DB;" d="M245-144L307-191Q286-225 246-240.50Q206-256 166.50-252Q127-248 92.50-225.50Q58-203 48-167Q43-151 44.50-131.50Q46-112 55.50-89Q65-66 86.50-50Q108-34 144.50-26Q181-18 236-27L251-79Q216-70 172-86.50Q128-103 139-140Q146-162 178-166.50Q210-171 245-144Z"  horiz-adv-x="377" vert-adv-y="1000"  />

      
      <glyph glyph-name="uni02DC" unicode="&#x02DC;" d="M104 643L28 684Q71 790 157 770Q169 767 200 751.50Q231 736 249 738.50Q267 741 281 769L361 731Q340 676 306.50 654.50Q273 633 235 643Q223 646 206.50 655Q190 664 178.50 670Q167 676 153.50 678.50Q140 681 127.50 672.50Q115 664 104 643Z"  horiz-adv-x="397" vert-adv-y="1000"  />

      
      <glyph glyph-name="uni02DD" unicode="&#x02DD;" d="M410 701L410 697L292 560L192 560L281 701L410 701M229 702L229 698L114 561L12 561L100 702L229 702Z"  horiz-adv-x="435" vert-adv-y="1000"  />

      
      <glyph glyph-name="uni2013" unicode="&#x2013;" d="M21 241L21 349L494 349L494 241L21 241Z"  horiz-adv-x="545" vert-adv-y="1000"  />

      
      <glyph glyph-name="uni2014" unicode="&#x2014;" d="M14 241L14 349L583 349L583 241L14 241Z"  horiz-adv-x="623" vert-adv-y="1000"  />

      
      <glyph glyph-name="uni2018" unicode="&#x2018;" d="M188 701L140 476L14 476L92 701L188 701Z"  horiz-adv-x="213" vert-adv-y="1000"  />

      
      <glyph glyph-name="uni2019" unicode="&#x2019;" d="M-2 475L46 700L172 700L94 475L-2 475Z"  horiz-adv-x="202" vert-adv-y="1000"  />

      
      <glyph glyph-name="uni201A" unicode="&#x201A;" d="M167 52Q167 40 122-98L53-98L72 1Q25 9 25 55Q25 98 60.50 115Q96 132 131.50 113.50Q167 95 167 52Z"  horiz-adv-x="250" vert-adv-y="1000"  />

      
      <glyph glyph-name="uni201C" unicode="&#x201C;" d="M349 699L301 474L175 474L253 699L349 699M180 699L132 474L6 474L84 699L180 699Z"  horiz-adv-x="378" vert-adv-y="1000"  />

      
      <glyph glyph-name="uni201D" unicode="&#x201D;" d="M-2 475L46 700L172 700L94 475L-2 475M167 475L215 700L341 700L263 475L167 475Z"  horiz-adv-x="362" vert-adv-y="1000"  />

      
      <glyph glyph-name="uni201E" unicode="&#x201E;" d="M167 52Q167 40 122-98L53-98L72 1Q25 9 25 55Q25 98 60.50 115Q96 132 131.50 113.50Q167 95 167 52M356 52Q356 40 311-98L242-98L261 1Q214 9 214 55Q214 98 249.50 115Q285 132 320.50 113.50Q356 95 356 52Z"  horiz-adv-x="403" vert-adv-y="1000"  />

      
      <glyph glyph-name="uni2020" unicode="&#x2020;" d="M351 699L351 512L546 512L546 402L351 402L351-116L217-116L217 402L22 402L22 512L217 512L217 699L351 699Z"  horiz-adv-x="593" vert-adv-y="1000"  />

      
      <glyph glyph-name="uni2021" unicode="&#x2021;" d="M373 699L373 514L569 514L569 404L373 404L373 183L569 183L569 74L373 74L373-125L241-125L241 74L45 74L45 183L241 183L241 404L45 404L45 514L241 514L241 699L373 699Z"  horiz-adv-x="652" vert-adv-y="1000"  />

      
      <glyph glyph-name="uni2022" unicode="&#x2022;" d="M165 198Q109 198 72 233Q35 268 35 324Q35 380 72 415.50Q109 451 165 451Q220 451 256.50 415.50Q293 380 293 324Q293 268 256.50 233Q220 198 165 198Z"  horiz-adv-x="356" vert-adv-y="1000"  />

      
      <glyph glyph-name="uni2026" unicode="&#x2026;" d="M59.50 10Q59.50 10 48.25 19.50Q37 29 37 63Q37 97 59.50 116Q82 135 109 135Q136 135 158.50 116Q181 97 181 63Q181 29 158.50 10Q136-9 109-9Q82-9 59.50 10M287.50 10Q287.50 10 276.25 19.50Q265 29 265 63Q265 97 287.50 116Q310 135 337 135Q364 135 386.50 116Q409 97 409 63Q409 29 386.50 10Q364-9 337-9Q310-9 287.50 10M515.50 10Q515.50 10 504.25 19.50Q493 29 493 63Q493 97 515.50 116Q538 135 565 135Q592 135 614.50 116Q637 97 637 63Q637 29 614.50 10Q592-9 565-9Q538-9 515.50 10Z"  horiz-adv-x="726" vert-adv-y="1000"  />

      
      <glyph glyph-name="uni2030" unicode="&#x2030;" d="M111 695.50Q111 695.50 128.50 704.25Q146 713 191 713Q236 713 271 695.50Q306 678 324 650.50Q342 623 350.50 589.50Q359 556 350.50 522.50Q342 489 324 461.50Q306 434 271 416.50Q236 399 191 399Q146 399 111 416.50Q76 434 58 461.50Q40 489 31.50 522.50Q23 556 31.50 589.50Q40 623 58 650.50Q76 678 111 695.50M538 701L679 701L219-1L77-1L538 701M491 289.50Q491 289.50 508.50 298.25Q526 307 571 307Q616 307 651 289.50Q686 272 704 244.50Q722 217 730.50 183.50Q739 150 730.50 116.50Q722 83 704 55.50Q686 28 651 10.50Q616-7 571-7Q526-7 491 10.50Q456 28 438 55.50Q420 83 411.50 116.50Q403 150 411.50 183.50Q420 217 438 244.50Q456 272 491 289.50M618.50 194.50Q618.50 194.50 609.75 204.75Q601 215 571 215Q541 215 523.50 194.50Q506 174 506 149.50Q506 125 523.50 104.50Q541 84 571 84Q601 84 618.50 104.50Q636 125 636 149.50Q636 174 618.50 194.50M238.50 601.50Q238.50 601.50 229.75 611.75Q221 622 191 622Q161 622 143.50 601.50Q126 581 126 556.50Q126 532 143.50 511.50Q161 491 191 491Q221 491 238.50 511.50Q256 532 256 556.50Q256 581 238.50 601.50M863 289.50Q863 289.50 880.50 298.25Q898 307 943 307Q988 307 1023 289.50Q1058 272 1076 244.50Q1094 217 1102.50 183.50Q1111 150 1102.50 116.50Q1094 83 1076 55.50Q1058 28 1023 10.50Q988-7 943-7Q898-7 863 10.50Q828 28 810 55.50Q792 83 783.50 116.50Q775 150 783.50 183.50Q792 217 810 244.50Q828 272 863 289.50M990.50 194.50Q990.50 194.50 981.75 204.75Q973 215 943 215Q913 215 895.50 194.50Q878 174 878 149.50Q878 125 895.50 104.50Q913 84 943 84Q973 84 990.50 104.50Q1008 125 1008 149.50Q1008 174 990.50 194.50Z"  horiz-adv-x="1159" vert-adv-y="1000"  />

      
      <glyph glyph-name="uni2039" unicode="&#x2039;" d="M12 318L151 539L281 539L143 318L281 96L151 96L12 318Z"  horiz-adv-x="324" vert-adv-y="1000"  />

      
      <glyph glyph-name="uni203A" unicode="&#x203A;" d="M152 539L291 318L152 96L22 96L160 318L22 539L152 539Z"  horiz-adv-x="350" vert-adv-y="1000"  />

      
      <glyph glyph-name="uni2044" unicode="&#x2044;" d="M-167-66L186 729L299 729L-54-66L-167-66Z"  horiz-adv-x="164" vert-adv-y="1000"  />

      
      <glyph glyph-name="uni20AC" unicode="&#x20AC;" d="M511 123L548 1Q491-16 427-16Q280-16 194.50 49Q109 114 80 225L12 225L12 322L66 322L66 345Q66 365 67 375L12 375L12 473L83 473Q115 583 201 648.50Q287 714 427 714Q484 714 535 698L493 580Q464 588 427 588Q281 588 217 473L445 473L423 375L187 375Q186 365 186 345Q186 329 187 322L407 322L387 225L214 225Q273 108 427 108Q469 108 511 123Z"  horiz-adv-x="565" vert-adv-y="1000"  />

      
      <glyph glyph-name="uni2122" unicode="&#x2122;" d="M203 621L203 409L108 409L108 621L13 621L13 701L299 701L299 621L203 621M431 702L510 605L589 702L689 702L689 409L592 409L592 496L599 581L519 474L499 474L421 581L428 496L428 409L331 409L331 702L431 702Z"  horiz-adv-x="738" vert-adv-y="1000"  />

      
      <glyph glyph-name="uni2212" unicode="&#x2212;" d="M22 236L22 349L413 349L413 236L22 236Z"  horiz-adv-x="461" vert-adv-y="1000"  />

      
      <glyph glyph-name="uniFB01" unicode="&#xFB01;" d="M210 493L469 493L469 0L347 0L347 389L210 389L210 0L88 0L88 389L-4 389L-4 493L88 493L88 519Q88 586 125 634.50Q162 683 218.50 702Q275 721 345.50 713Q416 705 479 668L434 577Q381 609 328.50 612.50Q276 616 243 590.50Q210 565 210 519L210 493Z"  horiz-adv-x="568" vert-adv-y="1000"  />

      
      <glyph glyph-name="uniFB02" unicode="&#xFB02;" d="M202 0L80 0L80 379L-6 379L-6 486L80 486L80 519Q80 613 134 662.50Q188 712 268 712Q373 712 470 655L470 0L349 0L349 597Q315 615 276 615Q244 615 223 589Q202 563 202 519L202 486L307 486L307 379L202 379L202 0Z"  horiz-adv-x="570" vert-adv-y="1000"  />

      

  </font>
</defs>
</svg>
